<svg width="40" height="40" viewBox="0 0 40 40" fill="none" xmlns="http://www.w3.org/2000/svg">
<rect width="40" height="40" fill="#2E2E2E"/>
<path fill-rule="evenodd" clip-rule="evenodd" d="M28.386 10.2272C27.2477 10.7409 26.8103 11.8868 27.2975 13.0791C27.8464 14.4221 29.661 14.6982 30.6327 13.5863C31.0202 13.1429 31.1173 12.8567 31.1173 12.158C31.1173 11.0812 30.6646 10.4234 29.7437 10.1618C28.9555 9.93799 29.035 9.9342 28.386 10.2272ZM14.6873 12.1765C14.6381 12.6005 13.3588 16.5949 11.8443 21.0533C10.3299 25.5115 9.09082 29.2209 9.09082 29.2965C9.09082 29.372 9.87708 29.4338 10.8383 29.4338H12.5856L13.2758 27.3167L13.9661 25.1996H17.1083H20.2506L20.8822 27.0956C21.2295 28.1383 21.5779 29.0911 21.6563 29.2128C21.8138 29.4571 25.4822 29.5396 25.4739 29.2987C25.4713 29.2245 24.0951 25.1906 22.4156 20.3347L19.3618 11.5059L17.0691 11.4558L14.7765 11.4057L14.6873 12.1765ZM18.2402 18.4612C18.7322 20.1065 19.1349 21.5052 19.1349 21.5693C19.1349 21.6337 18.1958 21.6861 17.0482 21.6861H14.9615L15.919 18.3978C16.4455 16.5893 16.918 14.9879 16.9689 14.8392C17.0755 14.5275 16.9955 14.2994 18.2402 18.4612ZM27.2825 22.542L27.3287 29.3438L29.1349 29.3951L30.941 29.4465V22.5933V15.7401H29.0887H27.2364L27.2825 22.542Z" fill="#F9AB00"/>
</svg>
