<svg width="40" height="40" viewBox="0 0 40 40" fill="none" xmlns="http://www.w3.org/2000/svg">
<rect width="40" height="40" fill="#2E2E2E"/>
<g clip-path="url(#clip0_50_40)">
<path d="M29.0431 6.5H10.9569C8.21929 6.5 6 8.71929 6 11.4569V28.5431C6 31.2807 8.21929 33.5 10.9569 33.5H29.0431C31.7807 33.5 34 31.2807 34 28.5431V11.4569C34 8.71929 31.7807 6.5 29.0431 6.5Z" fill="#000B1D"/>
<path d="M12.5352 25.2696V13.4481C12.5352 13.3619 12.5723 13.3186 12.6462 13.3186C12.8432 13.3186 12.9856 13.3156 13.2571 13.3093C13.5284 13.3032 13.8213 13.297 14.136 13.2909C14.4505 13.2848 14.7835 13.2786 15.135 13.2723C15.4866 13.2662 15.835 13.2631 16.1802 13.263C16.9839 13.2424 17.7851 13.3614 18.5481 13.6146C19.1268 13.8104 19.6546 14.1327 20.093 14.5581C20.4646 14.9268 20.7518 15.3718 20.9348 15.8623C21.1077 16.3397 21.1953 16.8438 21.1936 17.3515C21.2286 18.2174 20.989 19.0721 20.5091 19.7935C20.0498 20.4374 19.4042 20.9249 18.6592 21.1903C17.8289 21.4893 16.9516 21.6366 16.0691 21.6251C15.7976 21.6251 15.6065 21.622 15.4959 21.6158C15.3848 21.6097 15.2183 21.6066 14.9964 21.6065V25.2511C14.9996 25.2737 14.9975 25.2967 14.9903 25.3184C14.983 25.3401 14.9709 25.3597 14.9547 25.3759C14.9386 25.392 14.9189 25.4042 14.8972 25.4115C14.8755 25.4187 14.8525 25.4208 14.8299 25.4176H12.6648C12.5784 25.4176 12.5352 25.3682 12.5352 25.2696ZM14.9964 15.5385V19.368C15.1565 19.3804 15.3045 19.3866 15.4402 19.3865H16.0506C16.4984 19.3931 16.9445 19.3308 17.3733 19.2016C17.74 19.0927 18.0676 18.8808 18.3172 18.591C18.5754 18.2523 18.7034 17.8322 18.6778 17.407C18.6876 17.0492 18.5944 16.6961 18.4095 16.3896C18.2151 16.0932 17.9341 15.8639 17.6048 15.7329C17.1748 15.5656 16.7154 15.487 16.2542 15.5015C15.9583 15.5015 15.6963 15.5046 15.4681 15.5108C15.2396 15.5172 15.0823 15.5264 14.9964 15.5385Z" fill="white"/>
<path d="M24.0123 18.4525L22.7089 18.4141C22.6225 18.4019 22.5793 18.3585 22.5793 18.2846V16.662C22.5768 16.6444 22.5784 16.6265 22.584 16.6096C22.5897 16.5927 22.5992 16.5774 22.6117 16.5649C22.6243 16.5523 22.6396 16.5428 22.6565 16.5372C22.6734 16.5316 22.6913 16.53 22.7089 16.5325L24.0123 16.5468V16.5105C24.0096 15.9571 24.0404 15.404 24.1046 14.8543C24.161 14.531 24.2606 14.2167 24.4007 13.9199C24.6399 13.4231 25.0031 12.9962 25.4552 12.6804C25.9951 12.3363 26.6286 12.1682 27.2681 12.1995C27.4474 12.1986 27.6266 12.2078 27.8048 12.2272C27.9861 12.2428 28.1653 12.277 28.3397 12.329C28.3782 12.3419 28.4116 12.3669 28.4349 12.4002C28.4582 12.4334 28.4703 12.4733 28.4693 12.5139V14.3455C28.4693 14.4319 28.4199 14.4628 28.3211 14.438C28.2347 14.4258 28.0328 14.4195 27.9342 14.4195H27.6568C27.4062 14.4157 27.1571 14.4596 26.9229 14.549C26.7499 14.6429 26.618 14.7979 26.553 14.9838C26.4631 15.2486 26.4223 15.5276 26.4327 15.807V16.5468H28.2403C28.314 16.5468 28.3604 16.5591 28.379 16.5838C28.3998 16.6169 28.4095 16.6557 28.4068 16.6947V18.323C28.4068 18.4094 28.3513 18.4526 28.2403 18.4525H26.4327L26.4472 25.32C26.4467 25.3587 26.4373 25.3966 26.4196 25.431C26.401 25.468 26.3549 25.4865 26.2806 25.4865H24.1747C24.0758 25.4865 24.0267 25.431 24.0267 25.32L24.0123 18.4525Z" fill="white"/>
</g>
<defs>
<clipPath id="clip0_50_40">
<rect width="28" height="28" fill="white" transform="translate(6 6)"/>
</clipPath>
</defs>
</svg>
