<svg width="40" height="40" viewBox="0 0 40 40" fill="none" xmlns="http://www.w3.org/2000/svg">
<rect width="40" height="40" fill="#2E2E2E"/>
<g clip-path="url(#clip0_309_195)">
<path fill-rule="evenodd" clip-rule="evenodd" d="M33.1799 19.1661C33.1799 26.4378 27.2855 32.3323 20.0138 32.3323C12.7424 32.3323 6.84766 26.4378 6.84766 19.1661C6.84766 11.8947 12.7424 6 20.0138 6C27.2855 6 33.1799 11.8947 33.1799 19.1661Z" fill="#ECB360"/>
<path fill-rule="evenodd" clip-rule="evenodd" d="M29.669 17.8495C29.669 24.3938 24.56 29.6991 18.2583 29.6991C11.9564 29.6991 6.84766 24.3938 6.84766 17.8495C6.84766 11.3053 11.9564 6 18.2583 6C24.56 6 29.669 11.3053 29.669 17.8495Z" fill="#D76835"/>
<path fill-rule="evenodd" clip-rule="evenodd" d="M30.5475 16.5328C30.5475 22.3501 26.0282 27.0658 20.4531 27.0658C14.8787 27.0658 10.3594 22.3501 10.3594 16.5328C10.3594 10.7158 14.8787 6 20.4531 6C26.0282 6 30.5475 10.7158 30.5475 16.5328Z" fill="#D33A41"/>
<path fill-rule="evenodd" clip-rule="evenodd" d="M29.6689 17.4112C29.6689 22.7433 25.5425 27.0662 20.4525 27.0662C15.3625 27.0662 11.2363 22.7433 11.2363 17.4112C11.2363 12.0785 15.3625 7.75586 20.4525 7.75586C25.5425 7.75586 29.6689 12.0785 29.6689 17.4112Z" fill="#B6CB46"/>
<path fill-rule="evenodd" clip-rule="evenodd" d="M28.7912 18.289C28.7912 23.1367 24.8613 27.0666 20.0136 27.0666C15.1662 27.0666 11.2363 23.1367 11.2363 18.289C11.2363 13.4414 15.1662 9.51172 20.0136 9.51172C24.8613 9.51172 28.7912 13.4414 28.7912 18.289Z" fill="#66AD4A"/>
<path fill-rule="evenodd" clip-rule="evenodd" d="M25.2802 16.5337C25.2802 20.4118 22.1364 23.5556 18.2583 23.5556C14.3799 23.5556 11.2363 20.4118 11.2363 16.5337C11.2363 12.6556 14.3799 9.51172 18.2583 9.51172C22.1364 9.51172 25.2802 12.6556 25.2802 16.5337Z" fill="#AED7DC"/>
<path fill-rule="evenodd" clip-rule="evenodd" d="M26.1575 15.6559C26.1575 19.0492 23.4068 21.8001 20.0132 21.8001C16.6197 21.8001 13.8691 19.0492 13.8691 15.6559C13.8691 12.2624 16.6197 9.51172 20.0132 9.51172C23.4068 9.51172 26.1575 12.2624 26.1575 15.6559Z" fill="#5BB1CF"/>
<path fill-rule="evenodd" clip-rule="evenodd" d="M26.1579 16.0939C26.1579 19.2448 23.8001 21.7993 20.8915 21.7993C17.9828 21.7993 15.625 19.2448 15.625 16.0939C15.625 12.9432 17.9828 10.3887 20.8915 10.3887C23.8001 10.3887 26.1579 12.9432 26.1579 16.0939Z" fill="#25A8C3"/>
<path fill-rule="evenodd" clip-rule="evenodd" d="M20.0136 21.7997C17.59 21.7997 15.625 19.6382 15.625 16.972C15.625 14.3057 17.59 12.1445 20.0136 12.1445C22.4375 12.1445 24.4024 14.3057 24.4024 16.972C24.4024 19.6382 22.4375 21.7997 20.0136 21.7997Z" fill="#1B1A18"/>
<path fill-rule="evenodd" clip-rule="evenodd" d="M22.4084 15.5805C21.9908 16.2789 21.1699 16.6829 20.5745 16.4821C19.9791 16.2816 19.835 15.5524 20.2522 14.8537C20.6697 14.155 21.4906 13.7513 22.086 13.9518C22.6814 14.1523 22.8256 14.8815 22.4084 15.5805Z" fill="#FFFFFE"/>
</g>
<defs>
<clipPath id="clip0_309_195">
<rect width="28" height="27.1515" fill="white" transform="translate(6 6)"/>
</clipPath>
</defs>
</svg>
