<svg width="40" height="40" viewBox="0 0 40 40" fill="none" xmlns="http://www.w3.org/2000/svg">
<rect width="40" height="40" fill="#2E2E2E"/>
<g clip-path="url(#clip0_50_31)">
<path d="M20 20.4998C20 19.218 20.5268 17.9886 21.4645 17.0822C22.4021 16.1757 23.6739 15.6665 25 15.6665C26.3261 15.6665 27.5979 16.1757 28.5355 17.0822C29.4732 17.9886 30 19.218 30 20.4998C30 21.7817 29.4732 23.0111 28.5355 23.9175C27.5979 24.8239 26.3261 25.3332 25 25.3332C23.6739 25.3332 22.4021 24.8239 21.4645 23.9175C20.5268 23.0111 20 21.7817 20 20.4998Z" fill="#1ABCFE"/>
<path d="M10 30.1668C10 28.8849 10.5268 27.6556 11.4645 26.7491C12.4021 25.8427 13.6739 25.3335 15 25.3335H20V30.1668C20 31.4487 19.4732 32.6781 18.5355 33.5845C17.5979 34.4909 16.3261 35.0002 15 35.0002C13.6739 35.0002 12.4021 34.4909 11.4645 33.5845C10.5268 32.6781 10 31.4487 10 30.1668Z" fill="#0ACF83"/>
<path d="M20 6V15.6667H25C26.3261 15.6667 27.5979 15.1574 28.5355 14.251C29.4732 13.3446 30 12.1152 30 10.8333C30 9.55145 29.4732 8.32208 28.5355 7.41565C27.5979 6.50922 26.3261 6 25 6H20Z" fill="#FF7262"/>
<path d="M10 10.8333C10 12.1152 10.5268 13.3446 11.4645 14.251C12.4021 15.1574 13.6739 15.6667 15 15.6667H20V6H15C13.6739 6 12.4021 6.50922 11.4645 7.41565C10.5268 8.32208 10 9.55145 10 10.8333V10.8333Z" fill="#F24E1E"/>
<path d="M10 20.4998C10 21.7817 10.5268 23.0111 11.4645 23.9175C12.4021 24.8239 13.6739 25.3332 15 25.3332H20V15.6665H15C13.6739 15.6665 12.4021 16.1757 11.4645 17.0822C10.5268 17.9886 10 19.218 10 20.4998V20.4998Z" fill="#A259FF"/>
</g>
<defs>
<clipPath id="clip0_50_31">
<rect width="20" height="29" fill="white" transform="translate(10 6)"/>
</clipPath>
</defs>
</svg>
