<svg width="40" height="40" viewBox="0 0 40 40" fill="none" xmlns="http://www.w3.org/2000/svg">
<rect width="40" height="40" fill="#2E2E2E"/>
<path d="M32.386 18.7068L21.2929 7.61378C20.9527 7.2735 20.4763 7.06934 19.9999 7.06934C19.5235 7.06934 19.0471 7.2735 18.7068 7.61378L16.3249 9.99572L19.1152 12.786C19.3874 12.6499 19.6596 12.5818 19.9999 12.5818C21.1568 12.5818 22.0416 13.4666 22.0416 14.6235C22.0416 14.9638 21.9735 15.236 21.8374 15.5082L24.5596 18.2304C24.8318 18.0943 25.1041 18.0263 25.4443 18.0263C26.6013 18.0263 27.486 18.911 27.486 20.0679C27.486 21.2249 26.6013 22.1096 25.4443 22.1096C24.2874 22.1096 23.4027 21.2249 23.4027 20.0679C23.4027 19.7277 23.4707 19.4554 23.6068 19.1832L20.8846 16.461C20.8166 16.461 20.7485 16.5291 20.6804 16.5291V23.6068C21.4971 23.8791 22.0416 24.6277 22.0416 25.5124C22.0416 26.6693 21.1568 27.5541 19.9999 27.5541C18.8429 27.5541 17.9582 26.6693 17.9582 25.5124C17.9582 24.6277 18.5027 23.8791 19.3193 23.6068V16.461C18.5027 16.1888 17.9582 15.4402 17.9582 14.5554C17.9582 14.2152 18.0263 13.9429 18.1624 13.6707L15.3721 10.8804L7.61378 18.7068C7.2735 19.0471 7.06934 19.5235 7.06934 19.9999C7.06934 20.4763 7.2735 20.9527 7.61378 21.2929L18.7068 32.386C19.0471 32.7263 19.5235 32.9304 19.9999 32.9304C20.4763 32.9304 20.9527 32.7263 21.2929 32.386L32.386 21.2929C32.7263 20.9527 32.9304 20.4763 32.9304 19.9999C32.9304 19.5235 32.7263 19.0471 32.386 18.7068Z" fill="#F4511E"/>
</svg>
