<svg width="40" height="40" viewBox="0 0 40 40" fill="none" xmlns="http://www.w3.org/2000/svg">
<rect width="40" height="40" fill="#2E2E2E"/>
<path d="M25.7227 8.57435V31.0417C25.7227 33.5556 27.4588 34.9564 29.297 34.9564C30.9991 34.9564 32.8714 33.765 32.8714 31.0417V8.74455C32.8714 6.43995 31.1693 5 29.297 5C27.4247 5 25.7227 6.58803 25.7227 8.57435Z" fill="#F9AB00"/>
<path d="M16.3613 19.9786V31.0421C16.3613 33.556 18.0974 34.9568 19.9357 34.9568C21.6378 34.9568 23.5101 33.7654 23.5101 31.0421V20.1488C23.5101 17.8442 21.808 16.4043 19.9357 16.4043C18.0634 16.4043 16.3613 17.9923 16.3613 19.9786Z" fill="#E37400"/>
<path d="M10.5744 34.9573C12.5484 34.9573 14.1487 33.357 14.1487 31.3829C14.1487 29.4089 12.5484 27.8086 10.5744 27.8086C8.6003 27.8086 7 29.4089 7 31.3829C7 33.357 8.6003 34.9573 10.5744 34.9573Z" fill="#E37400"/>
</svg>
