<svg width="40" height="40" viewBox="0 0 40 40" fill="none" xmlns="http://www.w3.org/2000/svg">
<rect width="40" height="40" fill="#2E2E2E"/>
<path fill-rule="evenodd" clip-rule="evenodd" d="M13.1974 8.3864C14.7386 11.6598 14.9856 13.2734 14.2145 15.0286C14.0806 15.3334 13.5063 16.075 12.9381 16.6765C11.0796 18.6442 10 21.3407 10 24.0146C10 26.7488 10.9614 28.6955 13.0426 30.1747C14.0238 30.8721 15.6562 31.5487 16.7787 31.7228L17.3918 31.818L17.1213 30.8421C16.8001 29.6842 16.7997 28.1898 17.1201 26.9249L17.3518 26.0094L17.7174 26.5223C18.2332 27.2457 19.01 27.5658 20.2512 27.5658C22.2762 27.5658 23.0709 26.3954 23.2807 23.1042L23.4075 21.1145L24.4046 22.1018C26.6226 24.2982 26.9082 27.6511 25.1532 30.891L24.6825 31.7598L25.4341 31.5117C29.3192 30.2295 31.1416 27.5024 30.8854 23.3545C30.6566 19.6527 28.6766 15.9062 25.733 13.6057C22.9857 11.4588 18.9828 9.55126 15.2738 8.62168C13.1466 8.08868 13.0524 8.07788 13.1974 8.3864Z" fill="#FF1469"/>
</svg>
