<svg width="40" height="40" viewBox="0 0 40 40" fill="none" xmlns="http://www.w3.org/2000/svg">
<rect width="40" height="40" fill="#2E2E2E"/>
<g clip-path="url(#clip0_52_209)">
<path d="M29.4398 22.7595C19.3998 21.9595 11.1198 24.3995 9.23978 25.3195C8.19978 25.7995 8.11978 26.3995 8.27978 26.7195C8.39978 26.9595 8.91978 27.1195 9.43978 26.8395C13.4398 24.6795 21.4798 22.9595 29.4398 23.4395C29.6398 23.4395 29.7998 23.2795 29.7998 23.0795C29.7998 22.9195 29.6398 22.7595 29.4398 22.7595ZM31.9198 19.7195C31.4798 20.1995 30.8798 20.5595 30.6798 20.3995C30.4798 20.2395 30.6798 19.6395 30.6798 19.6395C31.6798 18.9995 33.5998 17.3595 33.5998 16.0795C33.5998 14.9195 32.5598 14.5595 31.4798 15.6395C30.5998 16.5995 29.9598 17.7995 29.5998 19.0795C29.0398 19.6395 28.1198 20.3595 27.3198 20.3595C26.8798 20.3595 26.7998 20.0395 26.8398 19.6395C27.5198 19.6395 29.4398 19.0795 29.4398 17.4795C29.4398 17.1995 29.3198 16.9595 29.1198 16.7595C28.9198 16.5595 28.6798 16.4795 28.3998 16.5195C27.5198 16.5195 26.4398 17.3995 25.8798 18.6795C25.7598 18.6395 25.5998 18.5995 25.4798 18.5195C25.6398 18.1995 25.7198 17.8795 25.8398 17.5595C25.9598 16.8795 25.6798 16.4795 25.1598 16.5595C24.7998 16.5595 24.3998 16.8795 24.2798 17.5595C24.2398 17.9195 24.3198 18.2795 24.4398 18.5595C24.1998 19.3195 23.2398 20.2395 22.9198 20.1995C22.5998 20.1595 22.9598 18.8395 23.2798 17.8395C23.4798 17.6395 23.5998 17.4395 23.7198 17.1595C23.7998 16.9595 23.7598 16.7195 23.5598 16.6395C23.0798 16.4395 22.5198 16.6795 22.3198 17.1595C22.1998 17.3995 22.0798 17.6395 21.9598 17.9195C21.6798 18.2395 21.2798 18.6795 21.1598 18.6395C20.9998 18.5195 21.5998 17.7195 21.5198 17.2395C21.4798 16.8795 21.1198 16.5995 20.7598 16.6395C20.1998 16.7195 19.5198 17.7595 19.5198 17.7595C19.5998 17.5595 19.6398 17.3595 19.6798 17.1595C19.6398 16.7595 18.9198 16.5995 18.5598 17.3195C18.3198 17.9995 18.1198 18.7195 18.0398 19.4395C17.8798 19.7595 17.2798 20.7195 16.7998 20.7595C16.3998 20.7995 16.8798 19.0395 16.9598 18.9595C17.1598 18.6395 17.4398 17.9595 17.3998 17.6395C17.3998 17.4795 17.3598 17.3595 17.2398 17.2795C17.1198 17.1995 16.9598 17.1595 16.8398 17.1995C16.5998 17.2795 16.3998 17.4395 16.2798 17.6395C16.1198 17.4395 15.8398 17.3195 15.5598 17.3595C13.9598 17.5195 12.9598 20.3195 13.0798 21.6395C13.1598 22.3595 13.5198 22.7995 14.1198 22.6795C14.7998 22.5995 15.3598 21.5595 15.3598 21.5595C15.3598 21.5595 15.5198 22.3995 16.2798 22.3195C16.8398 22.1595 17.3198 21.7995 17.6798 21.3195C17.6798 21.3595 17.6398 21.3995 17.6398 21.4795C17.5198 22.1995 18.6798 22.1195 18.7598 21.5595C19.1198 18.8795 19.9998 17.7995 20.2398 17.7995C20.4398 17.7995 19.6798 19.0395 20.1198 19.5595C20.4798 19.9595 21.0798 19.6395 21.5998 19.1995C21.5198 19.5195 21.4798 19.8795 21.4398 20.1995C21.3998 20.9595 21.6798 21.5595 22.3998 21.5195C23.3598 21.4795 24.3598 20.2795 25.0398 19.1595C25.1998 19.2795 25.3998 19.3595 25.5998 19.3995C25.5198 19.6795 25.5198 19.9595 25.5198 20.1995C25.5598 21.0795 26.1598 21.3995 26.8798 21.3595C27.6798 21.3195 28.6398 20.7195 29.2798 20.1195C29.2798 20.1595 29.2798 20.1995 29.2398 20.1995C29.1998 20.6395 29.2798 21.3995 29.8798 21.4395C30.5598 21.4795 31.7598 20.7995 32.3598 20.0395C32.7998 19.7995 32.2798 19.3195 31.9198 19.7195ZM32.5598 16.1195C32.6398 16.1195 32.6798 16.1995 32.6798 16.2795C32.6798 17.0395 30.8398 18.5995 30.8398 18.5995C30.8398 18.5995 32.0398 16.1195 32.5598 16.1195ZM28.0798 17.6795C28.1598 17.6795 28.1998 17.6795 28.2398 17.7595C28.2798 17.8395 28.2798 17.8795 28.2798 17.9195C28.2798 18.3595 27.7198 18.6795 27.0798 18.6795C27.4398 18.1595 27.7998 17.6795 28.0798 17.6795ZM15.6798 18.8395C15.6398 19.2795 14.8398 21.3195 14.4398 21.3195C13.9198 21.3595 14.7198 18.4795 15.5598 18.4795C15.7198 18.4795 15.7198 18.5995 15.6798 18.8395ZM8.91978 19.3995C9.43978 19.3995 8.47978 22.0795 8.59978 23.2395C8.71978 24.3995 9.99978 24.0795 9.91978 23.3995C9.75978 22.2395 10.5598 18.5995 11.3198 18.5995C11.8798 18.5995 10.6798 21.0795 10.9198 22.6395C11.0798 23.6395 12.4398 23.3595 12.2798 22.6795C11.8398 20.6395 13.2798 18.6795 13.0798 17.2395C12.9998 16.6395 12.6398 16.3195 12.2798 16.3195C10.9998 16.3195 9.95978 18.9595 9.95978 18.9595C9.95978 18.9595 10.1198 17.4795 9.03978 17.3995C7.51978 17.3195 5.95978 21.1595 5.99978 24.6395C6.03978 25.7595 7.39978 25.5595 7.31978 24.6795C7.23978 23.1195 8.11978 19.3995 8.91978 19.3995Z" fill="#1FB6FF"/>
</g>
<defs>
<clipPath id="clip0_52_209">
<rect width="28" height="12" fill="white" transform="translate(6 15)"/>
</clipPath>
</defs>
</svg>
