<svg width="40" height="40" viewBox="0 0 40 40" fill="none" xmlns="http://www.w3.org/2000/svg">
<rect width="40" height="40" fill="#2E2E2E"/>
<path d="M20.0044 32.4945C19.6696 32.4945 19.3377 32.407 19.0442 32.2378L15.9876 30.4277C15.5308 30.1722 15.7537 30.0818 15.9042 30.0299C16.5132 29.817 16.6362 29.7686 17.2861 29.3993C17.3543 29.3602 17.4436 29.3742 17.5136 29.4157L19.8621 30.8092C19.9467 30.8553 20.0674 30.8553 20.1456 30.8092L29.3022 25.5237C29.3867 25.4752 29.4422 25.3772 29.4422 25.2763V14.7104C29.4422 14.6048 29.3873 14.5109 29.3004 14.4584L20.1479 9.17691C20.0633 9.12675 19.9507 9.12675 19.8662 9.17691L10.7148 14.4578C10.6262 14.508 10.5696 14.6066 10.5696 14.7075V25.274C10.5696 25.3749 10.6244 25.4712 10.7119 25.519L13.2197 26.9674C14.5812 27.6482 15.413 26.8461 15.413 26.0393V15.6111C15.413 15.4623 15.5297 15.3474 15.679 15.3474H16.8387C16.9833 15.3474 17.1023 15.4617 17.1023 15.6111V26.0446C17.1023 27.8599 16.1124 28.9029 14.391 28.9029C13.8613 28.9029 13.4442 28.9029 12.2799 28.3301L9.87774 26.9458C9.28391 26.6017 8.91699 25.9594 8.91699 25.2746V14.7081C8.91699 14.0203 9.28391 13.3787 9.87716 13.0392L19.0437 7.75125C19.6235 7.42341 20.3935 7.42341 20.9692 7.75125L30.1241 13.0415C30.7144 13.3827 31.0837 14.0227 31.0837 14.7104V25.2769C31.0837 25.9623 30.7144 26.6017 30.1235 26.9458L20.9687 32.2332C20.6752 32.4029 20.3427 32.4898 20.0038 32.4898" fill="#21A366"/>
<path d="M22.8327 25.2134C18.8263 25.2134 17.9863 23.3742 17.9863 21.8318C17.9863 21.6854 18.1047 21.5682 18.2517 21.5682H19.4347C19.5654 21.5682 19.6757 21.6633 19.6961 21.7922C19.8746 22.9973 20.4066 23.6052 22.8292 23.6052C24.7588 23.6052 25.5796 23.1694 25.5796 22.1457C25.5796 21.5565 25.3457 21.119 22.3479 20.8256C19.8402 20.5783 18.2908 20.0258 18.2908 18.0203C18.2908 16.1729 19.8495 15.0728 22.4599 15.0728C25.3917 15.0728 26.8448 16.0907 27.028 18.277C27.035 18.3528 27.0076 18.4258 26.9568 18.4812C26.9067 18.5337 26.8355 18.5658 26.762 18.5658H25.5726C25.4489 18.5658 25.341 18.4788 25.3159 18.3593C25.0295 17.0917 24.3371 16.6863 22.4552 16.6863C20.3488 16.6863 20.1038 17.4195 20.1038 17.9696C20.1038 18.6363 20.3926 18.8312 23.2346 19.2074C26.0492 19.5808 27.3856 20.1081 27.3856 22.0862C27.3856 24.08 25.7213 25.2239 22.8198 25.2239" fill="#21A366"/>
</svg>
