<svg width="40" height="40" viewBox="0 0 40 40" fill="none" xmlns="http://www.w3.org/2000/svg">
<rect width="40" height="40" fill="#2E2E2E"/>
<path fill-rule="evenodd" clip-rule="evenodd" d="M11.8827 10.9147C11.6501 10.9222 10.7372 10.9485 9.85407 10.9729C8.68692 11.0051 8.2395 11.0309 8.21586 11.0673C8.1641 11.147 8.17399 27.6733 8.22584 27.7681C8.26801 27.8451 8.33195 27.8481 9.95139 27.8481C11.203 27.8481 11.6461 27.8354 11.6839 27.7984C11.7223 27.7609 11.7347 27.1095 11.7347 25.1203V22.4917L13.1409 22.4913C14.2697 22.491 14.6473 22.4764 15.0546 22.4173C16.796 22.1646 17.9431 21.6748 18.8975 20.7765C19.7827 19.9433 20.2419 19.0795 20.4703 17.8179C20.5758 17.2346 20.5764 16.0967 20.4714 15.5637C20.0562 13.4558 18.7497 12.0282 16.5983 11.3317C15.6893 11.0374 14.9068 10.9347 13.4264 10.9154C12.81 10.9074 12.1153 10.9071 11.8827 10.9147ZM14.3288 14.0786C15.8229 14.2562 16.7174 14.9575 16.9608 16.142C17.0151 16.4062 17.0263 16.5952 17.006 16.9072C16.9563 17.6718 16.7872 18.0775 16.3343 18.5185C15.9887 18.855 15.6327 19.065 15.1475 19.2186C14.4293 19.4459 14.214 19.4706 12.94 19.4715L11.7558 19.4724L11.7449 16.7763L11.7341 14.0802L11.8507 14.064C12.1257 14.0256 13.9748 14.0365 14.3288 14.0786ZM26.8303 14.9019C24.7446 15.0584 23.2306 15.9907 22.6432 17.4803C22.4545 17.9591 22.3856 18.3278 22.3835 18.8726C22.3805 19.6214 22.5559 20.2168 22.9461 20.7825C23.5478 21.6551 24.5295 22.2959 26.3257 22.9885C27.6132 23.485 28.0467 23.735 28.2303 24.087C28.4663 24.5394 28.2041 24.9781 27.5838 25.1688C27.3086 25.2533 27.193 25.263 26.4526 25.2629C25.5726 25.2628 25.3298 25.2339 24.4873 25.0288C23.8908 24.8836 23.3769 24.6958 22.8547 24.432C22.6467 24.3269 22.4481 24.2516 22.4133 24.2647C22.3589 24.2851 22.3502 24.4989 22.3502 25.8137C22.3502 27.5512 22.3139 27.3928 22.7519 27.5706C24.223 28.1681 26.6052 28.3564 28.2687 28.0068C29.0107 27.8508 29.7332 27.5575 30.2378 27.2073C30.584 26.9671 31.1017 26.4281 31.2933 26.1083C31.7009 25.4281 31.8427 24.8451 31.8146 23.9645C31.7972 23.4211 31.7816 23.3211 31.6595 22.9696C31.5849 22.7548 31.4539 22.4665 31.3685 22.329C31.1444 21.9682 30.6369 21.4683 30.2138 21.1915C29.7642 20.8973 28.7352 20.3868 28.1654 20.175C27.1152 19.7848 26.4435 19.4691 26.1238 19.2156C25.6876 18.8697 25.6553 18.3336 26.0514 18.0143C26.3042 17.8105 26.6892 17.7345 27.4464 17.7388C28.4986 17.7448 29.6107 17.956 30.3904 18.2978C30.6264 18.4013 30.8562 18.4735 30.9567 18.4758L31.1259 18.4797L31.137 17.0199C31.1438 16.1303 31.1321 15.5308 31.107 15.485C31.0614 15.4017 30.4473 15.1876 29.9769 15.091C29.2111 14.9337 27.6538 14.8401 26.8303 14.9019Z" fill="#5080FC"/>
</svg>
