<svg width="40" height="40" viewBox="0 0 40 40" fill="none" xmlns="http://www.w3.org/2000/svg">
<rect width="40" height="40" fill="#2E2E2E"/>
<g clip-path="url(#clip0_302_84)">
<path d="M7.08549 35.2513L6.00126 6.36156C5.96545 5.40744 6.69703 4.59884 7.64996 4.53929L32.2227 3.00349C33.1927 2.94286 34.0282 3.68003 34.0887 4.65C34.091 4.68655 34.0922 4.72315 34.0922 4.75976V36.2404C34.0922 37.2121 33.3044 38 32.3324 38C32.3062 38 32.2799 37.9995 32.2535 37.9983L8.765 36.9434C7.85022 36.9022 7.11983 36.1664 7.08549 35.2513Z" fill="#FF4785"/>
<path fill-rule="evenodd" clip-rule="evenodd" d="M30.289 3.12305L26.9071 3.33441L26.7421 7.30087C26.7396 7.36184 26.7584 7.42179 26.7953 7.47042C26.883 7.58592 27.0476 7.60853 27.1631 7.52091L28.7038 6.35216L30.0051 7.37731C30.054 7.41572 30.1147 7.4356 30.1768 7.43345C30.3217 7.42839 30.4351 7.30683 30.43 7.16193L30.289 3.12305ZM27.6568 16.4055C27.0377 16.8864 22.4261 17.2145 22.4261 16.5299C22.5236 13.9174 21.354 13.8029 20.7042 13.8029C20.0869 13.8029 19.0473 13.9895 19.0473 15.389C19.0473 16.8152 20.5666 17.6203 22.3499 18.5653C24.8832 19.9078 27.9491 21.5326 27.9491 25.621C27.9491 29.5396 24.7653 31.7041 20.7042 31.7041C16.5132 31.7041 12.8508 30.0086 13.2644 24.13C13.4268 23.4398 18.7549 23.6037 18.7549 24.13C18.6899 26.5558 19.2423 27.2693 20.6392 27.2693C21.7114 27.2693 22.1987 26.6783 22.1987 25.6831C22.1987 24.177 20.6157 23.2882 18.7947 22.2659C16.329 20.8814 13.4268 19.2521 13.4268 15.5134C13.4268 11.7814 15.9934 9.2934 20.5743 9.2934C25.1552 9.2934 27.6568 11.7433 27.6568 16.4055Z" fill="white"/>
</g>
<defs>
<clipPath id="clip0_302_84">
<rect width="28" height="35" fill="white" transform="translate(6 3)"/>
</clipPath>
</defs>
</svg>
