<svg width="40" height="40" viewBox="0 0 40 40" fill="none" xmlns="http://www.w3.org/2000/svg">
<rect width="40" height="40" fill="#2E2E2E"/>
<g clip-path="url(#clip0_307_104)">
<path fill-rule="evenodd" clip-rule="evenodd" d="M20.0093 11C16.2733 11 13.9388 12.8568 13.0044 16.5704C14.4055 14.7136 16.0399 14.0174 17.9077 14.4813C18.9733 14.746 19.7354 15.5146 20.5781 16.3656C21.9518 17.7513 23.5417 19.355 27.0137 19.355C30.7492 19.355 33.0842 17.4982 34.0181 13.7852C32.6176 15.642 30.9831 16.3381 29.1154 15.8736C28.0492 15.609 27.2871 14.8404 26.4444 13.99C25.0707 12.6031 23.4813 11 20.0093 11ZM13.0044 19.355C9.26886 19.355 6.93388 21.2118 6 24.9253C7.4011 23.0685 9.03553 22.3724 10.9027 22.8363C11.9689 23.1009 12.731 23.8696 13.5737 24.7205C14.9474 26.1063 16.5368 27.71 20.0093 27.71C23.7449 27.71 26.0798 25.8537 27.0137 22.1402C25.6126 23.9969 23.9782 24.6931 22.1104 24.2292C21.0448 23.964 20.2827 23.1954 19.44 22.3449C18.0663 20.9592 16.4764 19.355 13.0044 19.355Z" fill="#38BDF8"/>
</g>
<defs>
<clipPath id="clip0_307_104">
<rect width="28" height="17.0196" fill="white" transform="translate(6 11)"/>
</clipPath>
</defs>
</svg>
