<svg width="40" height="40" viewBox="0 0 40 40" fill="none" xmlns="http://www.w3.org/2000/svg">
<rect width="40" height="40" fill="#2E2E2E"/>
<path fill-rule="evenodd" clip-rule="evenodd" d="M18.6928 6.04203C7.16382 6.99847 1.85164 20.5517 9.76666 28.816C17.7031 37.1024 31.5853 32.3606 32.9157 20.9087C33.8582 12.795 26.7576 5.37296 18.6928 6.04203ZM21.3328 7.02697C30.9937 8.48631 35.4292 19.9088 29.2763 27.4835C23.4884 34.6088 12.1229 33.2549 8.15421 24.9674C3.8122 15.9002 11.4291 5.53097 21.3328 7.02697ZM15.3347 13.5672C14.1084 13.8977 13.2337 15.2023 13.2305 16.7059C13.2295 17.1378 13.2463 17.1479 13.9657 17.1479C14.6689 17.1479 14.6645 17.1504 14.7184 16.7052C14.9469 14.8172 15.8894 14.6418 18.6666 15.9704C20.0182 16.617 20.8411 16.9503 21.4365 17.0924C23.7281 17.6393 25.2127 16.5625 25.3421 14.2597C25.3838 13.5183 25.4043 13.5389 24.6263 13.5389C23.9063 13.5389 23.9211 13.5289 23.8749 14.0494C23.7088 15.9232 22.7063 16.0488 19.6076 14.5837C17.4071 13.5433 16.3536 13.2927 15.3347 13.5672ZM18.4924 17.4443C18.4243 17.5123 18.4518 27.2683 18.5203 27.3367C18.5635 27.38 18.8281 27.3995 19.3724 27.3995C19.9166 27.3995 20.1813 27.38 20.2245 27.3367C20.3177 27.2435 20.3151 18.1461 20.2219 18.0232C20.1096 17.8751 18.5751 17.3614 18.4924 17.4443Z" fill="white"/>
</svg>
