<svg width="40" height="40" viewBox="0 0 40 40" fill="none" xmlns="http://www.w3.org/2000/svg">
<rect width="40" height="40" fill="#2E2E2E"/>
<path d="M20 32.6875C27.0071 32.6875 32.6875 27.0071 32.6875 20C32.6875 12.9929 27.0071 7.3125 20 7.3125C12.9929 7.3125 7.3125 12.9929 7.3125 20C7.3125 27.0071 12.9929 32.6875 20 32.6875Z" fill="#6E91CE"/>
<path d="M20 30.5C19.7581 30.5 19.5625 30.3044 19.5625 30.0625V29.1875C19.5625 28.9456 19.7581 28.75 20 28.75C20.2419 28.75 20.4375 28.9456 20.4375 29.1875V30.0625C20.4375 30.3044 20.2419 30.5 20 30.5Z" fill="#8D6C9F"/>
<path d="M20 32.6875C13.0044 32.6875 7.3125 26.9956 7.3125 20C7.3125 13.0044 13.0044 7.3125 20 7.3125C26.9956 7.3125 32.6875 13.0044 32.6875 20C32.6875 26.9956 26.9956 32.6875 20 32.6875ZM20 8.1875C13.4865 8.1875 8.1875 13.4865 8.1875 20C8.1875 26.5135 13.4865 31.8125 20 31.8125C26.5135 31.8125 31.8125 26.5135 31.8125 20C31.8125 13.4865 26.5135 8.1875 20 8.1875Z" fill="#8D6C9F"/>
<path d="M24.9354 11.3477C24.8531 11.4978 24.6952 11.5809 24.5346 11.5752C24.469 11.5731 24.4034 11.556 24.3417 11.5223C24.0477 11.3617 23.7436 11.2165 23.4365 11.0905C23.2125 10.9982 23.1057 10.7427 23.198 10.5196C23.2899 10.2956 23.5459 10.1897 23.769 10.2811C24.1059 10.4198 24.4397 10.5786 24.7608 10.7545C24.973 10.87 25.0513 11.1356 24.9354 11.3477ZM22.2093 10.2251C22.1634 10.4622 21.9376 10.6162 21.6961 10.5712C19.6407 10.1735 17.4944 10.4898 15.6534 11.4628C15.5829 11.5 15.5077 11.5162 15.4333 11.5131C15.2819 11.5074 15.1375 11.4239 15.0627 11.2812C14.9494 11.0677 15.0312 10.8031 15.2452 10.6897C17.262 9.62355 19.6119 9.27574 21.8632 9.71149C22.1004 9.75874 22.2557 9.98843 22.2093 10.2251Z" fill="#8D6C9F"/>
<path d="M22.564 30.1769C22.5255 30.187 22.487 30.1918 22.4481 30.1918C22.2556 30.19 22.0806 30.061 22.0294 29.8654L21.8072 29.0188C21.7455 28.7848 21.8855 28.5463 22.1191 28.4847C22.3514 28.4247 22.592 28.5625 22.6533 28.7966L22.8755 29.6423C22.9377 29.8763 22.7981 30.1152 22.564 30.1769ZM18.0053 29.8462C17.9519 30.0422 17.773 30.1703 17.5796 30.1686C17.542 30.1682 17.5048 30.1625 17.4676 30.1528C17.2344 30.089 17.097 29.8488 17.1613 29.6156L17.3923 28.7712C17.4562 28.5376 17.7003 28.4024 17.9296 28.465C18.1628 28.5288 18.2997 28.7695 18.2358 29.0022L18.0053 29.8462Z" fill="#8D6C9F"/>
<path d="M15.0749 29.193C14.8636 29.0749 14.7883 28.8089 14.9065 28.5976L15.3335 27.8337C15.4516 27.6224 15.7176 27.5471 15.9289 27.6652C16.1402 27.7834 16.2155 28.0494 16.0973 28.2607L15.6703 29.0246C15.5522 29.2354 15.2858 29.3107 15.0749 29.193Z" fill="#8D6C9F"/>
<path d="M24.9484 29.193C25.1597 29.0749 25.235 28.8089 25.1169 28.5976L24.6899 27.8337C24.5717 27.6224 24.3057 27.5471 24.0944 27.6652C23.8831 27.7834 23.8079 28.0494 23.926 28.2607L24.353 29.0246C24.4707 29.2354 24.7371 29.3107 24.9484 29.193Z" fill="#8D6C9F"/>
<path d="M13.1553 14.75H13.6566C15.1958 14.75 16.8657 15.9356 16.997 17.9201C17.0009 17.9892 17.0464 18.7851 17.0941 19.629C17.4576 18.6853 17.8177 17.7521 17.8177 17.7521C18.0925 17.0136 18.9346 14.75 21.5316 14.75H21.9075L21.9639 15.1219C22.026 15.5288 22.3953 17.9595 22.6626 19.7379C22.9596 18.8034 23.2633 17.8514 23.2869 17.7775C24.0258 15.7899 25.3834 14.75 27.2191 14.75H27.8684L24.868 22.1573C24.0525 24.0959 22.4788 25.25 20.6566 25.25H20.2651C20.2651 25.25 19.9282 22.2339 19.7309 20.4616C19.4413 21.2149 19.1586 21.9473 19.135 22.0086C18.3418 24.0333 16.7852 25.2443 14.97 25.25L14.5872 25.2513L13.1553 14.75Z" fill="white"/>
<path d="M27.2191 15.1875L24.4624 21.9928C23.8836 23.3687 22.6433 24.8125 20.6566 24.8125C20.6566 24.8125 19.9811 18.7588 19.968 18.6236C19.9164 18.7649 18.7272 21.8515 18.7272 21.8515C18.1677 23.2791 16.9558 24.8059 14.9691 24.8125L13.6566 15.1875C14.949 15.1875 16.4448 16.1999 16.5603 17.9486C16.5603 17.9486 16.7598 21.4271 16.7659 21.7036C16.8753 21.4079 18.2254 17.9101 18.2254 17.9101C18.7592 16.4764 19.635 15.1875 21.5316 15.1875C21.5316 15.1875 22.4757 21.3947 22.5077 21.6909C22.5912 21.3952 23.7038 17.9105 23.7038 17.9105C24.2375 16.4764 25.2517 15.1875 27.2191 15.1875ZM28.5176 14.3125H27.2191C25.8003 14.3125 23.8967 14.8839 22.8835 17.6047L22.8765 17.6239L22.8704 17.6436C22.8594 17.6773 22.8406 17.7364 22.8157 17.8156C22.6337 16.612 22.4622 15.4828 22.397 15.0554L22.2837 14.3125H21.5316C18.631 14.3125 17.7087 16.7905 17.4055 17.6047C17.4051 17.6056 17.4047 17.6064 17.4042 17.6077C17.1199 15.5362 15.3204 14.3125 13.6566 14.3125H12.6543L12.7899 15.3056L14.1024 24.9306L14.2061 25.6897L14.9717 25.6875C16.937 25.6809 18.6196 24.4131 19.4946 22.2881C19.6311 23.5144 19.7575 24.6462 19.7869 24.9096L19.8739 25.6875H20.6566C22.6612 25.6875 24.3854 24.4332 25.2692 22.3323L28.0302 15.5161L28.5176 14.3125Z" fill="#8D6C9F"/>
</svg>
