<svg width="40" height="40" viewBox="0 0 40 40" fill="none" xmlns="http://www.w3.org/2000/svg">
<path d="M24.5167 26.4666L18.05 19.9999L24.5167 13.5332C24.671 13.3789 24.7934 13.1957 24.8769 12.9941C24.9604 12.7925 25.0034 12.5765 25.0034 12.3582C25.0034 12.14 24.9604 11.9239 24.8769 11.7223C24.7934 11.5207 24.671 11.3375 24.5167 11.1832C24.3624 11.0289 24.1792 10.9065 23.9776 10.823C23.776 10.7395 23.5599 10.6965 23.3417 10.6965C23.1235 10.6965 22.9074 10.7395 22.7058 10.823C22.5042 10.9065 22.321 11.0289 22.1667 11.1832L14.5167 18.8332C14.3622 18.9874 14.2396 19.1706 14.156 19.3722C14.0723 19.5738 14.0293 19.79 14.0293 20.0082C14.0293 20.2265 14.0723 20.4427 14.156 20.6443C14.2396 20.8459 14.3622 21.029 14.5167 21.1832L22.1667 28.8332C22.8167 29.4832 23.8667 29.4832 24.5167 28.8332C25.15 28.1832 25.1667 27.1166 24.5167 26.4666Z" fill="black"/>
</svg>
