<svg width="40" height="40" viewBox="0 0 40 40" fill="none" xmlns="http://www.w3.org/2000/svg">
<path d="M15.4833 26.4666L21.9499 19.9999L15.4833 13.5332C15.329 13.3789 15.2066 13.1957 15.1231 12.9941C15.0396 12.7925 14.9966 12.5765 14.9966 12.3582C14.9966 12.14 15.0396 11.9239 15.1231 11.7223C15.2066 11.5207 15.329 11.3375 15.4833 11.1832C15.6376 11.0289 15.8208 10.9065 16.0224 10.823C16.224 10.7395 16.4401 10.6965 16.6583 10.6965C16.8765 10.6965 17.0926 10.7395 17.2942 10.823C17.4958 10.9065 17.679 11.0289 17.8333 11.1832L25.4833 18.8332C26.1333 19.4832 26.1333 20.5332 25.4833 21.1832L17.8333 28.8332C17.6791 28.9877 17.4959 29.1103 17.2943 29.194C17.0927 29.2776 16.8766 29.3206 16.6583 29.3206C16.44 29.3206 16.2239 29.2776 16.0222 29.194C15.8206 29.1103 15.6375 28.9877 15.4833 28.8332C14.85 28.1832 14.8333 27.1166 15.4833 26.4666Z" fill="black"/>
</svg>
