<svg width="25" height="17" viewBox="0 0 25 17" fill="none" xmlns="http://www.w3.org/2000/svg">
<g clip-path="url(#clip0_335_470)">
<path d="M5.85399 3.4867L12.3207 9.95337L18.7873 3.4867C18.9416 3.3324 19.1248 3.21 19.3264 3.12649C19.528 3.04298 19.7441 3 19.9623 3C20.1805 3 20.3966 3.04298 20.5982 3.12649C20.7998 3.21 20.983 3.3324 21.1373 3.4867C21.2916 3.641 21.414 3.82419 21.4975 4.0258C21.581 4.2274 21.624 4.44348 21.624 4.6617C21.624 4.87992 21.581 5.096 21.4975 5.29761C21.414 5.49921 21.2916 5.6824 21.1373 5.8367L13.4873 13.4867C12.8373 14.1367 11.7873 14.1367 11.1373 13.4867L3.48732 5.8367C3.33282 5.68251 3.21024 5.49936 3.1266 5.29774C3.04296 5.09612 2.99991 4.87998 2.99991 4.6617C2.99991 4.44342 3.04296 4.22728 3.1266 4.02566C3.21024 3.82404 3.33282 3.64089 3.48732 3.4867C4.13732 2.85337 5.20399 2.8367 5.85399 3.4867Z" fill="#FDFDFD"/>
</g>
<defs>
<clipPath id="clip0_335_470">
<rect width="16.9742" height="24.6241" fill="white" transform="matrix(0 1 -1 0 24.624 0)"/>
</clipPath>
</defs>
</svg>
