<svg width="14" height="23" viewBox="0 0 14 23" fill="none" xmlns="http://www.w3.org/2000/svg">
<g clip-path="url(#clip0_183_33)">
<path d="M13.7615 19.061V21.7954C13.7615 21.9009 13.7196 22.002 13.6451 22.0766C13.5705 22.1512 13.4693 22.1931 13.3638 22.1931C13.2583 22.1931 13.1572 22.1512 13.0826 22.0766C13.008 22.002 12.9661 21.9009 12.9661 21.7954V19.061C12.9704 17.8044 12.6226 16.5718 11.9619 15.5029C11.3013 14.434 10.3543 13.5716 9.22845 13.0135L4.41496 10.6073C3.15666 9.98302 2.09846 9.01868 1.36033 7.82361C0.622198 6.62854 0.233677 5.25057 0.23882 3.84593V1.11355C0.23882 1.00806 0.280723 0.9069 0.355312 0.832312C0.4299 0.757724 0.531063 0.71582 0.636547 0.71582C0.742031 0.71582 0.843195 0.757724 0.917783 0.832312C0.992372 0.9069 1.03427 1.00806 1.03427 1.11355V3.84792C1.02993 5.1045 1.37781 6.33714 2.03844 7.40605C2.69908 8.47495 3.64604 9.33733 4.77192 9.89537L9.58442 12.3016C10.8426 12.9256 11.9008 13.8896 12.6391 15.0843C13.3774 16.279 13.7662 17.6566 13.7615 19.061ZM10.182 19.0113H1.03427C1.04041 18.1947 1.19505 17.3861 1.49067 16.6249H8.99876C9.10425 16.6249 9.20541 16.583 9.28 16.5084C9.35459 16.4338 9.39649 16.3327 9.39649 16.2272C9.39649 16.1217 9.35459 16.0205 9.28 15.946C9.20541 15.8714 9.10425 15.8295 8.99876 15.8295H1.85956C2.33324 14.9568 2.99358 14.1994 3.79351 13.6111C3.87855 13.5485 3.93524 13.4547 3.95109 13.3502C3.96694 13.2458 3.94066 13.1394 3.87802 13.0543C3.81539 12.9693 3.72154 12.9126 3.61712 12.8967C3.5127 12.8809 3.40625 12.9072 3.32121 12.9698C2.367 13.6734 1.59108 14.591 1.05576 15.6489C0.52044 16.7068 0.240638 17.8754 0.23882 19.061V21.7954C0.23882 21.9009 0.280723 22.002 0.355312 22.0766C0.4299 22.1512 0.531063 22.1931 0.636547 22.1931C0.742031 22.1931 0.843195 22.1512 0.917783 22.0766C0.992372 22.002 1.03427 21.9009 1.03427 21.7954V19.8067H10.182C10.2875 19.8067 10.3886 19.7648 10.4632 19.6902C10.5378 19.6157 10.5797 19.5145 10.5797 19.409C10.5797 19.3035 10.5378 19.2024 10.4632 19.1278C10.3886 19.0532 10.2875 19.0113 10.182 19.0113ZM13.3638 0.71582C13.2583 0.71582 13.1572 0.757724 13.0826 0.832312C13.008 0.9069 12.9661 1.00806 12.9661 1.11355V3.10218H3.81837C3.71288 3.10218 3.61172 3.14409 3.53713 3.21868C3.46254 3.29326 3.42064 3.39443 3.42064 3.49991C3.42064 3.6054 3.46254 3.70656 3.53713 3.78115C3.61172 3.85574 3.71288 3.89764 3.81837 3.89764H12.9661C12.96 4.71419 12.8053 5.52281 12.5097 6.284H5.00061C4.89513 6.284 4.79396 6.32591 4.71937 6.40049C4.64479 6.47508 4.60288 6.57625 4.60288 6.68173C4.60288 6.78721 4.64479 6.88838 4.71937 6.96297C4.79396 7.03755 4.89513 7.07946 5.00061 7.07946H12.1408C11.6671 7.95212 11.0068 8.70955 10.2069 9.29778C10.1647 9.32873 10.1291 9.36767 10.1021 9.41237C10.075 9.45708 10.057 9.50668 10.0491 9.55834C10.0412 9.60999 10.0436 9.6627 10.0561 9.71345C10.0686 9.7642 10.0909 9.81199 10.1218 9.8541C10.1528 9.89621 10.1917 9.93182 10.2364 9.95888C10.2811 9.98594 10.3307 10.0039 10.3824 10.0118C10.4341 10.0197 10.4868 10.0174 10.5375 10.0049C10.5883 9.99241 10.6361 9.97006 10.6782 9.93912C11.6326 9.23558 12.4087 8.31803 12.9442 7.26017C13.4797 6.2023 13.7596 5.0336 13.7615 3.84792V1.11355C13.7615 1.00806 13.7196 0.9069 13.6451 0.832312C13.5705 0.757724 13.4693 0.71582 13.3638 0.71582Z" fill="#FDFDFD"/>
</g>
<defs>
<clipPath id="clip0_183_33">
<rect width="14" height="22.9091" fill="white"/>
</clipPath>
</defs>
</svg>
