<svg width="21" height="21" viewBox="0 0 21 21" fill="none" xmlns="http://www.w3.org/2000/svg">
<g clip-path="url(#clip0_183_35)">
<mask id="path-1-inside-1_183_35" fill="white">
<path d="M10.5001 0.807617C8.53269 0.807617 6.60947 1.37606 4.97364 2.44106C3.33781 3.50607 2.06283 5.0198 1.30994 6.79083C0.557044 8.56187 0.360054 10.5107 0.743875 12.3908C1.1277 14.2709 2.07509 15.9979 3.46625 17.3534C4.85741 18.7089 6.62986 19.632 8.55946 20.006C10.4891 20.38 12.4891 20.188 14.3068 19.4544C16.1244 18.7208 17.678 17.4786 18.771 15.8847C19.864 14.2908 20.4475 12.4169 20.4475 10.4999C20.4446 7.93022 19.3956 5.46659 17.5307 3.64954C15.6659 1.8325 13.1374 0.810439 10.5001 0.807617ZM10.5001 19.4168C8.69009 19.4168 6.92072 18.8939 5.41576 17.9141C3.91079 16.9343 2.73781 15.5416 2.04515 13.9123C1.35249 12.2829 1.17126 10.49 1.52437 8.76031C1.87749 7.0306 2.74909 5.44176 4.02896 4.1947C5.30883 2.94765 6.93948 2.0984 8.71471 1.75434C10.4899 1.41028 12.33 1.58686 14.0022 2.26176C15.6745 2.93666 17.1038 4.07956 18.1093 5.54594C19.1149 7.01232 19.6517 8.73631 19.6517 10.4999C19.649 12.864 18.684 15.1306 16.9683 16.8023C15.2526 18.474 12.9264 19.4143 10.5001 19.4168ZM16.4685 10.4999C16.4685 10.6027 16.4266 10.7013 16.352 10.7741C16.2773 10.8468 16.1761 10.8876 16.0706 10.8876H10.5001C10.3946 10.8876 10.2934 10.8468 10.2187 10.7741C10.1441 10.7013 10.1022 10.6027 10.1022 10.4999V5.07223C10.1022 4.96941 10.1441 4.87079 10.2187 4.79809C10.2934 4.72538 10.3946 4.68454 10.5001 4.68454C10.6056 4.68454 10.7068 4.72538 10.7814 4.79809C10.8561 4.87079 10.898 4.96941 10.898 5.07223V10.1122H16.0706C16.1761 10.1122 16.2773 10.1531 16.352 10.2258C16.4266 10.2985 16.4685 10.3971 16.4685 10.4999Z"/>
</mask>
<path d="M10.5001 0.807617L10.5012 -0.192383H10.5001V0.807617ZM20.4475 10.4999L21.4475 10.4999L21.4474 10.4988L20.4475 10.4999ZM10.5001 19.4168L10.5001 20.4168L10.5012 20.4168L10.5001 19.4168ZM19.6517 10.4999L20.6517 10.501V10.4999L19.6517 10.4999ZM10.898 10.1122H9.89799V11.1122H10.898V10.1122ZM10.5001 -0.192383C8.34061 -0.192383 6.22757 0.43144 4.42804 1.60302L5.51924 3.27911C6.99138 2.32068 8.72478 1.80762 10.5001 1.80762V-0.192383ZM4.42804 1.60302C2.62823 2.77478 1.22145 4.44294 0.389643 6.3996L2.23023 7.18206C2.90421 5.59665 4.04738 4.23736 5.51924 3.27911L4.42804 1.60302ZM0.389643 6.3996C-0.442289 8.35657 -0.660398 10.5115 -0.235917 12.5908L1.72367 12.1908C1.38051 10.5098 1.55638 8.76717 2.23023 7.18206L0.389643 6.3996ZM-0.235917 12.5908C0.188526 14.6699 1.2355 16.576 2.76839 18.0696L4.16412 16.6372C2.91468 15.4198 2.06686 13.8719 1.72367 12.1908L-0.235917 12.5908ZM2.76839 18.0696C4.301 19.5629 6.25055 20.5771 8.36919 20.9877L8.74973 19.0242C7.00918 18.6869 5.41383 17.8548 4.16412 16.6372L2.76839 18.0696ZM8.36919 20.9877C10.4877 21.3983 12.6839 21.1878 14.681 20.3818L13.9325 18.5271C12.2944 19.1882 10.4904 19.3616 8.74973 19.0242L8.36919 20.9877ZM14.681 20.3818C16.6784 19.5756 18.3897 18.2088 19.5957 16.4502L17.9463 15.3191C16.9662 16.7483 15.5704 17.8661 13.9325 18.5271L14.681 20.3818ZM19.5957 16.4502C20.8019 14.6913 21.4475 12.6205 21.4475 10.4999L19.4475 10.4999C19.4475 12.2132 18.9262 13.8903 17.9463 15.3191L19.5957 16.4502ZM21.4474 10.4988C21.4442 7.65577 20.2835 4.93551 18.2286 2.93331L16.8329 4.36577C18.5077 5.99767 19.4449 8.20467 19.4475 10.501L21.4474 10.4988ZM18.2286 2.93331C16.1746 0.931972 13.3951 -0.189286 10.5012 -0.192382L10.499 1.80762C12.8797 1.81016 15.1572 2.73302 16.8329 4.36577L18.2286 2.93331ZM10.5001 18.4168C8.88217 18.4168 7.30263 17.9492 5.96136 17.076L4.87015 18.7521C6.53882 19.8385 8.498 20.4168 10.5001 20.4168V18.4168ZM5.96136 17.076C4.62037 16.203 3.57919 14.9648 2.96544 13.521L1.12486 14.3035C1.89643 16.1185 3.20121 17.6655 4.87015 18.7521L5.96136 17.076ZM2.96544 13.521C2.35182 12.0776 2.19171 10.4909 2.50416 8.96033L0.544581 8.56029C0.150805 10.4892 0.353155 12.4882 1.12486 14.3035L2.96544 13.521ZM2.50416 8.96033C2.81666 7.42961 3.58868 6.01989 4.72682 4.91093L3.33109 3.47847C1.9095 4.86362 0.938318 6.63159 0.544581 8.56029L2.50416 8.96033ZM4.72682 4.91093C5.86525 3.8017 7.31879 3.04349 8.90498 2.73607L8.52444 0.772605C6.56017 1.1533 4.75241 2.0936 3.33109 3.47847L4.72682 4.91093ZM8.90498 2.73607C10.4913 2.42862 12.1353 2.58663 13.628 3.18908L14.3765 1.33444C12.5248 0.587089 10.4886 0.391928 8.52444 0.772605L8.90498 2.73607ZM13.628 3.18908C15.1205 3.79145 16.392 4.80983 17.2846 6.1115L18.9341 4.98039C17.8155 3.34929 16.2285 2.08187 14.3765 1.33444L13.628 3.18908ZM17.2846 6.1115C18.177 7.41283 18.6517 8.93997 18.6517 10.4999L20.6517 10.4999C20.6517 8.53266 20.0528 6.61181 18.9341 4.98039L17.2846 6.1115ZM18.6517 10.4988C18.6493 12.5896 17.7961 14.5995 16.2705 16.0861L17.6662 17.5185C19.5719 15.6617 20.6487 13.1385 20.6517 10.501L18.6517 10.4988ZM16.2705 16.0861C14.7439 17.5735 12.6688 18.4145 10.499 18.4168L10.5012 20.4168C13.1841 20.414 15.7614 19.3745 17.6662 17.5185L16.2705 16.0861ZM15.4685 10.4999C15.4685 10.329 15.5384 10.1705 15.6541 10.0578L17.0498 11.4903C17.3147 11.2322 17.4685 10.8765 17.4685 10.4999H15.4685ZM15.6541 10.0578C15.7689 9.94597 15.9192 9.88761 16.0706 9.88761V11.8876C16.4331 11.8876 16.7858 11.7475 17.0498 11.4903L15.6541 10.0578ZM16.0706 9.88761H10.5001V11.8876H16.0706V9.88761ZM10.5001 9.88761C10.6515 9.88761 10.8018 9.94597 10.9166 10.0578L9.52088 11.4903C9.78491 11.7475 10.1376 11.8876 10.5001 11.8876V9.88761ZM10.9166 10.0578C11.0323 10.1705 11.1022 10.329 11.1022 10.4999H9.1022C9.1022 10.8765 9.25596 11.2322 9.52088 11.4903L10.9166 10.0578ZM11.1022 10.4999V5.07223H9.1022V10.4999H11.1022ZM11.1022 5.07223C11.1022 5.24312 11.0323 5.40161 10.9166 5.51432L9.52088 4.08186C9.25596 4.33998 9.1022 4.69569 9.1022 5.07223H11.1022ZM10.9166 5.51432C10.8018 5.62617 10.6515 5.68454 10.5001 5.68454V3.68454C10.1376 3.68454 9.78491 3.82459 9.52088 4.08186L10.9166 5.51432ZM10.5001 5.68454C10.3487 5.68454 10.1984 5.62617 10.0836 5.51432L11.4793 4.08186C11.2153 3.82459 10.8626 3.68454 10.5001 3.68454V5.68454ZM10.0836 5.51432C9.96791 5.40161 9.89799 5.24312 9.89799 5.07223H11.898C11.898 4.69569 11.7442 4.33998 11.4793 4.08186L10.0836 5.51432ZM9.89799 5.07223V10.1122H11.898V5.07223H9.89799ZM10.898 11.1122H16.0706V9.11222H10.898V11.1122ZM16.0706 11.1122C15.9192 11.1122 15.7689 11.0539 15.6541 10.942L17.0498 9.50954C16.7858 9.25228 16.4331 9.11222 16.0706 9.11222V11.1122ZM15.6541 10.942C15.5384 10.8293 15.4685 10.6708 15.4685 10.4999H17.4685C17.4685 10.1234 17.3147 9.76767 17.0498 9.50954L15.6541 10.942Z" fill="#FDFDFD" mask="url(#path-1-inside-1_183_35)"/>
</g>
<defs>
<clipPath id="clip0_183_35">
<rect width="21" height="21" fill="white"/>
</clipPath>
</defs>
</svg>
