<svg width="30" height="19" viewBox="0 0 30 19" fill="none" xmlns="http://www.w3.org/2000/svg">
<g clip-path="url(#clip0_41_39)">
<g clip-path="url(#clip1_41_39)">
<path d="M29.6875 15.1936C29.6875 15.3759 29.6265 15.5281 29.5046 15.65C29.3827 15.7719 29.2304 15.833 29.0478 15.8333H25.5772C25.3948 15.8333 25.2427 15.7722 25.1208 15.65C24.9989 15.5278 24.9378 15.3757 24.9375 15.1936V8.55586C24.9375 8.37377 24.9986 8.22164 25.1208 8.09946C25.243 7.97728 25.3951 7.91632 25.5772 7.91659L29.0482 7.91659C29.2303 7.91659 29.3824 7.97754 29.5046 8.09946C29.6268 8.22138 29.6878 8.37351 29.6875 8.55586V15.1936ZM29.2917 14.8437H25.3333V15.194C25.3333 15.2547 25.3587 15.3105 25.4093 15.3614C25.46 15.4123 25.5159 15.4377 25.5772 15.4374H29.0482C29.1089 15.4374 29.1647 15.4121 29.2157 15.3614C29.2666 15.3108 29.2919 15.2549 29.2917 15.194V14.8437ZM29.2917 14.4478V9.302H25.3333V14.4478H29.2917ZM29.2917 8.90617V8.55586C29.2917 8.49516 29.2663 8.43935 29.2157 8.38842C29.165 8.33749 29.1091 8.31215 29.0478 8.31242H25.5772C25.5162 8.31242 25.4603 8.33775 25.4093 8.38842C25.3584 8.43908 25.3331 8.4949 25.3333 8.55586V8.90617H29.2917Z" fill="#333333"/>
</g>
<path d="M1.50812 18.1331C1.09804 18.1331 0.744167 17.9839 0.4465 17.6854C0.148833 17.387 0 17.0335 0 16.625H4.294C3.74696 16.625 3.29056 16.4421 2.92481 16.0764C2.55906 15.7106 2.37579 15.2538 2.375 14.706V1.919C2.375 1.37196 2.55827 0.915562 2.92481 0.549812C3.29135 0.184062 3.74735 0.000791667 4.29281 0H21.8322C22.3784 0 22.8344 0.183271 23.2002 0.549812C23.5659 0.916354 23.7492 1.37275 23.75 1.919V14.7072C23.75 15.2534 23.5667 15.7098 23.2002 16.0764C22.8336 16.4429 22.3776 16.6258 21.8322 16.625H26.125C26.125 17.0343 25.9762 17.3878 25.6785 17.6854C25.3808 17.9831 25.0274 18.1319 24.6181 18.1319L1.50812 18.1331ZM13.0625 17.5394C13.262 17.5394 13.4338 17.4669 13.5779 17.3221C13.722 17.1772 13.794 17.0058 13.794 16.8079C13.794 16.61 13.722 16.4382 13.5779 16.2925C13.4338 16.1468 13.262 16.0756 13.0625 16.0788C12.863 16.0819 12.6912 16.1536 12.5471 16.2937C12.403 16.4338 12.331 16.6056 12.331 16.8091C12.331 17.0125 12.403 17.1839 12.5471 17.3232C12.6912 17.4626 12.863 17.5346 13.0625 17.5394ZM4.294 15.4375H21.8322C22.0143 15.4375 22.1817 15.3615 22.3345 15.2095C22.4873 15.0575 22.5633 14.8897 22.5625 14.706V1.919C22.5625 1.73613 22.4865 1.56829 22.3345 1.4155C22.1825 1.26271 22.0151 1.18671 21.8322 1.1875H4.29281C4.11073 1.1875 3.94329 1.2635 3.7905 1.4155C3.63771 1.5675 3.56171 1.73533 3.5625 1.919V14.7072C3.5625 14.8893 3.6385 15.0567 3.7905 15.2095C3.9425 15.3623 4.10994 15.4383 4.29281 15.4375" fill="#333333"/>
</g>
<defs>
<clipPath id="clip0_41_39">
<rect width="29.6875" height="19" fill="white"/>
</clipPath>
<clipPath id="clip1_41_39">
<rect width="9.5" height="9.5" fill="white" transform="matrix(0 -1 1 0 22.5625 16.625)"/>
</clipPath>
</defs>
</svg>
