<svg width="32" height="32" viewBox="0 0 32 32" fill="none" xmlns="http://www.w3.org/2000/svg">
<path d="M27.4814 7.40859L28.4291 6.54H27.1436H4.8564H3.57092L4.51855 7.40859L15.6622 17.6227L16 17.9324L16.3378 17.6227L27.4814 7.40859ZM4.37798 7.33323L3.54 6.5646V7.7017V24.2C3.54 24.4705 3.64746 24.7299 3.83875 24.9212C4.03004 25.1125 4.28948 25.22 4.56 25.22H27.44C27.7105 25.22 27.97 25.1125 28.1612 24.9212C28.3525 24.7299 28.46 24.4705 28.46 24.2V7.7017V6.5646L27.622 7.33323L16.0135 17.9811C16.0135 17.9811 16.0134 17.9811 16.0134 17.9811C16.0097 17.9845 16.005 17.9863 16 17.9863C15.995 17.9863 15.9903 17.9845 15.9866 17.9811C15.9865 17.9811 15.9865 17.9811 15.9865 17.9811L4.37798 7.33323ZM3.52 6.5H28.48C28.4853 6.5 28.4904 6.50211 28.4941 6.50586C28.4979 6.50961 28.5 6.51469 28.5 6.52V24.2C28.5 24.4811 28.3883 24.7507 28.1895 24.9495C27.9907 25.1483 27.7211 25.26 27.44 25.26H4.56C4.27887 25.26 4.00926 25.1483 3.81047 24.9495C3.61168 24.7507 3.5 24.4811 3.5 24.2V6.52C3.5 6.5147 3.50211 6.50961 3.50586 6.50586C3.50961 6.50211 3.5147 6.5 3.52 6.5Z" stroke="#FDFDFD"/>
</svg>
