<svg width="24" height="24" viewBox="0 0 24 24" fill="none" xmlns="http://www.w3.org/2000/svg">
<path d="M6.23 22H3.617C3.15633 22 2.772 21.846 2.464 21.538C2.156 21.23 2.00133 20.8457 2 20.385V17.769H3V20.385C3 20.5643 3.05767 20.7117 3.173 20.827C3.28833 20.9423 3.436 21 3.616 21H6.23V22ZM17.77 22V21H20.385C20.5643 21 20.7117 20.9423 20.827 20.827C20.9423 20.7117 21 20.5643 21 20.385V17.769H22V20.385C22 20.845 21.846 21.229 21.538 21.537C21.23 21.845 20.8457 21.9993 20.385 22H17.77ZM12 17.73C10.218 17.73 8.617 17.2253 7.197 16.216C5.777 15.2053 4.705 13.8 3.981 12C4.705 10.2 5.777 8.79467 7.197 7.784C8.617 6.77467 10.218 6.27 12 6.27C13.782 6.27 15.383 6.775 16.803 7.785C18.223 8.795 19.295 10.2 20.019 12C19.295 13.8 18.223 15.2053 16.803 16.216C15.383 17.2253 13.782 17.73 12 17.73ZM12 16.73C13.518 16.73 14.879 16.317 16.083 15.491C17.287 14.665 18.2327 13.5013 18.92 12C18.232 10.4973 17.286 9.33333 16.082 8.508C14.878 7.68267 13.5173 7.26967 12 7.269C10.4827 7.26833 9.12167 7.68133 7.917 8.508C6.71233 9.33467 5.76667 10.4987 5.08 12C5.76867 13.5027 6.71467 14.6667 7.918 15.492C9.12133 16.3173 10.482 16.7303 12 16.731M12 14.865C12.8 14.865 13.4777 14.5877 14.033 14.033C14.5883 13.4783 14.866 12.8007 14.866 12C14.866 11.1993 14.5883 10.5217 14.033 9.967C13.4777 9.41233 12.8 9.135 12 9.135C11.2 9.135 10.5223 9.41233 9.967 9.967C9.41167 10.5217 9.13433 11.1993 9.135 12C9.13567 12.8007 9.413 13.4783 9.967 14.033C10.521 14.5877 11.1987 14.8653 12 14.866M12 13.866C11.4807 13.866 11.04 13.6847 10.678 13.322C10.316 12.96 10.135 12.5193 10.135 12C10.135 11.4807 10.316 11.04 10.678 10.678C11.04 10.316 11.4807 10.135 12 10.135C12.5193 10.135 12.96 10.316 13.322 10.678C13.6847 11.04 13.866 11.4807 13.866 12C13.866 12.5193 13.6847 12.96 13.322 13.322C12.96 13.6847 12.5193 13.866 12 13.866ZM2 6.23V3.616C2 3.15533 2.15433 2.771 2.463 2.463C2.77167 2.155 3.156 2.00067 3.616 2H6.23V3H3.616C3.436 3 3.28833 3.05767 3.173 3.173C3.05767 3.28833 3 3.436 3 3.616V6.23H2ZM21 6.23V3.616C21 3.436 20.9423 3.28833 20.827 3.173C20.7117 3.05767 20.5643 3 20.385 3H17.769V2H20.385C20.845 2 21.229 2.15433 21.537 2.463C21.845 2.77167 21.9993 3.156 22 3.616V6.23H21Z" fill="#333333"/>
</svg>
