<svg width="123" height="45" viewBox="0 0 123 45" fill="none" xmlns="http://www.w3.org/2000/svg">
<g clip-path="url(#clip0_168_51)">
<path d="M31.71 36.6929L33.5449 34.0723L26.995 19.7226L32.041 12.5162C32.8025 11.4286 32.5393 9.93606 31.4518 9.17457C30.3642 8.41308 28.8717 8.67626 28.1102 9.76378L23.0642 16.9702L7.33963 15.7232L5.50472 18.3437L18.9356 22.8664L13.8896 30.0729L9.23775 29.7446L7.86156 31.71L14.0201 34.0696L18.3437 39.0497L19.7199 37.0843L17.8204 32.8253L22.8664 25.6188L31.71 36.6929Z" fill="#333333"/>
</g>
<path d="M53.9961 25.1055C53.9961 24.8125 53.9635 24.5521 53.8984 24.3242C53.8398 24.0898 53.7259 23.8783 53.5566 23.6895C53.3874 23.5007 53.1465 23.3151 52.834 23.1328C52.528 22.9505 52.1309 22.765 51.6426 22.5762C51.0827 22.3613 50.5586 22.127 50.0703 21.873C49.5885 21.6126 49.1621 21.3197 48.791 20.9941C48.4264 20.6621 48.14 20.2747 47.9316 19.832C47.7233 19.3893 47.6191 18.875 47.6191 18.2891C47.6191 17.7096 47.7201 17.1823 47.9219 16.707C48.1302 16.2253 48.4232 15.8118 48.8008 15.4668C49.1849 15.1152 49.6406 14.8451 50.168 14.6562C50.6953 14.4609 51.278 14.3633 51.916 14.3633C52.834 14.3633 53.6185 14.5586 54.2695 14.9492C54.9271 15.3398 55.4284 15.8639 55.7734 16.5215C56.125 17.179 56.3008 17.9082 56.3008 18.709H53.9375C53.9375 18.2467 53.8659 17.8366 53.7227 17.4785C53.5794 17.1204 53.3581 16.8405 53.0586 16.6387C52.7591 16.4368 52.3717 16.3359 51.8965 16.3359C51.4603 16.3359 51.099 16.4206 50.8125 16.5898C50.5326 16.7591 50.3242 16.9902 50.1875 17.2832C50.0573 17.5762 49.9922 17.9115 49.9922 18.2891C49.9922 18.5495 50.0475 18.7871 50.1582 19.002C50.2689 19.2103 50.4284 19.4023 50.6367 19.5781C50.8451 19.7539 51.099 19.9199 51.3984 20.0762C51.6979 20.2324 52.043 20.3822 52.4336 20.5254C53.0977 20.7663 53.6771 21.0332 54.1719 21.3262C54.6667 21.6191 55.0736 21.9479 55.3926 22.3125C55.7181 22.6706 55.959 23.0775 56.1152 23.5332C56.278 23.9889 56.3594 24.5065 56.3594 25.0859C56.3594 25.6719 56.2585 26.2057 56.0566 26.6875C55.8613 27.1628 55.5749 27.5697 55.1973 27.9082C54.8197 28.2467 54.3639 28.5104 53.8301 28.6992C53.2962 28.8815 52.6973 28.9727 52.0332 28.9727C51.4212 28.9727 50.832 28.8815 50.2656 28.6992C49.7057 28.5169 49.2044 28.2402 48.7617 27.8691C48.319 27.4915 47.9674 27.0195 47.707 26.4531C47.4531 25.8867 47.3262 25.2227 47.3262 24.4609H49.6992C49.6992 24.9167 49.7546 25.3073 49.8652 25.6328C49.9759 25.9518 50.1354 26.2155 50.3438 26.4238C50.5586 26.6257 50.8092 26.7754 51.0957 26.873C51.3887 26.9642 51.7142 27.0098 52.0723 27.0098C52.515 27.0098 52.8763 26.9316 53.1562 26.7754C53.4427 26.6126 53.6543 26.388 53.791 26.1016C53.9277 25.8151 53.9961 25.4831 53.9961 25.1055ZM60.5879 13.7773V28.7773H58.3125V13.7773H60.5879ZM66.0566 18.2109L62.3066 23.3184L60.0312 25.9062L59.4551 23.8945L61.125 21.5215L63.332 18.2109H66.0566ZM63.7812 28.7773L61.1738 23.8359L62.5996 22.166L66.3984 28.7773H63.7812ZM70.1875 27.6152L72.4531 18.2109H74.8457L71.3594 30.3789C71.2812 30.6458 71.1706 30.9323 71.0273 31.2383C70.8906 31.5443 70.7116 31.834 70.4902 32.1074C70.2754 32.3874 70.0052 32.612 69.6797 32.7812C69.3607 32.957 68.9798 33.0449 68.5371 33.0449C68.3548 33.0449 68.179 33.0286 68.0098 32.9961C67.8405 32.9635 67.6777 32.9245 67.5215 32.8789V31.043C67.5736 31.0495 67.6322 31.056 67.6973 31.0625C67.7624 31.069 67.821 31.0723 67.873 31.0723C68.1921 31.0723 68.4557 31.0234 68.6641 30.9258C68.8724 30.8346 69.0449 30.6849 69.1816 30.4766C69.3184 30.2747 69.4388 30.0046 69.543 29.666L70.1875 27.6152ZM69.1816 18.2109L71.0371 26.0723L71.4375 28.6211L69.875 29.0215L66.7305 18.2109H69.1816ZM82.9023 26.8535L86.1836 29.832L84.6602 31.2578L81.4375 28.3086L82.9023 26.8535ZM86.0664 20.5059V22.8301C86.0664 23.8457 85.9492 24.7376 85.7148 25.5059C85.487 26.2741 85.1549 26.9154 84.7188 27.4297C84.2826 27.944 83.7585 28.3314 83.1465 28.5918C82.541 28.8457 81.8607 28.9727 81.1055 28.9727C80.3698 28.9727 79.696 28.8457 79.084 28.5918C78.4785 28.3314 77.9544 27.944 77.5117 27.4297C77.0755 26.9154 76.737 26.2741 76.4961 25.5059C76.2552 24.7376 76.1348 23.8457 76.1348 22.8301V20.5059C76.1348 19.4902 76.252 18.6016 76.4863 17.8398C76.7272 17.0716 77.0658 16.4303 77.502 15.916C77.9447 15.4017 78.4688 15.0143 79.0742 14.7539C79.6862 14.4935 80.36 14.3633 81.0957 14.3633C81.8444 14.3633 82.5247 14.4935 83.1367 14.7539C83.7487 15.0143 84.2728 15.4017 84.709 15.916C85.1452 16.4303 85.4805 17.0716 85.7148 17.8398C85.9492 18.6016 86.0664 19.4902 86.0664 20.5059ZM83.7031 22.8301V20.4863C83.7031 19.7637 83.6478 19.1452 83.5371 18.6309C83.4264 18.11 83.2572 17.6868 83.0293 17.3613C82.8079 17.0293 82.5345 16.7852 82.209 16.6289C81.89 16.4661 81.5189 16.3848 81.0957 16.3848C80.6855 16.3848 80.3177 16.4661 79.9922 16.6289C79.6732 16.7852 79.403 17.0293 79.1816 17.3613C78.9603 17.6868 78.791 18.11 78.6738 18.6309C78.5566 19.1452 78.498 19.7637 78.498 20.4863V22.8301C78.498 23.5592 78.5566 24.1842 78.6738 24.7051C78.791 25.2259 78.9603 25.6523 79.1816 25.9844C79.4095 26.3164 79.6829 26.5638 80.002 26.7266C80.3275 26.8828 80.6953 26.9609 81.1055 26.9609C81.5286 26.9609 81.903 26.8828 82.2285 26.7266C82.554 26.5638 82.8242 26.3164 83.0391 25.9844C83.2604 25.6523 83.4264 25.2259 83.5371 24.7051C83.6478 24.1842 83.7031 23.5592 83.7031 22.8301ZM93.5371 26.2871V18.2109H95.8125V28.7773H93.6641L93.5371 26.2871ZM93.8594 24.0801L94.582 24.0605C94.582 24.7702 94.5169 25.4245 94.3867 26.0234C94.2565 26.6224 94.0547 27.1432 93.7812 27.5859C93.5143 28.0221 93.166 28.3639 92.7363 28.6113C92.3132 28.8522 91.8053 28.9727 91.2129 28.9727C90.7767 28.9727 90.3763 28.8978 90.0117 28.748C89.6536 28.5983 89.3444 28.3672 89.084 28.0547C88.8301 27.7422 88.6315 27.3353 88.4883 26.834C88.3451 26.3327 88.2734 25.7337 88.2734 25.0371V18.2109H90.5488V25.0566C90.5488 25.4342 90.5814 25.75 90.6465 26.0039C90.7116 26.2513 90.8027 26.4531 90.9199 26.6094C91.0371 26.7591 91.1673 26.8665 91.3105 26.9316C91.4603 26.9902 91.6198 27.0195 91.7891 27.0195C92.3034 27.0195 92.7103 26.8926 93.0098 26.6387C93.3158 26.3783 93.5339 26.0267 93.6641 25.584C93.7943 25.1413 93.8594 24.64 93.8594 24.0801ZM102.131 28.9727C101.447 28.9727 100.839 28.8717 100.305 28.6699C99.7708 28.4616 99.3184 28.1556 98.9473 27.752C98.5762 27.3418 98.293 26.8405 98.0977 26.248C97.9023 25.6491 97.8047 24.9557 97.8047 24.168V23.1523C97.8047 22.2604 97.9056 21.4922 98.1074 20.8477C98.3158 20.1966 98.6022 19.6628 98.9668 19.2461C99.3314 18.8294 99.7611 18.5202 100.256 18.3184C100.757 18.1165 101.301 18.0156 101.887 18.0156C102.551 18.0156 103.127 18.123 103.615 18.3379C104.104 18.5527 104.504 18.875 104.816 19.3047C105.135 19.7344 105.37 20.265 105.52 20.8965C105.676 21.528 105.754 22.2539 105.754 23.0742V24.2168H98.8984V22.498H103.508V22.2539C103.495 21.7721 103.436 21.3587 103.332 21.0137C103.228 20.6621 103.059 20.3952 102.824 20.2129C102.596 20.0241 102.281 19.9297 101.877 19.9297C101.584 19.9297 101.324 19.985 101.096 20.0957C100.868 20.2064 100.679 20.3854 100.529 20.6328C100.386 20.8802 100.275 21.2122 100.197 21.6289C100.119 22.0391 100.08 22.5469 100.08 23.1523V24.168C100.08 24.6953 100.126 25.1413 100.217 25.5059C100.314 25.8704 100.458 26.1699 100.646 26.4043C100.835 26.6322 101.063 26.8014 101.33 26.9121C101.604 27.0163 101.919 27.0684 102.277 27.0684C102.805 27.0684 103.257 26.9707 103.635 26.7754C104.019 26.5736 104.351 26.3132 104.631 25.9941L105.637 27.3906C105.448 27.6445 105.194 27.8952 104.875 28.1426C104.556 28.3835 104.169 28.582 103.713 28.7383C103.264 28.8945 102.736 28.9727 102.131 28.9727ZM112.473 25.9941C112.473 25.7728 112.408 25.5775 112.277 25.4082C112.154 25.2324 111.952 25.0599 111.672 24.8906C111.392 24.7214 111.018 24.5391 110.549 24.3438C110.061 24.1419 109.628 23.9401 109.25 23.7383C108.872 23.5365 108.553 23.3151 108.293 23.0742C108.033 22.8268 107.834 22.5436 107.697 22.2246C107.561 21.9056 107.492 21.5345 107.492 21.1113C107.492 20.6751 107.574 20.2715 107.736 19.9004C107.899 19.5293 108.133 19.2038 108.439 18.9238C108.745 18.6374 109.113 18.416 109.543 18.2598C109.973 18.097 110.458 18.0156 110.998 18.0156C111.76 18.0156 112.411 18.1556 112.951 18.4355C113.498 18.709 113.915 19.0931 114.201 19.5879C114.494 20.0762 114.641 20.6393 114.641 21.2773H112.365C112.365 21.0104 112.316 20.7695 112.219 20.5547C112.121 20.3333 111.971 20.1576 111.77 20.0273C111.568 19.8906 111.311 19.8223 110.998 19.8223C110.712 19.8223 110.471 19.8776 110.275 19.9883C110.087 20.0924 109.943 20.2357 109.846 20.418C109.755 20.5938 109.709 20.7923 109.709 21.0137C109.709 21.1764 109.738 21.3197 109.797 21.4434C109.855 21.5671 109.953 21.6875 110.09 21.8047C110.227 21.9154 110.409 22.0293 110.637 22.1465C110.871 22.2637 111.167 22.3971 111.525 22.5469C112.235 22.8203 112.824 23.1035 113.293 23.3965C113.762 23.6895 114.113 24.0312 114.348 24.4219C114.582 24.8125 114.699 25.2975 114.699 25.877C114.699 26.3457 114.611 26.7689 114.436 27.1465C114.266 27.5241 114.019 27.8496 113.693 28.123C113.374 28.3965 112.987 28.6081 112.531 28.7578C112.082 28.901 111.581 28.9727 111.027 28.9727C110.201 28.9727 109.501 28.8099 108.928 28.4844C108.361 28.1523 107.932 27.7259 107.639 27.2051C107.346 26.6842 107.199 26.1341 107.199 25.5547H109.396C109.416 25.9714 109.504 26.2969 109.66 26.5312C109.823 26.7656 110.028 26.9284 110.275 27.0195C110.523 27.1042 110.78 27.1465 111.047 27.1465C111.366 27.1465 111.63 27.1042 111.838 27.0195C112.046 26.9284 112.202 26.7949 112.307 26.6191C112.417 26.4434 112.473 26.235 112.473 25.9941ZM120.949 18.2109V19.9688H115.764V18.2109H120.949ZM117.18 15.623H119.445V25.8281C119.445 26.1536 119.481 26.401 119.553 26.5703C119.624 26.7396 119.725 26.8535 119.855 26.9121C119.986 26.9707 120.139 27 120.314 27C120.445 27 120.572 26.9902 120.695 26.9707C120.826 26.9447 120.92 26.9219 120.979 26.9023V28.7383C120.809 28.8034 120.614 28.8587 120.393 28.9043C120.171 28.9499 119.904 28.9727 119.592 28.9727C119.13 28.9727 118.716 28.8783 118.352 28.6895C117.987 28.4941 117.701 28.1784 117.492 27.7422C117.284 27.2995 117.18 26.7135 117.18 25.9844V15.623Z" fill="#333333"/>
<defs>
<clipPath id="clip0_168_51">
<rect width="44.5544" height="44.5544" fill="white"/>
</clipPath>
</defs>
</svg>
