<svg width="295" height="52" viewBox="0 0 295 52" fill="none" xmlns="http://www.w3.org/2000/svg">
<mask id="path-1-outside-1_164_48" maskUnits="userSpaceOnUse" x="0.841797" y="0" width="294" height="52" fill="black">
<rect fill="white" x="0.841797" width="294" height="52"/>
<path d="M2.71488 26.8757C1.55077 26.682 1.55077 25.318 2.71488 25.1243L147.625 1.01784C147.768 0.994052 147.915 0.994053 148.058 1.01784L292.969 25.1243C294.133 25.318 294.133 26.682 292.969 26.8757L148.058 50.9822C147.915 51.0059 147.768 51.0059 147.625 50.9822L2.71488 26.8757Z"/>
<path d="M94.7735 14.3844L93.0473 17.3866L92.8206 16.3144C93.2042 16.3144 93.5413 16.3859 93.8319 16.5288C94.1341 16.6718 94.3724 16.8672 94.5468 17.115C94.7212 17.3532 94.8083 17.6201 94.8083 17.9155C94.8083 18.211 94.7212 18.4779 94.5468 18.7161C94.3724 18.9544 94.1341 19.145 93.8319 19.288C93.5297 19.4309 93.1926 19.5024 92.8206 19.5024C92.4602 19.5024 92.1289 19.4309 91.8267 19.288C91.5245 19.145 91.2862 18.9496 91.1118 18.7018C90.9374 18.454 90.8502 18.1776 90.8502 17.8727C90.8502 17.5867 90.9316 17.2865 91.0944 16.972C91.2687 16.648 91.5593 16.2381 91.9662 15.7425L93.0647 14.3844H94.7735ZM90.1353 14.3844L88.4091 17.3866L88.1824 16.3144C88.566 16.3144 88.9031 16.3859 89.1938 16.5288C89.496 16.6718 89.7343 16.8672 89.9087 17.115C90.083 17.3532 90.1702 17.6201 90.1702 17.9155C90.1702 18.211 90.083 18.4779 89.9087 18.7161C89.7343 18.9544 89.496 19.145 89.1938 19.288C88.8915 19.4309 88.5544 19.5024 88.1824 19.5024C87.8221 19.5024 87.4908 19.4309 87.1886 19.288C86.8863 19.145 86.648 18.9496 86.4737 18.7018C86.2993 18.454 86.2121 18.1776 86.2121 17.8727C86.2121 17.5867 86.2935 17.2865 86.4562 16.972C86.6306 16.648 86.9212 16.2381 87.328 15.7425L88.4266 14.3844H90.1353Z"/>
<path d="M100.782 15.6854H104.409V25.1065H100.782V15.6854ZM95.7952 14.3844H109.396V17.0149H95.7952V14.3844Z"/>
<path d="M117.664 25.1065L117.21 22.1615L117.681 21.0321L117.21 19.9027L117.664 16.9434H121.36L120.733 21.0178L121.36 25.1065H117.664ZM118.501 21.0321C118.338 21.8899 118.012 22.6428 117.524 23.2909C117.048 23.939 116.437 24.4441 115.693 24.8063C114.961 25.1589 114.124 25.3352 113.182 25.3352C112.206 25.3352 111.346 25.1589 110.602 24.8063C109.869 24.4441 109.294 23.939 108.876 23.2909C108.457 22.6333 108.248 21.8803 108.248 21.0321C108.248 20.1648 108.457 19.4071 108.876 18.759C109.294 18.1109 109.869 17.6058 110.602 17.2436C111.346 16.8815 112.206 16.7004 113.182 16.7004C114.124 16.7004 114.961 16.8815 115.693 17.2436C116.437 17.5963 117.053 18.0966 117.542 18.7447C118.03 19.3833 118.349 20.1457 118.501 21.0321ZM111.857 21.0321C111.857 21.4324 111.956 21.7898 112.154 22.1043C112.363 22.4188 112.648 22.6666 113.008 22.8477C113.368 23.0193 113.781 23.105 114.246 23.105C114.734 23.105 115.193 23.0193 115.624 22.8477C116.054 22.6666 116.431 22.4188 116.757 22.1043C117.082 21.7898 117.327 21.4324 117.489 21.0321C117.327 20.6223 117.082 20.2601 116.757 19.9456C116.431 19.6311 116.054 19.3833 115.624 19.2022C115.193 19.0211 114.734 18.9306 114.246 18.9306C113.781 18.9306 113.368 19.0211 113.008 19.2022C112.648 19.3833 112.363 19.6311 112.154 19.9456C111.956 20.2601 111.857 20.6223 111.857 21.0321Z"/>
<path d="M122.2 19.1021V17.8298L124.223 17.1579L125.757 14.7418H127.78V16.9434H131.965V19.1021H127.78V21.4324C127.78 22.0519 127.925 22.4855 128.216 22.7333C128.506 22.9811 129.035 23.105 129.803 23.105C130.291 23.105 130.721 23.0717 131.093 23.005C131.476 22.9382 131.825 22.8477 132.139 22.7333V24.9206C131.779 25.0255 131.314 25.1208 130.744 25.2066C130.186 25.2923 129.599 25.3352 128.983 25.3352C127.89 25.3352 126.989 25.197 126.28 24.9206C125.583 24.6443 125.066 24.2487 124.728 23.7341C124.391 23.2099 124.223 22.5999 124.223 21.9042V19.1021H122.2ZM131.407 19.1021V16.9434H135.016L132.662 18.2872L134.964 14.7418H136.986V16.9434H141.171V19.1021H136.986V21.4324C136.986 22.0519 137.132 22.4855 137.422 22.7333C137.713 22.9811 138.248 23.105 139.027 23.105C139.515 23.105 139.945 23.0717 140.317 23.005C140.689 22.9382 141.032 22.8477 141.346 22.7333V24.9206C140.985 25.0255 140.52 25.1208 139.951 25.2066C139.393 25.2923 138.806 25.3352 138.19 25.3352C137.097 25.3352 136.196 25.197 135.487 24.9206C134.789 24.6443 134.272 24.2487 133.935 23.7341C133.598 23.2099 133.429 22.5999 133.429 21.9042V19.1021H131.407Z"/>
<path d="M148.412 25.3352C147.134 25.3352 146.018 25.1589 145.064 24.8063C144.111 24.4441 143.367 23.939 142.833 23.2909C142.298 22.6333 142.031 21.8803 142.031 21.0321C142.031 20.1648 142.298 19.4071 142.833 18.759C143.367 18.1109 144.111 17.6058 145.064 17.2436C146.018 16.8815 147.134 16.7004 148.412 16.7004C149.679 16.7004 150.789 16.8815 151.743 17.2436C152.708 17.6058 153.457 18.1109 153.992 18.759C154.527 19.4071 154.794 20.1648 154.794 21.0321C154.794 21.8803 154.527 22.6333 153.992 23.2909C153.457 23.939 152.708 24.4441 151.743 24.8063C150.789 25.1589 149.679 25.3352 148.412 25.3352ZM148.412 23.1765C148.994 23.1765 149.488 23.0907 149.894 22.9192C150.313 22.7476 150.633 22.4998 150.853 22.1758C151.074 21.8517 151.185 21.4705 151.185 21.0321C151.185 20.5746 151.074 20.1886 150.853 19.8741C150.633 19.5501 150.313 19.3023 149.894 19.1307C149.488 18.9592 148.994 18.8734 148.412 18.8734C147.831 18.8734 147.331 18.9592 146.913 19.1307C146.494 19.3023 146.175 19.5501 145.954 19.8741C145.733 20.1886 145.622 20.5699 145.622 21.0178C145.622 21.4657 145.733 21.8517 145.954 22.1758C146.175 22.4998 146.494 22.7476 146.913 22.9192C147.331 23.0907 147.831 23.1765 148.412 23.1765Z"/>
<path d="M162.222 25.3352C160.943 25.3352 159.827 25.1589 158.874 24.8063C157.921 24.4441 157.177 23.939 156.642 23.2909C156.108 22.6333 155.84 21.8803 155.84 21.0321C155.84 20.1648 156.108 19.4071 156.642 18.759C157.177 18.1109 157.921 17.6058 158.874 17.2436C159.827 16.8815 160.943 16.7004 162.222 16.7004C163.489 16.7004 164.599 16.8815 165.552 17.2436C166.517 17.6058 167.267 18.1109 167.802 18.759C168.336 19.4071 168.604 20.1648 168.604 21.0321C168.604 21.8803 168.336 22.6333 167.802 23.2909C167.267 23.939 166.517 24.4441 165.552 24.8063C164.599 25.1589 163.489 25.3352 162.222 25.3352ZM162.222 23.1765C162.803 23.1765 163.297 23.0907 163.704 22.9192C164.123 22.7476 164.442 22.4998 164.663 22.1758C164.884 21.8517 164.994 21.4705 164.994 21.0321C164.994 20.5746 164.884 20.1886 164.663 19.8741C164.442 19.5501 164.123 19.3023 163.704 19.1307C163.297 18.9592 162.803 18.8734 162.222 18.8734C161.641 18.8734 161.141 18.9592 160.722 19.1307C160.304 19.3023 159.984 19.5501 159.763 19.8741C159.543 20.1886 159.432 20.5699 159.432 21.0178C159.432 21.4657 159.543 21.8517 159.763 22.1758C159.984 22.4998 160.304 22.7476 160.722 22.9192C161.141 23.0907 161.641 23.1765 162.222 23.1765Z"/>
<path d="M178.282 14.3844V23.7912L176.66 22.476H186.442V25.1065H174.672V14.3844H178.282Z"/>
<path d="M190.534 23.0479V20.6604H199.549V23.0479H190.534ZM197.491 14.3844L203.437 25.1065H199.584L194.597 15.6425H195.643L190.639 25.1065H186.785L192.731 14.3844H197.491Z"/>
<path d="M202.759 19.3595L204.503 16.3573L204.712 17.4295C204.34 17.4295 204.003 17.358 203.701 17.215C203.399 17.0721 203.161 16.8815 202.986 16.6432C202.812 16.3954 202.725 16.1238 202.725 15.8283C202.725 15.5329 202.812 15.266 202.986 15.0277C203.161 14.7895 203.399 14.5988 203.701 14.4559C204.003 14.3129 204.34 14.2414 204.712 14.2414C205.084 14.2414 205.416 14.3129 205.706 14.4559C206.009 14.5988 206.247 14.7942 206.421 15.042C206.596 15.2803 206.683 15.5519 206.683 15.8569C206.683 16.1428 206.601 16.4478 206.439 16.7719C206.276 17.0959 205.991 17.501 205.584 17.987L204.468 19.3595H202.759ZM207.398 19.3595L209.141 16.3573L209.351 17.4295C208.979 17.4295 208.641 17.358 208.339 17.215C208.037 17.0721 207.799 16.8815 207.624 16.6432C207.45 16.3954 207.363 16.1238 207.363 15.8283C207.363 15.5329 207.45 15.266 207.624 15.0277C207.799 14.7895 208.037 14.5988 208.339 14.4559C208.641 14.3129 208.979 14.2414 209.351 14.2414C209.723 14.2414 210.054 14.3129 210.344 14.4559C210.647 14.5988 210.885 14.7942 211.059 15.042C211.234 15.2803 211.321 15.5519 211.321 15.8569C211.321 16.1428 211.239 16.4478 211.077 16.7719C210.914 17.0959 210.629 17.501 210.222 17.987L209.106 19.3595H207.398Z"/>
<path d="M41.2387 27.8942C40.6502 27.8942 40.1017 27.8168 39.5931 27.6619C39.0918 27.5011 38.6559 27.2747 38.2854 26.9829C37.9149 26.691 37.6243 26.3485 37.4136 25.9553C37.2101 25.5622 37.1084 25.1303 37.1084 24.6597C37.1084 24.1892 37.2101 23.7573 37.4136 23.3642C37.6243 22.971 37.9149 22.6285 38.2854 22.3366C38.6632 22.0447 39.1027 21.8214 39.604 21.6665C40.1053 21.5057 40.6539 21.4252 41.2496 21.4252C41.9108 21.4252 42.5065 21.5206 43.0369 21.7112C43.5745 21.8958 44.025 22.1698 44.3882 22.5332L43.2548 23.391C42.9933 23.1467 42.7027 22.9651 42.383 22.8459C42.0633 22.7208 41.7146 22.6583 41.3368 22.6583C40.9808 22.6583 40.6539 22.7059 40.356 22.8012C40.0581 22.8966 39.8002 23.0336 39.5822 23.2123C39.3643 23.391 39.1936 23.6024 39.0701 23.8466C38.9538 24.0909 38.8957 24.3619 38.8957 24.6597C38.8957 24.9576 38.9538 25.2286 39.0701 25.4728C39.1936 25.7171 39.3643 25.9285 39.5822 26.1072C39.8002 26.2859 40.0581 26.4229 40.356 26.5182C40.6539 26.6135 40.9808 26.6612 41.3368 26.6612C41.7146 26.6612 42.0633 26.6016 42.383 26.4825C42.7027 26.3574 42.9933 26.1698 43.2548 25.9196L44.3882 26.7774C44.025 27.1407 43.5745 27.4177 43.0369 27.6083C42.5065 27.7989 41.9071 27.8942 41.2387 27.8942Z"/>
<path d="M47.796 27.8585C47.3092 27.8585 46.8733 27.7811 46.4883 27.6262C46.1105 27.4713 45.8162 27.236 45.6055 26.9203C45.3948 26.5987 45.2895 26.1906 45.2895 25.6962V22.9799H46.9896V25.4907C46.9896 25.8898 47.0913 26.1847 47.2947 26.3753C47.5054 26.5599 47.7996 26.6523 48.1774 26.6523C48.439 26.6523 48.6715 26.6076 48.8749 26.5182C49.0783 26.4229 49.2382 26.28 49.3544 26.0894C49.4707 25.8928 49.5288 25.6486 49.5288 25.3567V22.9799H51.2289V27.787H49.616V26.4646L49.9102 26.8488C49.714 27.1824 49.4234 27.4356 49.0384 27.6083C48.6606 27.7751 48.2465 27.8585 47.796 27.8585Z"/>
<path d="M54.7764 27.8585C54.2751 27.8585 53.7919 27.8108 53.3269 27.7155C52.8692 27.6143 52.506 27.4892 52.2372 27.3403L52.8038 26.3395C53.0727 26.4765 53.3887 26.5897 53.752 26.6791C54.1225 26.7625 54.4858 26.8042 54.8418 26.8042C55.2341 26.8042 55.5102 26.7654 55.67 26.688C55.8371 26.6106 55.9206 26.5033 55.9206 26.3663C55.9206 26.2532 55.8553 26.1698 55.7245 26.1162C55.601 26.0566 55.4339 26.0119 55.2232 25.9821C55.0125 25.9523 54.78 25.9226 54.5257 25.8928C54.2787 25.863 54.028 25.8243 53.7738 25.7766C53.5195 25.723 53.287 25.6456 53.0763 25.5443C52.8656 25.443 52.6949 25.306 52.5641 25.1333C52.4406 24.9606 52.3788 24.7372 52.3788 24.4632C52.3788 24.1594 52.4842 23.8913 52.6949 23.659C52.9128 23.4267 53.2252 23.245 53.6321 23.114C54.0389 22.977 54.5257 22.9085 55.0924 22.9085C55.492 22.9085 55.8988 22.9442 56.313 23.0157C56.7271 23.0872 57.0722 23.1914 57.3483 23.3284L56.7816 24.3202C56.4982 24.1832 56.2113 24.0909 55.9206 24.0432C55.6373 23.9896 55.3612 23.9628 55.0924 23.9628C54.7146 23.9628 54.4385 24.0045 54.2642 24.0879C54.0898 24.1713 54.0026 24.2785 54.0026 24.4096C54.0026 24.5287 54.0644 24.618 54.1879 24.6776C54.3187 24.7372 54.4894 24.7848 54.7001 24.8206C54.9108 24.8563 55.1396 24.8891 55.3866 24.9189C55.6409 24.9427 55.8952 24.9814 56.1495 25.035C56.4038 25.0886 56.6326 25.1661 56.8361 25.2673C57.0468 25.3626 57.2175 25.4967 57.3483 25.6694C57.479 25.8362 57.5444 26.0566 57.5444 26.3306C57.5444 26.6284 57.4354 26.8935 57.2175 27.1258C56.9995 27.3522 56.6835 27.5309 56.2694 27.6619C55.8625 27.793 55.3649 27.8585 54.7764 27.8585Z"/>
<path d="M60.9909 27.8585C60.3007 27.8585 59.7631 27.7155 59.378 27.4296C58.9929 27.1377 58.8004 26.7059 58.8004 26.134V21.9167H60.5005V26.1162C60.5005 26.3187 60.5659 26.4765 60.6966 26.5897C60.8274 26.6969 61.0054 26.7505 61.2306 26.7505C61.4995 26.7505 61.7283 26.691 61.9172 26.5718L62.3749 27.5547C62.2005 27.656 61.9899 27.7334 61.7428 27.787C61.5031 27.8347 61.2524 27.8585 60.9909 27.8585ZM57.8959 24.1594V23.0872H61.9608V24.1594H57.8959Z"/>
<path d="M65.9382 27.8585C65.3134 27.8585 64.7576 27.7513 64.2708 27.5368C63.7913 27.3224 63.4099 27.0305 63.1265 26.6612C62.8504 26.2859 62.7124 25.86 62.7124 25.3835C62.7124 24.901 62.8504 24.4751 63.1265 24.1058C63.4099 23.7305 63.7913 23.4386 64.2708 23.2301C64.7576 23.0157 65.3134 22.9085 65.9382 22.9085C66.5557 22.9085 67.1079 23.0157 67.5947 23.2301C68.0814 23.4386 68.4629 23.7275 68.7389 24.0968C69.015 24.4661 69.1531 24.895 69.1531 25.3835C69.1531 25.86 69.015 26.2859 68.7389 26.6612C68.4629 27.0305 68.0814 27.3224 67.5947 27.5368C67.1079 27.7513 66.5557 27.8585 65.9382 27.8585ZM65.9382 26.7148C66.2215 26.7148 66.4758 26.6612 66.701 26.554C66.9263 26.4468 67.1043 26.2949 67.235 26.0983C67.3658 25.8958 67.4312 25.6575 67.4312 25.3835C67.4312 25.1035 67.3658 24.8652 67.235 24.6687C67.1043 24.4721 66.9263 24.3202 66.701 24.213C66.4758 24.1058 66.2215 24.0522 65.9382 24.0522C65.6548 24.0522 65.4006 24.1058 65.1753 24.213C64.9501 24.3202 64.7685 24.4721 64.6304 24.6687C64.4997 24.8652 64.4343 25.1035 64.4343 25.3835C64.4343 25.6575 64.4997 25.8958 64.6304 26.0983C64.7685 26.2949 64.9501 26.4468 65.1753 26.554C65.4006 26.6612 65.6548 26.7148 65.9382 26.7148Z"/>
<path d="M77.7981 22.9085C78.263 22.9085 78.6735 22.9859 79.0295 23.1408C79.3928 23.2897 79.6761 23.522 79.8796 23.8377C80.0902 24.1475 80.1956 24.5466 80.1956 25.035V27.787H78.4955V25.2495C78.4955 24.8623 78.3974 24.5763 78.2013 24.3917C78.0051 24.207 77.729 24.1147 77.373 24.1147C77.126 24.1147 76.9044 24.1624 76.7083 24.2577C76.5121 24.347 76.3595 24.484 76.2506 24.6687C76.1416 24.8533 76.0871 25.0886 76.0871 25.3745V27.787H74.387V25.2495C74.387 24.8623 74.2889 24.5763 74.0928 24.3917C73.9039 24.207 73.6314 24.1147 73.2754 24.1147C73.0284 24.1147 72.8068 24.1624 72.6107 24.2577C72.4145 24.347 72.2619 24.484 72.1529 24.6687C72.044 24.8533 71.9895 25.0886 71.9895 25.3745V27.787H70.2894V22.9799H71.9132V24.2934L71.6081 23.9092C71.8115 23.5816 72.0985 23.3344 72.469 23.1676C72.8468 22.9948 73.2754 22.9085 73.7549 22.9085C74.2926 22.9085 74.7612 23.0216 75.1608 23.248C75.5676 23.4684 75.8364 23.8079 75.9672 24.2666L75.3678 24.1326C75.564 23.7573 75.8764 23.4595 76.305 23.2391C76.741 23.0187 77.2386 22.9085 77.7981 22.9085Z"/>
<path d="M121.883 41.2968C121.295 41.2968 120.746 41.2194 120.237 41.0645C119.736 40.9037 119.3 40.6773 118.93 40.3855C118.559 40.0936 118.269 39.7511 118.058 39.3579C117.854 38.9648 117.753 38.5329 117.753 38.0624C117.753 37.5918 117.854 37.1599 118.058 36.7668C118.269 36.3736 118.559 36.0311 118.93 35.7392C119.308 35.4474 119.747 35.224 120.248 35.0691C120.75 34.9083 121.298 34.8279 121.894 34.8279C122.555 34.8279 123.151 34.9232 123.681 35.1138C124.219 35.2984 124.669 35.5724 125.033 35.9358L123.899 36.7936C123.638 36.5493 123.347 36.3677 123.027 36.2485C122.708 36.1234 122.359 36.0609 121.981 36.0609C121.625 36.0609 121.298 36.1085 121 36.2039C120.702 36.2992 120.445 36.4362 120.227 36.6149C120.009 36.7936 119.838 37.005 119.714 37.2493C119.598 37.4935 119.54 37.7645 119.54 38.0624C119.54 38.3602 119.598 38.6312 119.714 38.8754C119.838 39.1197 120.009 39.3311 120.227 39.5098C120.445 39.6885 120.702 39.8255 121 39.9208C121.298 40.0162 121.625 40.0638 121.981 40.0638C122.359 40.0638 122.708 40.0042 123.027 39.8851C123.347 39.76 123.638 39.5724 123.899 39.3222L125.033 40.18C124.669 40.5433 124.219 40.8203 123.681 41.0109C123.151 41.2015 122.551 41.2968 121.883 41.2968Z"/>
<path d="M128.693 41.2611C128.068 41.2611 127.512 41.1539 127.025 40.9394C126.546 40.725 126.164 40.4331 125.881 40.0638C125.605 39.6885 125.467 39.2626 125.467 38.7861C125.467 38.3036 125.605 37.8777 125.881 37.5084C126.164 37.1331 126.546 36.8412 127.025 36.6327C127.512 36.4183 128.068 36.3111 128.693 36.3111C129.31 36.3111 129.862 36.4183 130.349 36.6327C130.836 36.8412 131.217 37.1301 131.493 37.4994C131.769 37.8688 131.907 38.2976 131.907 38.7861C131.907 39.2626 131.769 39.6885 131.493 40.0638C131.217 40.4331 130.836 40.725 130.349 40.9394C129.862 41.1539 129.31 41.2611 128.693 41.2611ZM128.693 40.1174C128.976 40.1174 129.23 40.0638 129.455 39.9566C129.681 39.8494 129.859 39.6975 129.989 39.5009C130.12 39.2984 130.186 39.0601 130.186 38.7861C130.186 38.5061 130.12 38.2679 129.989 38.0713C129.859 37.8747 129.681 37.7228 129.455 37.6156C129.23 37.5084 128.976 37.4548 128.693 37.4548C128.409 37.4548 128.155 37.5084 127.93 37.6156C127.704 37.7228 127.523 37.8747 127.385 38.0713C127.254 38.2679 127.189 38.5061 127.189 38.7861C127.189 39.0601 127.254 39.2984 127.385 39.5009C127.523 39.6975 127.704 39.8494 127.93 39.9566C128.155 40.0638 128.409 40.1174 128.693 40.1174Z"/>
<path d="M136.607 36.3111C137.072 36.3111 137.486 36.3885 137.85 36.5434C138.22 36.6923 138.511 36.9246 138.722 37.2403C138.932 37.5501 139.038 37.9492 139.038 38.4376V41.1896H137.338V38.6521C137.338 38.2649 137.232 37.979 137.021 37.7943C136.818 37.6096 136.527 37.5173 136.15 37.5173C135.881 37.5173 135.637 37.565 135.419 37.6603C135.209 37.7496 135.042 37.8896 134.918 38.0802C134.802 38.2708 134.744 38.5151 134.744 38.8129V41.1896H133.044V36.3826H134.668V37.7139L134.362 37.3118C134.573 36.9901 134.875 36.7429 135.267 36.5702C135.659 36.3974 136.106 36.3111 136.607 36.3111Z"/>
<path d="M143.455 41.2611C142.823 41.2611 142.259 41.1569 141.765 40.9484C141.271 40.7339 140.883 40.4391 140.599 40.0638C140.323 39.6885 140.185 39.2626 140.185 38.7861C140.185 38.3036 140.323 37.8777 140.599 37.5084C140.883 37.1331 141.271 36.8412 141.765 36.6327C142.259 36.4183 142.823 36.3111 143.455 36.3111C144.072 36.3111 144.61 36.4183 145.068 36.6327C145.525 36.8412 145.863 37.142 146.081 37.5352L144.762 38.116C144.61 37.8896 144.417 37.7228 144.185 37.6156C143.96 37.5084 143.713 37.4548 143.444 37.4548C143.153 37.4548 142.892 37.5084 142.659 37.6156C142.427 37.7228 142.241 37.8747 142.103 38.0713C141.973 38.2679 141.907 38.5061 141.907 38.7861C141.907 39.0661 141.973 39.3043 142.103 39.5009C142.241 39.6975 142.427 39.8494 142.659 39.9566C142.892 40.0638 143.153 40.1174 143.444 40.1174C143.713 40.1174 143.96 40.0668 144.185 39.9655C144.417 39.8583 144.61 39.6885 144.762 39.4562L146.081 40.0459C145.863 40.4331 145.525 40.7339 145.068 40.9484C144.61 41.1569 144.072 41.2611 143.455 41.2611Z"/>
<path d="M149.895 41.2611C149.227 41.2611 148.638 41.1539 148.13 40.9394C147.628 40.725 147.24 40.4331 146.964 40.0638C146.688 39.6885 146.549 39.2626 146.549 38.7861C146.549 38.3036 146.684 37.8777 146.953 37.5084C147.229 37.1331 147.603 36.8412 148.075 36.6327C148.547 36.4183 149.081 36.3111 149.677 36.3111C150.251 36.3111 150.767 36.4123 151.225 36.6149C151.69 36.8114 152.057 37.0974 152.325 37.4726C152.594 37.842 152.729 38.2857 152.729 38.804C152.729 38.8576 152.725 38.9201 152.718 38.9916C152.71 39.0571 152.703 39.1197 152.696 39.1792H147.933V38.3661H151.802L151.148 38.6074C151.148 38.3572 151.087 38.1398 150.963 37.9551C150.84 37.7705 150.669 37.6275 150.451 37.5262C150.233 37.419 149.979 37.3654 149.688 37.3654C149.397 37.3654 149.14 37.419 148.914 37.5262C148.696 37.6275 148.526 37.7734 148.402 37.9641C148.279 38.1487 148.217 38.3691 148.217 38.6253V38.8397C148.217 39.1018 148.286 39.3341 148.424 39.5366C148.569 39.7332 148.769 39.8851 149.023 39.9923C149.285 40.0936 149.59 40.1442 149.939 40.1442C150.251 40.1442 150.524 40.1055 150.756 40.0281C150.996 39.9506 151.214 39.8345 151.41 39.6796L152.314 40.4838C152.046 40.7339 151.708 40.9275 151.301 41.0645C150.894 41.1956 150.425 41.2611 149.895 41.2611Z"/>
<path d="M157.326 41.2611C156.832 41.2611 156.4 41.1718 156.029 40.9931C155.659 40.8144 155.368 40.5433 155.157 40.18C154.954 39.8106 154.852 39.346 154.852 38.7861C154.852 38.2202 154.95 37.7556 155.146 37.3922C155.343 37.0289 155.626 36.7578 155.996 36.5791C156.367 36.4004 156.81 36.3111 157.326 36.3111C157.878 36.3111 158.372 36.4153 158.808 36.6238C159.251 36.8263 159.6 37.1123 159.854 37.4816C160.116 37.8509 160.247 38.2857 160.247 38.7861C160.247 39.2924 160.116 39.7302 159.854 40.0995C159.6 40.4689 159.251 40.7548 158.808 40.9573C158.372 41.1598 157.878 41.2611 157.326 41.2611ZM153.86 42.923V36.3826H155.484V37.3654L155.451 38.795L155.56 40.2157V42.923H153.86ZM157.032 40.1174C157.315 40.1174 157.566 40.0638 157.784 39.9566C158.009 39.8494 158.187 39.6975 158.318 39.5009C158.456 39.2984 158.525 39.0601 158.525 38.7861C158.525 38.5061 158.456 38.2679 158.318 38.0713C158.187 37.8747 158.009 37.7228 157.784 37.6156C157.566 37.5084 157.315 37.4548 157.032 37.4548C156.748 37.4548 156.494 37.5084 156.269 37.6156C156.044 37.7228 155.866 37.8747 155.735 38.0713C155.604 38.2679 155.539 38.5061 155.539 38.7861C155.539 39.0601 155.604 39.2984 155.735 39.5009C155.866 39.6975 156.044 39.8494 156.269 39.9566C156.494 40.0638 156.748 40.1174 157.032 40.1174Z"/>
<path d="M163.782 41.2611C163.092 41.2611 162.554 41.1181 162.169 40.8322C161.784 40.5403 161.592 40.1085 161.592 39.5366V35.3193H163.292V39.5188C163.292 39.7213 163.357 39.8791 163.488 39.9923C163.619 40.0995 163.797 40.1532 164.022 40.1532C164.291 40.1532 164.52 40.0936 164.708 39.9745L165.166 40.9573C164.992 41.0586 164.781 41.136 164.534 41.1896C164.294 41.2373 164.044 41.2611 163.782 41.2611ZM160.687 37.562V36.4898H164.752V37.562H160.687Z"/>
<path d="M168.093 41.2611C167.592 41.2611 167.109 41.2135 166.644 41.1181C166.186 41.0169 165.823 40.8918 165.554 40.7429L166.121 39.7421C166.389 39.8791 166.705 39.9923 167.069 40.0817C167.439 40.1651 167.802 40.2068 168.158 40.2068C168.551 40.2068 168.827 40.168 168.987 40.0906C169.154 40.0132 169.237 39.906 169.237 39.7689C169.237 39.6558 169.172 39.5724 169.041 39.5188C168.918 39.4592 168.751 39.4145 168.54 39.3847C168.329 39.355 168.097 39.3252 167.842 39.2954C167.595 39.2656 167.345 39.2269 167.09 39.1792C166.836 39.1256 166.604 39.0482 166.393 38.9469C166.182 38.8457 166.012 38.7087 165.881 38.5359C165.757 38.3632 165.695 38.1398 165.695 37.8658C165.695 37.562 165.801 37.2939 166.012 37.0616C166.23 36.8293 166.542 36.6476 166.949 36.5166C167.356 36.3796 167.842 36.3111 168.409 36.3111C168.809 36.3111 169.216 36.3468 169.63 36.4183C170.044 36.4898 170.389 36.594 170.665 36.731L170.098 37.7228C169.815 37.5858 169.528 37.4935 169.237 37.4458C168.954 37.3922 168.678 37.3654 168.409 37.3654C168.031 37.3654 167.755 37.4071 167.581 37.4905C167.406 37.5739 167.319 37.6811 167.319 37.8122C167.319 37.9313 167.381 38.0207 167.505 38.0802C167.635 38.1398 167.806 38.1874 168.017 38.2232C168.227 38.2589 168.456 38.2917 168.703 38.3215C168.958 38.3453 169.212 38.384 169.466 38.4376C169.72 38.4912 169.949 38.5687 170.153 38.6699C170.363 38.7652 170.534 38.8993 170.665 39.072C170.796 39.2388 170.861 39.4592 170.861 39.7332C170.861 40.031 170.752 40.2961 170.534 40.5284C170.316 40.7548 170 40.9335 169.586 41.0645C169.179 41.1956 168.682 41.2611 168.093 41.2611Z"/>
<path d="M220.999 29.6813C220.389 29.6813 219.804 29.6157 219.245 29.4847C218.685 29.3477 218.235 29.172 217.893 28.9575L218.493 27.8674C218.82 28.058 219.205 28.2159 219.648 28.341C220.098 28.4601 220.552 28.5197 221.01 28.5197C221.359 28.5197 221.639 28.4929 221.849 28.4393C222.067 28.3797 222.227 28.2993 222.329 28.198C222.431 28.0968 222.481 27.9806 222.481 27.8496C222.481 27.6828 222.401 27.5517 222.242 27.4564C222.082 27.3552 221.871 27.2747 221.61 27.2152C221.348 27.1496 221.057 27.0901 220.738 27.0365C220.425 26.9769 220.109 26.9054 219.79 26.822C219.477 26.7386 219.19 26.6314 218.929 26.5004C218.667 26.3693 218.453 26.1966 218.286 25.9821C218.126 25.7677 218.046 25.4937 218.046 25.1601C218.046 24.8027 218.162 24.4781 218.395 24.1862C218.634 23.8883 218.99 23.6531 219.463 23.4803C219.942 23.3016 220.542 23.2123 221.261 23.2123C221.74 23.2123 222.213 23.2599 222.678 23.3552C223.143 23.4446 223.553 23.5816 223.909 23.7662L223.364 24.8652C223.008 24.6985 222.652 24.5763 222.296 24.4989C221.94 24.4155 221.591 24.3738 221.25 24.3738C220.908 24.3738 220.629 24.4066 220.411 24.4721C220.193 24.5376 220.037 24.624 219.942 24.7312C219.848 24.8325 219.801 24.9516 219.801 25.0886C219.801 25.2495 219.88 25.3805 220.04 25.4818C220.2 25.5771 220.411 25.6545 220.672 25.7141C220.934 25.7736 221.221 25.8332 221.533 25.8928C221.853 25.9523 222.169 26.0208 222.481 26.0983C222.801 26.1757 223.092 26.28 223.353 26.411C223.615 26.5421 223.825 26.7148 223.985 26.9292C224.152 27.1437 224.236 27.4147 224.236 27.7423C224.236 28.0938 224.116 28.4154 223.876 28.7073C223.637 28.9992 223.277 29.2345 222.797 29.4132C222.325 29.5919 221.726 29.6813 220.999 29.6813Z"/>
<path d="M227.72 29.6455C227.03 29.6455 226.492 29.5025 226.107 29.2166C225.722 28.9247 225.529 28.4929 225.529 27.921V23.7037H227.23V27.9032C227.23 28.1057 227.295 28.2636 227.426 28.3767C227.556 28.484 227.734 28.5376 227.96 28.5376C228.229 28.5376 228.457 28.478 228.646 28.3589L229.104 29.3417C228.93 29.443 228.719 29.5204 228.472 29.574C228.232 29.6217 227.981 29.6455 227.72 29.6455ZM224.625 25.9464V24.8742H228.69V25.9464H224.625Z"/>
<path d="M232.532 29.6455C232.045 29.6455 231.609 29.5681 231.224 29.4132C230.847 29.2583 230.552 29.023 230.342 28.7073C230.131 28.3857 230.026 27.9776 230.026 27.4832V24.767H231.726V27.2777C231.726 27.6768 231.827 27.9717 232.031 28.1623C232.242 28.3469 232.536 28.4393 232.914 28.4393C233.175 28.4393 233.408 28.3946 233.611 28.3052C233.814 28.2099 233.974 28.067 234.091 27.8764C234.207 27.6798 234.265 27.4356 234.265 27.1437V24.767H235.965V29.574H234.352V28.2516L234.646 28.6358C234.45 28.9694 234.16 29.2226 233.774 29.3953C233.397 29.5621 232.983 29.6455 232.532 29.6455Z"/>
<path d="M240.057 29.6455C239.505 29.6455 239.008 29.5442 238.564 29.3417C238.121 29.1332 237.769 28.8443 237.507 28.475C237.253 28.1057 237.126 27.6709 237.126 27.1705C237.126 26.6642 237.253 26.2264 237.507 25.857C237.769 25.4877 238.121 25.2018 238.564 24.9993C239.008 24.7967 239.505 24.6955 240.057 24.6955C240.551 24.6955 240.984 24.7848 241.354 24.9635C241.725 25.1422 242.012 25.4133 242.215 25.7766C242.419 26.14 242.52 26.6046 242.52 27.1705C242.52 27.7304 242.422 28.1951 242.226 28.5644C242.03 28.9277 241.747 29.1988 241.376 29.3775C241.013 29.5562 240.573 29.6455 240.057 29.6455ZM240.352 28.5018C240.628 28.5018 240.878 28.4482 241.104 28.341C241.329 28.2338 241.507 28.0819 241.638 27.8853C241.776 27.6828 241.845 27.4445 241.845 27.1705C241.845 26.8905 241.776 26.6523 241.638 26.4557C241.507 26.2591 241.329 26.1072 241.104 26C240.878 25.8928 240.628 25.8392 240.352 25.8392C240.068 25.8392 239.814 25.8928 239.589 26C239.364 26.1072 239.182 26.2591 239.044 26.4557C238.913 26.6523 238.848 26.8905 238.848 27.1705C238.848 27.4445 238.913 27.6828 239.044 27.8853C239.182 28.0819 239.364 28.2338 239.589 28.341C239.814 28.4482 240.068 28.5018 240.352 28.5018ZM241.888 29.574V28.5912L241.921 27.1616L241.812 25.7409V22.9442H243.512V29.574H241.888Z"/>
<path d="M245.085 29.574V24.767H246.786V29.574H245.085ZM245.936 24.0968C245.623 24.0968 245.369 24.0224 245.173 23.8735C244.976 23.7245 244.878 23.5399 244.878 23.3195C244.878 23.0991 244.976 22.9144 245.173 22.7655C245.369 22.6166 245.623 22.5421 245.936 22.5421C246.248 22.5421 246.502 22.6136 246.698 22.7566C246.895 22.8936 246.993 23.0723 246.993 23.2927C246.993 23.525 246.895 23.7186 246.698 23.8735C246.509 24.0224 246.255 24.0968 245.936 24.0968Z"/>
<path d="M251.153 29.6455C250.528 29.6455 249.973 29.5383 249.486 29.3238C249.006 29.1094 248.625 28.8175 248.342 28.4482C248.065 28.0729 247.927 27.647 247.927 27.1705C247.927 26.688 248.065 26.2621 248.342 25.8928C248.625 25.5175 249.006 25.2256 249.486 25.0171C249.973 24.8027 250.528 24.6955 251.153 24.6955C251.771 24.6955 252.323 24.8027 252.81 25.0171C253.296 25.2256 253.678 25.5145 253.954 25.8838C254.23 26.2532 254.368 26.682 254.368 27.1705C254.368 27.647 254.23 28.0729 253.954 28.4482C253.678 28.8175 253.296 29.1094 252.81 29.3238C252.323 29.5383 251.771 29.6455 251.153 29.6455ZM251.153 28.5018C251.437 28.5018 251.691 28.4482 251.916 28.341C252.141 28.2338 252.319 28.0819 252.45 27.8853C252.581 27.6828 252.646 27.4445 252.646 27.1705C252.646 26.8905 252.581 26.6523 252.45 26.4557C252.319 26.2591 252.141 26.1072 251.916 26C251.691 25.8928 251.437 25.8392 251.153 25.8392C250.87 25.8392 250.616 25.8928 250.39 26C250.165 26.1072 249.983 26.2591 249.845 26.4557C249.715 26.6523 249.649 26.8905 249.649 27.1705C249.649 27.4445 249.715 27.6828 249.845 27.8853C249.983 28.0819 250.165 28.2338 250.39 28.341C250.616 28.4482 250.87 28.5018 251.153 28.5018Z"/>
</mask>
<path d="M94.7735 14.3844L93.0473 17.3866L92.8206 16.3144C93.2042 16.3144 93.5413 16.3859 93.8319 16.5288C94.1341 16.6718 94.3724 16.8672 94.5468 17.115C94.7212 17.3532 94.8083 17.6201 94.8083 17.9155C94.8083 18.211 94.7212 18.4779 94.5468 18.7161C94.3724 18.9544 94.1341 19.145 93.8319 19.288C93.5297 19.4309 93.1926 19.5024 92.8206 19.5024C92.4602 19.5024 92.1289 19.4309 91.8267 19.288C91.5245 19.145 91.2862 18.9496 91.1118 18.7018C90.9374 18.454 90.8502 18.1776 90.8502 17.8727C90.8502 17.5867 90.9316 17.2865 91.0944 16.972C91.2687 16.648 91.5593 16.2381 91.9662 15.7425L93.0647 14.3844H94.7735ZM90.1353 14.3844L88.4091 17.3866L88.1824 16.3144C88.566 16.3144 88.9031 16.3859 89.1938 16.5288C89.496 16.6718 89.7343 16.8672 89.9087 17.115C90.083 17.3532 90.1702 17.6201 90.1702 17.9155C90.1702 18.211 90.083 18.4779 89.9087 18.7161C89.7343 18.9544 89.496 19.145 89.1938 19.288C88.8915 19.4309 88.5544 19.5024 88.1824 19.5024C87.8221 19.5024 87.4908 19.4309 87.1886 19.288C86.8863 19.145 86.648 18.9496 86.4737 18.7018C86.2993 18.454 86.2121 18.1776 86.2121 17.8727C86.2121 17.5867 86.2935 17.2865 86.4562 16.972C86.6306 16.648 86.9212 16.2381 87.328 15.7425L88.4266 14.3844H90.1353Z" fill="#333333"/>
<path d="M100.782 15.6854H104.409V25.1065H100.782V15.6854ZM95.7952 14.3844H109.396V17.0149H95.7952V14.3844Z" fill="#333333"/>
<path d="M117.664 25.1065L117.21 22.1615L117.681 21.0321L117.21 19.9027L117.664 16.9434H121.36L120.733 21.0178L121.36 25.1065H117.664ZM118.501 21.0321C118.338 21.8899 118.012 22.6428 117.524 23.2909C117.048 23.939 116.437 24.4441 115.693 24.8063C114.961 25.1589 114.124 25.3352 113.182 25.3352C112.206 25.3352 111.346 25.1589 110.602 24.8063C109.869 24.4441 109.294 23.939 108.876 23.2909C108.457 22.6333 108.248 21.8803 108.248 21.0321C108.248 20.1648 108.457 19.4071 108.876 18.759C109.294 18.1109 109.869 17.6058 110.602 17.2436C111.346 16.8815 112.206 16.7004 113.182 16.7004C114.124 16.7004 114.961 16.8815 115.693 17.2436C116.437 17.5963 117.053 18.0966 117.542 18.7447C118.03 19.3833 118.349 20.1457 118.501 21.0321ZM111.857 21.0321C111.857 21.4324 111.956 21.7898 112.154 22.1043C112.363 22.4188 112.648 22.6666 113.008 22.8477C113.368 23.0193 113.781 23.105 114.246 23.105C114.734 23.105 115.193 23.0193 115.624 22.8477C116.054 22.6666 116.431 22.4188 116.757 22.1043C117.082 21.7898 117.327 21.4324 117.489 21.0321C117.327 20.6223 117.082 20.2601 116.757 19.9456C116.431 19.6311 116.054 19.3833 115.624 19.2022C115.193 19.0211 114.734 18.9306 114.246 18.9306C113.781 18.9306 113.368 19.0211 113.008 19.2022C112.648 19.3833 112.363 19.6311 112.154 19.9456C111.956 20.2601 111.857 20.6223 111.857 21.0321Z" fill="#333333"/>
<path d="M122.2 19.1021V17.8298L124.223 17.1579L125.757 14.7418H127.78V16.9434H131.965V19.1021H127.78V21.4324C127.78 22.0519 127.925 22.4855 128.216 22.7333C128.506 22.9811 129.035 23.105 129.803 23.105C130.291 23.105 130.721 23.0717 131.093 23.005C131.476 22.9382 131.825 22.8477 132.139 22.7333V24.9206C131.779 25.0255 131.314 25.1208 130.744 25.2066C130.186 25.2923 129.599 25.3352 128.983 25.3352C127.89 25.3352 126.989 25.197 126.28 24.9206C125.583 24.6443 125.066 24.2487 124.728 23.7341C124.391 23.2099 124.223 22.5999 124.223 21.9042V19.1021H122.2ZM131.407 19.1021V16.9434H135.016L132.662 18.2872L134.964 14.7418H136.986V16.9434H141.171V19.1021H136.986V21.4324C136.986 22.0519 137.132 22.4855 137.422 22.7333C137.713 22.9811 138.248 23.105 139.027 23.105C139.515 23.105 139.945 23.0717 140.317 23.005C140.689 22.9382 141.032 22.8477 141.346 22.7333V24.9206C140.985 25.0255 140.52 25.1208 139.951 25.2066C139.393 25.2923 138.806 25.3352 138.19 25.3352C137.097 25.3352 136.196 25.197 135.487 24.9206C134.789 24.6443 134.272 24.2487 133.935 23.7341C133.598 23.2099 133.429 22.5999 133.429 21.9042V19.1021H131.407Z" fill="#333333"/>
<path d="M148.412 25.3352C147.134 25.3352 146.018 25.1589 145.064 24.8063C144.111 24.4441 143.367 23.939 142.833 23.2909C142.298 22.6333 142.031 21.8803 142.031 21.0321C142.031 20.1648 142.298 19.4071 142.833 18.759C143.367 18.1109 144.111 17.6058 145.064 17.2436C146.018 16.8815 147.134 16.7004 148.412 16.7004C149.679 16.7004 150.789 16.8815 151.743 17.2436C152.708 17.6058 153.457 18.1109 153.992 18.759C154.527 19.4071 154.794 20.1648 154.794 21.0321C154.794 21.8803 154.527 22.6333 153.992 23.2909C153.457 23.939 152.708 24.4441 151.743 24.8063C150.789 25.1589 149.679 25.3352 148.412 25.3352ZM148.412 23.1765C148.994 23.1765 149.488 23.0907 149.894 22.9192C150.313 22.7476 150.633 22.4998 150.853 22.1758C151.074 21.8517 151.185 21.4705 151.185 21.0321C151.185 20.5746 151.074 20.1886 150.853 19.8741C150.633 19.5501 150.313 19.3023 149.894 19.1307C149.488 18.9592 148.994 18.8734 148.412 18.8734C147.831 18.8734 147.331 18.9592 146.913 19.1307C146.494 19.3023 146.175 19.5501 145.954 19.8741C145.733 20.1886 145.622 20.5699 145.622 21.0178C145.622 21.4657 145.733 21.8517 145.954 22.1758C146.175 22.4998 146.494 22.7476 146.913 22.9192C147.331 23.0907 147.831 23.1765 148.412 23.1765Z" fill="#333333"/>
<path d="M162.222 25.3352C160.943 25.3352 159.827 25.1589 158.874 24.8063C157.921 24.4441 157.177 23.939 156.642 23.2909C156.108 22.6333 155.84 21.8803 155.84 21.0321C155.84 20.1648 156.108 19.4071 156.642 18.759C157.177 18.1109 157.921 17.6058 158.874 17.2436C159.827 16.8815 160.943 16.7004 162.222 16.7004C163.489 16.7004 164.599 16.8815 165.552 17.2436C166.517 17.6058 167.267 18.1109 167.802 18.759C168.336 19.4071 168.604 20.1648 168.604 21.0321C168.604 21.8803 168.336 22.6333 167.802 23.2909C167.267 23.939 166.517 24.4441 165.552 24.8063C164.599 25.1589 163.489 25.3352 162.222 25.3352ZM162.222 23.1765C162.803 23.1765 163.297 23.0907 163.704 22.9192C164.123 22.7476 164.442 22.4998 164.663 22.1758C164.884 21.8517 164.994 21.4705 164.994 21.0321C164.994 20.5746 164.884 20.1886 164.663 19.8741C164.442 19.5501 164.123 19.3023 163.704 19.1307C163.297 18.9592 162.803 18.8734 162.222 18.8734C161.641 18.8734 161.141 18.9592 160.722 19.1307C160.304 19.3023 159.984 19.5501 159.763 19.8741C159.543 20.1886 159.432 20.5699 159.432 21.0178C159.432 21.4657 159.543 21.8517 159.763 22.1758C159.984 22.4998 160.304 22.7476 160.722 22.9192C161.141 23.0907 161.641 23.1765 162.222 23.1765Z" fill="#333333"/>
<path d="M178.282 14.3844V23.7912L176.66 22.476H186.442V25.1065H174.672V14.3844H178.282Z" fill="#333333"/>
<path d="M190.534 23.0479V20.6604H199.549V23.0479H190.534ZM197.491 14.3844L203.437 25.1065H199.584L194.597 15.6425H195.643L190.639 25.1065H186.785L192.731 14.3844H197.491Z" fill="#333333"/>
<path d="M202.759 19.3595L204.503 16.3573L204.712 17.4295C204.34 17.4295 204.003 17.358 203.701 17.215C203.399 17.0721 203.161 16.8815 202.986 16.6432C202.812 16.3954 202.725 16.1238 202.725 15.8283C202.725 15.5329 202.812 15.266 202.986 15.0277C203.161 14.7895 203.399 14.5988 203.701 14.4559C204.003 14.3129 204.34 14.2414 204.712 14.2414C205.084 14.2414 205.416 14.3129 205.706 14.4559C206.009 14.5988 206.247 14.7942 206.421 15.042C206.596 15.2803 206.683 15.5519 206.683 15.8569C206.683 16.1428 206.601 16.4478 206.439 16.7719C206.276 17.0959 205.991 17.501 205.584 17.987L204.468 19.3595H202.759ZM207.398 19.3595L209.141 16.3573L209.351 17.4295C208.979 17.4295 208.641 17.358 208.339 17.215C208.037 17.0721 207.799 16.8815 207.624 16.6432C207.45 16.3954 207.363 16.1238 207.363 15.8283C207.363 15.5329 207.45 15.266 207.624 15.0277C207.799 14.7895 208.037 14.5988 208.339 14.4559C208.641 14.3129 208.979 14.2414 209.351 14.2414C209.723 14.2414 210.054 14.3129 210.344 14.4559C210.647 14.5988 210.885 14.7942 211.059 15.042C211.234 15.2803 211.321 15.5519 211.321 15.8569C211.321 16.1428 211.239 16.4478 211.077 16.7719C210.914 17.0959 210.629 17.501 210.222 17.987L209.106 19.3595H207.398Z" fill="#333333"/>
<path d="M41.2387 27.8942C40.6502 27.8942 40.1017 27.8168 39.5931 27.6619C39.0918 27.5011 38.6559 27.2747 38.2854 26.9829C37.9149 26.691 37.6243 26.3485 37.4136 25.9553C37.2101 25.5622 37.1084 25.1303 37.1084 24.6597C37.1084 24.1892 37.2101 23.7573 37.4136 23.3642C37.6243 22.971 37.9149 22.6285 38.2854 22.3366C38.6632 22.0447 39.1027 21.8214 39.604 21.6665C40.1053 21.5057 40.6539 21.4252 41.2496 21.4252C41.9108 21.4252 42.5065 21.5206 43.0369 21.7112C43.5745 21.8958 44.025 22.1698 44.3882 22.5332L43.2548 23.391C42.9933 23.1467 42.7027 22.9651 42.383 22.8459C42.0633 22.7208 41.7146 22.6583 41.3368 22.6583C40.9808 22.6583 40.6539 22.7059 40.356 22.8012C40.0581 22.8966 39.8002 23.0336 39.5822 23.2123C39.3643 23.391 39.1936 23.6024 39.0701 23.8466C38.9538 24.0909 38.8957 24.3619 38.8957 24.6597C38.8957 24.9576 38.9538 25.2286 39.0701 25.4728C39.1936 25.7171 39.3643 25.9285 39.5822 26.1072C39.8002 26.2859 40.0581 26.4229 40.356 26.5182C40.6539 26.6135 40.9808 26.6612 41.3368 26.6612C41.7146 26.6612 42.0633 26.6016 42.383 26.4825C42.7027 26.3574 42.9933 26.1698 43.2548 25.9196L44.3882 26.7774C44.025 27.1407 43.5745 27.4177 43.0369 27.6083C42.5065 27.7989 41.9071 27.8942 41.2387 27.8942Z" fill="#333333"/>
<path d="M47.796 27.8585C47.3092 27.8585 46.8733 27.7811 46.4883 27.6262C46.1105 27.4713 45.8162 27.236 45.6055 26.9203C45.3948 26.5987 45.2895 26.1906 45.2895 25.6962V22.9799H46.9896V25.4907C46.9896 25.8898 47.0913 26.1847 47.2947 26.3753C47.5054 26.5599 47.7996 26.6523 48.1774 26.6523C48.439 26.6523 48.6715 26.6076 48.8749 26.5182C49.0783 26.4229 49.2382 26.28 49.3544 26.0894C49.4707 25.8928 49.5288 25.6486 49.5288 25.3567V22.9799H51.2289V27.787H49.616V26.4646L49.9102 26.8488C49.714 27.1824 49.4234 27.4356 49.0384 27.6083C48.6606 27.7751 48.2465 27.8585 47.796 27.8585Z" fill="#333333"/>
<path d="M54.7764 27.8585C54.2751 27.8585 53.7919 27.8108 53.3269 27.7155C52.8692 27.6143 52.506 27.4892 52.2372 27.3403L52.8038 26.3395C53.0727 26.4765 53.3887 26.5897 53.752 26.6791C54.1225 26.7625 54.4858 26.8042 54.8418 26.8042C55.2341 26.8042 55.5102 26.7654 55.67 26.688C55.8371 26.6106 55.9206 26.5033 55.9206 26.3663C55.9206 26.2532 55.8553 26.1698 55.7245 26.1162C55.601 26.0566 55.4339 26.0119 55.2232 25.9821C55.0125 25.9523 54.78 25.9226 54.5257 25.8928C54.2787 25.863 54.028 25.8243 53.7738 25.7766C53.5195 25.723 53.287 25.6456 53.0763 25.5443C52.8656 25.443 52.6949 25.306 52.5641 25.1333C52.4406 24.9606 52.3788 24.7372 52.3788 24.4632C52.3788 24.1594 52.4842 23.8913 52.6949 23.659C52.9128 23.4267 53.2252 23.245 53.6321 23.114C54.0389 22.977 54.5257 22.9085 55.0924 22.9085C55.492 22.9085 55.8988 22.9442 56.313 23.0157C56.7271 23.0872 57.0722 23.1914 57.3483 23.3284L56.7816 24.3202C56.4982 24.1832 56.2113 24.0909 55.9206 24.0432C55.6373 23.9896 55.3612 23.9628 55.0924 23.9628C54.7146 23.9628 54.4385 24.0045 54.2642 24.0879C54.0898 24.1713 54.0026 24.2785 54.0026 24.4096C54.0026 24.5287 54.0644 24.618 54.1879 24.6776C54.3187 24.7372 54.4894 24.7848 54.7001 24.8206C54.9108 24.8563 55.1396 24.8891 55.3866 24.9189C55.6409 24.9427 55.8952 24.9814 56.1495 25.035C56.4038 25.0886 56.6326 25.1661 56.8361 25.2673C57.0468 25.3626 57.2175 25.4967 57.3483 25.6694C57.479 25.8362 57.5444 26.0566 57.5444 26.3306C57.5444 26.6284 57.4354 26.8935 57.2175 27.1258C56.9995 27.3522 56.6835 27.5309 56.2694 27.6619C55.8625 27.793 55.3649 27.8585 54.7764 27.8585Z" fill="#333333"/>
<path d="M60.9909 27.8585C60.3007 27.8585 59.7631 27.7155 59.378 27.4296C58.9929 27.1377 58.8004 26.7059 58.8004 26.134V21.9167H60.5005V26.1162C60.5005 26.3187 60.5659 26.4765 60.6966 26.5897C60.8274 26.6969 61.0054 26.7505 61.2306 26.7505C61.4995 26.7505 61.7283 26.691 61.9172 26.5718L62.3749 27.5547C62.2005 27.656 61.9899 27.7334 61.7428 27.787C61.5031 27.8347 61.2524 27.8585 60.9909 27.8585ZM57.8959 24.1594V23.0872H61.9608V24.1594H57.8959Z" fill="#333333"/>
<path d="M65.9382 27.8585C65.3134 27.8585 64.7576 27.7513 64.2708 27.5368C63.7913 27.3224 63.4099 27.0305 63.1265 26.6612C62.8504 26.2859 62.7124 25.86 62.7124 25.3835C62.7124 24.901 62.8504 24.4751 63.1265 24.1058C63.4099 23.7305 63.7913 23.4386 64.2708 23.2301C64.7576 23.0157 65.3134 22.9085 65.9382 22.9085C66.5557 22.9085 67.1079 23.0157 67.5947 23.2301C68.0814 23.4386 68.4629 23.7275 68.7389 24.0968C69.015 24.4661 69.1531 24.895 69.1531 25.3835C69.1531 25.86 69.015 26.2859 68.7389 26.6612C68.4629 27.0305 68.0814 27.3224 67.5947 27.5368C67.1079 27.7513 66.5557 27.8585 65.9382 27.8585ZM65.9382 26.7148C66.2215 26.7148 66.4758 26.6612 66.701 26.554C66.9263 26.4468 67.1043 26.2949 67.235 26.0983C67.3658 25.8958 67.4312 25.6575 67.4312 25.3835C67.4312 25.1035 67.3658 24.8652 67.235 24.6687C67.1043 24.4721 66.9263 24.3202 66.701 24.213C66.4758 24.1058 66.2215 24.0522 65.9382 24.0522C65.6548 24.0522 65.4006 24.1058 65.1753 24.213C64.9501 24.3202 64.7685 24.4721 64.6304 24.6687C64.4997 24.8652 64.4343 25.1035 64.4343 25.3835C64.4343 25.6575 64.4997 25.8958 64.6304 26.0983C64.7685 26.2949 64.9501 26.4468 65.1753 26.554C65.4006 26.6612 65.6548 26.7148 65.9382 26.7148Z" fill="#333333"/>
<path d="M77.7981 22.9085C78.263 22.9085 78.6735 22.9859 79.0295 23.1408C79.3928 23.2897 79.6761 23.522 79.8796 23.8377C80.0902 24.1475 80.1956 24.5466 80.1956 25.035V27.787H78.4955V25.2495C78.4955 24.8623 78.3974 24.5763 78.2013 24.3917C78.0051 24.207 77.729 24.1147 77.373 24.1147C77.126 24.1147 76.9044 24.1624 76.7083 24.2577C76.5121 24.347 76.3595 24.484 76.2506 24.6687C76.1416 24.8533 76.0871 25.0886 76.0871 25.3745V27.787H74.387V25.2495C74.387 24.8623 74.2889 24.5763 74.0928 24.3917C73.9039 24.207 73.6314 24.1147 73.2754 24.1147C73.0284 24.1147 72.8068 24.1624 72.6107 24.2577C72.4145 24.347 72.2619 24.484 72.1529 24.6687C72.044 24.8533 71.9895 25.0886 71.9895 25.3745V27.787H70.2894V22.9799H71.9132V24.2934L71.6081 23.9092C71.8115 23.5816 72.0985 23.3344 72.469 23.1676C72.8468 22.9948 73.2754 22.9085 73.7549 22.9085C74.2926 22.9085 74.7612 23.0216 75.1608 23.248C75.5676 23.4684 75.8364 23.8079 75.9672 24.2666L75.3678 24.1326C75.564 23.7573 75.8764 23.4595 76.305 23.2391C76.741 23.0187 77.2386 22.9085 77.7981 22.9085Z" fill="#333333"/>
<path d="M121.883 41.2968C121.295 41.2968 120.746 41.2194 120.237 41.0645C119.736 40.9037 119.3 40.6773 118.93 40.3855C118.559 40.0936 118.269 39.7511 118.058 39.3579C117.854 38.9648 117.753 38.5329 117.753 38.0624C117.753 37.5918 117.854 37.1599 118.058 36.7668C118.269 36.3736 118.559 36.0311 118.93 35.7392C119.308 35.4474 119.747 35.224 120.248 35.0691C120.75 34.9083 121.298 34.8279 121.894 34.8279C122.555 34.8279 123.151 34.9232 123.681 35.1138C124.219 35.2984 124.669 35.5724 125.033 35.9358L123.899 36.7936C123.638 36.5493 123.347 36.3677 123.027 36.2485C122.708 36.1234 122.359 36.0609 121.981 36.0609C121.625 36.0609 121.298 36.1085 121 36.2039C120.702 36.2992 120.445 36.4362 120.227 36.6149C120.009 36.7936 119.838 37.005 119.714 37.2493C119.598 37.4935 119.54 37.7645 119.54 38.0624C119.54 38.3602 119.598 38.6312 119.714 38.8754C119.838 39.1197 120.009 39.3311 120.227 39.5098C120.445 39.6885 120.702 39.8255 121 39.9208C121.298 40.0162 121.625 40.0638 121.981 40.0638C122.359 40.0638 122.708 40.0042 123.027 39.8851C123.347 39.76 123.638 39.5724 123.899 39.3222L125.033 40.18C124.669 40.5433 124.219 40.8203 123.681 41.0109C123.151 41.2015 122.551 41.2968 121.883 41.2968Z" fill="#333333"/>
<path d="M128.693 41.2611C128.068 41.2611 127.512 41.1539 127.025 40.9394C126.546 40.725 126.164 40.4331 125.881 40.0638C125.605 39.6885 125.467 39.2626 125.467 38.7861C125.467 38.3036 125.605 37.8777 125.881 37.5084C126.164 37.1331 126.546 36.8412 127.025 36.6327C127.512 36.4183 128.068 36.3111 128.693 36.3111C129.31 36.3111 129.862 36.4183 130.349 36.6327C130.836 36.8412 131.217 37.1301 131.493 37.4994C131.769 37.8688 131.907 38.2976 131.907 38.7861C131.907 39.2626 131.769 39.6885 131.493 40.0638C131.217 40.4331 130.836 40.725 130.349 40.9394C129.862 41.1539 129.31 41.2611 128.693 41.2611ZM128.693 40.1174C128.976 40.1174 129.23 40.0638 129.455 39.9566C129.681 39.8494 129.859 39.6975 129.989 39.5009C130.12 39.2984 130.186 39.0601 130.186 38.7861C130.186 38.5061 130.12 38.2679 129.989 38.0713C129.859 37.8747 129.681 37.7228 129.455 37.6156C129.23 37.5084 128.976 37.4548 128.693 37.4548C128.409 37.4548 128.155 37.5084 127.93 37.6156C127.704 37.7228 127.523 37.8747 127.385 38.0713C127.254 38.2679 127.189 38.5061 127.189 38.7861C127.189 39.0601 127.254 39.2984 127.385 39.5009C127.523 39.6975 127.704 39.8494 127.93 39.9566C128.155 40.0638 128.409 40.1174 128.693 40.1174Z" fill="#333333"/>
<path d="M136.607 36.3111C137.072 36.3111 137.486 36.3885 137.85 36.5434C138.22 36.6923 138.511 36.9246 138.722 37.2403C138.932 37.5501 139.038 37.9492 139.038 38.4376V41.1896H137.338V38.6521C137.338 38.2649 137.232 37.979 137.021 37.7943C136.818 37.6096 136.527 37.5173 136.15 37.5173C135.881 37.5173 135.637 37.565 135.419 37.6603C135.209 37.7496 135.042 37.8896 134.918 38.0802C134.802 38.2708 134.744 38.5151 134.744 38.8129V41.1896H133.044V36.3826H134.668V37.7139L134.362 37.3118C134.573 36.9901 134.875 36.7429 135.267 36.5702C135.659 36.3974 136.106 36.3111 136.607 36.3111Z" fill="#333333"/>
<path d="M143.455 41.2611C142.823 41.2611 142.259 41.1569 141.765 40.9484C141.271 40.7339 140.883 40.4391 140.599 40.0638C140.323 39.6885 140.185 39.2626 140.185 38.7861C140.185 38.3036 140.323 37.8777 140.599 37.5084C140.883 37.1331 141.271 36.8412 141.765 36.6327C142.259 36.4183 142.823 36.3111 143.455 36.3111C144.072 36.3111 144.61 36.4183 145.068 36.6327C145.525 36.8412 145.863 37.142 146.081 37.5352L144.762 38.116C144.61 37.8896 144.417 37.7228 144.185 37.6156C143.96 37.5084 143.713 37.4548 143.444 37.4548C143.153 37.4548 142.892 37.5084 142.659 37.6156C142.427 37.7228 142.241 37.8747 142.103 38.0713C141.973 38.2679 141.907 38.5061 141.907 38.7861C141.907 39.0661 141.973 39.3043 142.103 39.5009C142.241 39.6975 142.427 39.8494 142.659 39.9566C142.892 40.0638 143.153 40.1174 143.444 40.1174C143.713 40.1174 143.96 40.0668 144.185 39.9655C144.417 39.8583 144.61 39.6885 144.762 39.4562L146.081 40.0459C145.863 40.4331 145.525 40.7339 145.068 40.9484C144.61 41.1569 144.072 41.2611 143.455 41.2611Z" fill="#333333"/>
<path d="M149.895 41.2611C149.227 41.2611 148.638 41.1539 148.13 40.9394C147.628 40.725 147.24 40.4331 146.964 40.0638C146.688 39.6885 146.549 39.2626 146.549 38.7861C146.549 38.3036 146.684 37.8777 146.953 37.5084C147.229 37.1331 147.603 36.8412 148.075 36.6327C148.547 36.4183 149.081 36.3111 149.677 36.3111C150.251 36.3111 150.767 36.4123 151.225 36.6149C151.69 36.8114 152.057 37.0974 152.325 37.4726C152.594 37.842 152.729 38.2857 152.729 38.804C152.729 38.8576 152.725 38.9201 152.718 38.9916C152.71 39.0571 152.703 39.1197 152.696 39.1792H147.933V38.3661H151.802L151.148 38.6074C151.148 38.3572 151.087 38.1398 150.963 37.9551C150.84 37.7705 150.669 37.6275 150.451 37.5262C150.233 37.419 149.979 37.3654 149.688 37.3654C149.397 37.3654 149.14 37.419 148.914 37.5262C148.696 37.6275 148.526 37.7734 148.402 37.9641C148.279 38.1487 148.217 38.3691 148.217 38.6253V38.8397C148.217 39.1018 148.286 39.3341 148.424 39.5366C148.569 39.7332 148.769 39.8851 149.023 39.9923C149.285 40.0936 149.59 40.1442 149.939 40.1442C150.251 40.1442 150.524 40.1055 150.756 40.0281C150.996 39.9506 151.214 39.8345 151.41 39.6796L152.314 40.4838C152.046 40.7339 151.708 40.9275 151.301 41.0645C150.894 41.1956 150.425 41.2611 149.895 41.2611Z" fill="#333333"/>
<path d="M157.326 41.2611C156.832 41.2611 156.4 41.1718 156.029 40.9931C155.659 40.8144 155.368 40.5433 155.157 40.18C154.954 39.8106 154.852 39.346 154.852 38.7861C154.852 38.2202 154.95 37.7556 155.146 37.3922C155.343 37.0289 155.626 36.7578 155.996 36.5791C156.367 36.4004 156.81 36.3111 157.326 36.3111C157.878 36.3111 158.372 36.4153 158.808 36.6238C159.251 36.8263 159.6 37.1123 159.854 37.4816C160.116 37.8509 160.247 38.2857 160.247 38.7861C160.247 39.2924 160.116 39.7302 159.854 40.0995C159.6 40.4689 159.251 40.7548 158.808 40.9573C158.372 41.1598 157.878 41.2611 157.326 41.2611ZM153.86 42.923V36.3826H155.484V37.3654L155.451 38.795L155.56 40.2157V42.923H153.86ZM157.032 40.1174C157.315 40.1174 157.566 40.0638 157.784 39.9566C158.009 39.8494 158.187 39.6975 158.318 39.5009C158.456 39.2984 158.525 39.0601 158.525 38.7861C158.525 38.5061 158.456 38.2679 158.318 38.0713C158.187 37.8747 158.009 37.7228 157.784 37.6156C157.566 37.5084 157.315 37.4548 157.032 37.4548C156.748 37.4548 156.494 37.5084 156.269 37.6156C156.044 37.7228 155.866 37.8747 155.735 38.0713C155.604 38.2679 155.539 38.5061 155.539 38.7861C155.539 39.0601 155.604 39.2984 155.735 39.5009C155.866 39.6975 156.044 39.8494 156.269 39.9566C156.494 40.0638 156.748 40.1174 157.032 40.1174Z" fill="#333333"/>
<path d="M163.782 41.2611C163.092 41.2611 162.554 41.1181 162.169 40.8322C161.784 40.5403 161.592 40.1085 161.592 39.5366V35.3193H163.292V39.5188C163.292 39.7213 163.357 39.8791 163.488 39.9923C163.619 40.0995 163.797 40.1532 164.022 40.1532C164.291 40.1532 164.52 40.0936 164.708 39.9745L165.166 40.9573C164.992 41.0586 164.781 41.136 164.534 41.1896C164.294 41.2373 164.044 41.2611 163.782 41.2611ZM160.687 37.562V36.4898H164.752V37.562H160.687Z" fill="#333333"/>
<path d="M168.093 41.2611C167.592 41.2611 167.109 41.2135 166.644 41.1181C166.186 41.0169 165.823 40.8918 165.554 40.7429L166.121 39.7421C166.389 39.8791 166.705 39.9923 167.069 40.0817C167.439 40.1651 167.802 40.2068 168.158 40.2068C168.551 40.2068 168.827 40.168 168.987 40.0906C169.154 40.0132 169.237 39.906 169.237 39.7689C169.237 39.6558 169.172 39.5724 169.041 39.5188C168.918 39.4592 168.751 39.4145 168.54 39.3847C168.329 39.355 168.097 39.3252 167.842 39.2954C167.595 39.2656 167.345 39.2269 167.09 39.1792C166.836 39.1256 166.604 39.0482 166.393 38.9469C166.182 38.8457 166.012 38.7087 165.881 38.5359C165.757 38.3632 165.695 38.1398 165.695 37.8658C165.695 37.562 165.801 37.2939 166.012 37.0616C166.23 36.8293 166.542 36.6476 166.949 36.5166C167.356 36.3796 167.842 36.3111 168.409 36.3111C168.809 36.3111 169.216 36.3468 169.63 36.4183C170.044 36.4898 170.389 36.594 170.665 36.731L170.098 37.7228C169.815 37.5858 169.528 37.4935 169.237 37.4458C168.954 37.3922 168.678 37.3654 168.409 37.3654C168.031 37.3654 167.755 37.4071 167.581 37.4905C167.406 37.5739 167.319 37.6811 167.319 37.8122C167.319 37.9313 167.381 38.0207 167.505 38.0802C167.635 38.1398 167.806 38.1874 168.017 38.2232C168.227 38.2589 168.456 38.2917 168.703 38.3215C168.958 38.3453 169.212 38.384 169.466 38.4376C169.72 38.4912 169.949 38.5687 170.153 38.6699C170.363 38.7652 170.534 38.8993 170.665 39.072C170.796 39.2388 170.861 39.4592 170.861 39.7332C170.861 40.031 170.752 40.2961 170.534 40.5284C170.316 40.7548 170 40.9335 169.586 41.0645C169.179 41.1956 168.682 41.2611 168.093 41.2611Z" fill="#333333"/>
<path d="M220.999 29.6813C220.389 29.6813 219.804 29.6157 219.245 29.4847C218.685 29.3477 218.235 29.172 217.893 28.9575L218.493 27.8674C218.82 28.058 219.205 28.2159 219.648 28.341C220.098 28.4601 220.552 28.5197 221.01 28.5197C221.359 28.5197 221.639 28.4929 221.849 28.4393C222.067 28.3797 222.227 28.2993 222.329 28.198C222.431 28.0968 222.481 27.9806 222.481 27.8496C222.481 27.6828 222.401 27.5517 222.242 27.4564C222.082 27.3552 221.871 27.2747 221.61 27.2152C221.348 27.1496 221.057 27.0901 220.738 27.0365C220.425 26.9769 220.109 26.9054 219.79 26.822C219.477 26.7386 219.19 26.6314 218.929 26.5004C218.667 26.3693 218.453 26.1966 218.286 25.9821C218.126 25.7677 218.046 25.4937 218.046 25.1601C218.046 24.8027 218.162 24.4781 218.395 24.1862C218.634 23.8883 218.99 23.6531 219.463 23.4803C219.942 23.3016 220.542 23.2123 221.261 23.2123C221.74 23.2123 222.213 23.2599 222.678 23.3552C223.143 23.4446 223.553 23.5816 223.909 23.7662L223.364 24.8652C223.008 24.6985 222.652 24.5763 222.296 24.4989C221.94 24.4155 221.591 24.3738 221.25 24.3738C220.908 24.3738 220.629 24.4066 220.411 24.4721C220.193 24.5376 220.037 24.624 219.942 24.7312C219.848 24.8325 219.801 24.9516 219.801 25.0886C219.801 25.2495 219.88 25.3805 220.04 25.4818C220.2 25.5771 220.411 25.6545 220.672 25.7141C220.934 25.7736 221.221 25.8332 221.533 25.8928C221.853 25.9523 222.169 26.0208 222.481 26.0983C222.801 26.1757 223.092 26.28 223.353 26.411C223.615 26.5421 223.825 26.7148 223.985 26.9292C224.152 27.1437 224.236 27.4147 224.236 27.7423C224.236 28.0938 224.116 28.4154 223.876 28.7073C223.637 28.9992 223.277 29.2345 222.797 29.4132C222.325 29.5919 221.726 29.6813 220.999 29.6813Z" fill="#333333"/>
<path d="M227.72 29.6455C227.03 29.6455 226.492 29.5025 226.107 29.2166C225.722 28.9247 225.529 28.4929 225.529 27.921V23.7037H227.23V27.9032C227.23 28.1057 227.295 28.2636 227.426 28.3767C227.556 28.484 227.734 28.5376 227.96 28.5376C228.229 28.5376 228.457 28.478 228.646 28.3589L229.104 29.3417C228.93 29.443 228.719 29.5204 228.472 29.574C228.232 29.6217 227.981 29.6455 227.72 29.6455ZM224.625 25.9464V24.8742H228.69V25.9464H224.625Z" fill="#333333"/>
<path d="M232.532 29.6455C232.045 29.6455 231.609 29.5681 231.224 29.4132C230.847 29.2583 230.552 29.023 230.342 28.7073C230.131 28.3857 230.026 27.9776 230.026 27.4832V24.767H231.726V27.2777C231.726 27.6768 231.827 27.9717 232.031 28.1623C232.242 28.3469 232.536 28.4393 232.914 28.4393C233.175 28.4393 233.408 28.3946 233.611 28.3052C233.814 28.2099 233.974 28.067 234.091 27.8764C234.207 27.6798 234.265 27.4356 234.265 27.1437V24.767H235.965V29.574H234.352V28.2516L234.646 28.6358C234.45 28.9694 234.16 29.2226 233.774 29.3953C233.397 29.5621 232.983 29.6455 232.532 29.6455Z" fill="#333333"/>
<path d="M240.057 29.6455C239.505 29.6455 239.008 29.5442 238.564 29.3417C238.121 29.1332 237.769 28.8443 237.507 28.475C237.253 28.1057 237.126 27.6709 237.126 27.1705C237.126 26.6642 237.253 26.2264 237.507 25.857C237.769 25.4877 238.121 25.2018 238.564 24.9993C239.008 24.7967 239.505 24.6955 240.057 24.6955C240.551 24.6955 240.984 24.7848 241.354 24.9635C241.725 25.1422 242.012 25.4133 242.215 25.7766C242.419 26.14 242.52 26.6046 242.52 27.1705C242.52 27.7304 242.422 28.1951 242.226 28.5644C242.03 28.9277 241.747 29.1988 241.376 29.3775C241.013 29.5562 240.573 29.6455 240.057 29.6455ZM240.352 28.5018C240.628 28.5018 240.878 28.4482 241.104 28.341C241.329 28.2338 241.507 28.0819 241.638 27.8853C241.776 27.6828 241.845 27.4445 241.845 27.1705C241.845 26.8905 241.776 26.6523 241.638 26.4557C241.507 26.2591 241.329 26.1072 241.104 26C240.878 25.8928 240.628 25.8392 240.352 25.8392C240.068 25.8392 239.814 25.8928 239.589 26C239.364 26.1072 239.182 26.2591 239.044 26.4557C238.913 26.6523 238.848 26.8905 238.848 27.1705C238.848 27.4445 238.913 27.6828 239.044 27.8853C239.182 28.0819 239.364 28.2338 239.589 28.341C239.814 28.4482 240.068 28.5018 240.352 28.5018ZM241.888 29.574V28.5912L241.921 27.1616L241.812 25.7409V22.9442H243.512V29.574H241.888Z" fill="#333333"/>
<path d="M245.085 29.574V24.767H246.786V29.574H245.085ZM245.936 24.0968C245.623 24.0968 245.369 24.0224 245.173 23.8735C244.976 23.7245 244.878 23.5399 244.878 23.3195C244.878 23.0991 244.976 22.9144 245.173 22.7655C245.369 22.6166 245.623 22.5421 245.936 22.5421C246.248 22.5421 246.502 22.6136 246.698 22.7566C246.895 22.8936 246.993 23.0723 246.993 23.2927C246.993 23.525 246.895 23.7186 246.698 23.8735C246.509 24.0224 246.255 24.0968 245.936 24.0968Z" fill="#333333"/>
<path d="M251.153 29.6455C250.528 29.6455 249.973 29.5383 249.486 29.3238C249.006 29.1094 248.625 28.8175 248.342 28.4482C248.065 28.0729 247.927 27.647 247.927 27.1705C247.927 26.688 248.065 26.2621 248.342 25.8928C248.625 25.5175 249.006 25.2256 249.486 25.0171C249.973 24.8027 250.528 24.6955 251.153 24.6955C251.771 24.6955 252.323 24.8027 252.81 25.0171C253.296 25.2256 253.678 25.5145 253.954 25.8838C254.23 26.2532 254.368 26.682 254.368 27.1705C254.368 27.647 254.23 28.0729 253.954 28.4482C253.678 28.8175 253.296 29.1094 252.81 29.3238C252.323 29.5383 251.771 29.6455 251.153 29.6455ZM251.153 28.5018C251.437 28.5018 251.691 28.4482 251.916 28.341C252.141 28.2338 252.319 28.0819 252.45 27.8853C252.581 27.6828 252.646 27.4445 252.646 27.1705C252.646 26.8905 252.581 26.6523 252.45 26.4557C252.319 26.2591 252.141 26.1072 251.916 26C251.691 25.8928 251.437 25.8392 251.153 25.8392C250.87 25.8392 250.616 25.8928 250.39 26C250.165 26.1072 249.983 26.2591 249.845 26.4557C249.715 26.6523 249.649 26.8905 249.649 27.1705C249.649 27.4445 249.715 27.6828 249.845 27.8853C249.983 28.0819 250.165 28.2338 250.39 28.341C250.616 28.4482 250.87 28.5018 251.153 28.5018Z" fill="#333333"/>
<path d="M2.71488 26.8757C1.55077 26.682 1.55077 25.318 2.71488 25.1243L147.625 1.01784C147.768 0.994052 147.915 0.994053 148.058 1.01784L292.969 25.1243C294.133 25.318 294.133 26.682 292.969 26.8757L148.058 50.9822C147.915 51.0059 147.768 51.0059 147.625 50.9822L2.71488 26.8757Z" stroke="#333333" stroke-width="2" mask="url(#path-1-outside-1_164_48)"/>
<path d="M94.7735 14.3844L93.0473 17.3866L92.8206 16.3144C93.2042 16.3144 93.5413 16.3859 93.8319 16.5288C94.1341 16.6718 94.3724 16.8672 94.5468 17.115C94.7212 17.3532 94.8083 17.6201 94.8083 17.9155C94.8083 18.211 94.7212 18.4779 94.5468 18.7161C94.3724 18.9544 94.1341 19.145 93.8319 19.288C93.5297 19.4309 93.1926 19.5024 92.8206 19.5024C92.4602 19.5024 92.1289 19.4309 91.8267 19.288C91.5245 19.145 91.2862 18.9496 91.1118 18.7018C90.9374 18.454 90.8502 18.1776 90.8502 17.8727C90.8502 17.5867 90.9316 17.2865 91.0944 16.972C91.2687 16.648 91.5593 16.2381 91.9662 15.7425L93.0647 14.3844H94.7735ZM90.1353 14.3844L88.4091 17.3866L88.1824 16.3144C88.566 16.3144 88.9031 16.3859 89.1938 16.5288C89.496 16.6718 89.7343 16.8672 89.9087 17.115C90.083 17.3532 90.1702 17.6201 90.1702 17.9155C90.1702 18.211 90.083 18.4779 89.9087 18.7161C89.7343 18.9544 89.496 19.145 89.1938 19.288C88.8915 19.4309 88.5544 19.5024 88.1824 19.5024C87.8221 19.5024 87.4908 19.4309 87.1886 19.288C86.8863 19.145 86.648 18.9496 86.4737 18.7018C86.2993 18.454 86.2121 18.1776 86.2121 17.8727C86.2121 17.5867 86.2935 17.2865 86.4562 16.972C86.6306 16.648 86.9212 16.2381 87.328 15.7425L88.4266 14.3844H90.1353Z" stroke="#333333" stroke-width="2" mask="url(#path-1-outside-1_164_48)"/>
<path d="M100.782 15.6854H104.409V25.1065H100.782V15.6854ZM95.7952 14.3844H109.396V17.0149H95.7952V14.3844Z" stroke="#333333" stroke-width="2" mask="url(#path-1-outside-1_164_48)"/>
<path d="M117.664 25.1065L117.21 22.1615L117.681 21.0321L117.21 19.9027L117.664 16.9434H121.36L120.733 21.0178L121.36 25.1065H117.664ZM118.501 21.0321C118.338 21.8899 118.012 22.6428 117.524 23.2909C117.048 23.939 116.437 24.4441 115.693 24.8063C114.961 25.1589 114.124 25.3352 113.182 25.3352C112.206 25.3352 111.346 25.1589 110.602 24.8063C109.869 24.4441 109.294 23.939 108.876 23.2909C108.457 22.6333 108.248 21.8803 108.248 21.0321C108.248 20.1648 108.457 19.4071 108.876 18.759C109.294 18.1109 109.869 17.6058 110.602 17.2436C111.346 16.8815 112.206 16.7004 113.182 16.7004C114.124 16.7004 114.961 16.8815 115.693 17.2436C116.437 17.5963 117.053 18.0966 117.542 18.7447C118.03 19.3833 118.349 20.1457 118.501 21.0321ZM111.857 21.0321C111.857 21.4324 111.956 21.7898 112.154 22.1043C112.363 22.4188 112.648 22.6666 113.008 22.8477C113.368 23.0193 113.781 23.105 114.246 23.105C114.734 23.105 115.193 23.0193 115.624 22.8477C116.054 22.6666 116.431 22.4188 116.757 22.1043C117.082 21.7898 117.327 21.4324 117.489 21.0321C117.327 20.6223 117.082 20.2601 116.757 19.9456C116.431 19.6311 116.054 19.3833 115.624 19.2022C115.193 19.0211 114.734 18.9306 114.246 18.9306C113.781 18.9306 113.368 19.0211 113.008 19.2022C112.648 19.3833 112.363 19.6311 112.154 19.9456C111.956 20.2601 111.857 20.6223 111.857 21.0321Z" stroke="#333333" stroke-width="2" mask="url(#path-1-outside-1_164_48)"/>
<path d="M122.2 19.1021V17.8298L124.223 17.1579L125.757 14.7418H127.78V16.9434H131.965V19.1021H127.78V21.4324C127.78 22.0519 127.925 22.4855 128.216 22.7333C128.506 22.9811 129.035 23.105 129.803 23.105C130.291 23.105 130.721 23.0717 131.093 23.005C131.476 22.9382 131.825 22.8477 132.139 22.7333V24.9206C131.779 25.0255 131.314 25.1208 130.744 25.2066C130.186 25.2923 129.599 25.3352 128.983 25.3352C127.89 25.3352 126.989 25.197 126.28 24.9206C125.583 24.6443 125.066 24.2487 124.728 23.7341C124.391 23.2099 124.223 22.5999 124.223 21.9042V19.1021H122.2ZM131.407 19.1021V16.9434H135.016L132.662 18.2872L134.964 14.7418H136.986V16.9434H141.171V19.1021H136.986V21.4324C136.986 22.0519 137.132 22.4855 137.422 22.7333C137.713 22.9811 138.248 23.105 139.027 23.105C139.515 23.105 139.945 23.0717 140.317 23.005C140.689 22.9382 141.032 22.8477 141.346 22.7333V24.9206C140.985 25.0255 140.52 25.1208 139.951 25.2066C139.393 25.2923 138.806 25.3352 138.19 25.3352C137.097 25.3352 136.196 25.197 135.487 24.9206C134.789 24.6443 134.272 24.2487 133.935 23.7341C133.598 23.2099 133.429 22.5999 133.429 21.9042V19.1021H131.407Z" stroke="#333333" stroke-width="2" mask="url(#path-1-outside-1_164_48)"/>
<path d="M148.412 25.3352C147.134 25.3352 146.018 25.1589 145.064 24.8063C144.111 24.4441 143.367 23.939 142.833 23.2909C142.298 22.6333 142.031 21.8803 142.031 21.0321C142.031 20.1648 142.298 19.4071 142.833 18.759C143.367 18.1109 144.111 17.6058 145.064 17.2436C146.018 16.8815 147.134 16.7004 148.412 16.7004C149.679 16.7004 150.789 16.8815 151.743 17.2436C152.708 17.6058 153.457 18.1109 153.992 18.759C154.527 19.4071 154.794 20.1648 154.794 21.0321C154.794 21.8803 154.527 22.6333 153.992 23.2909C153.457 23.939 152.708 24.4441 151.743 24.8063C150.789 25.1589 149.679 25.3352 148.412 25.3352ZM148.412 23.1765C148.994 23.1765 149.488 23.0907 149.894 22.9192C150.313 22.7476 150.633 22.4998 150.853 22.1758C151.074 21.8517 151.185 21.4705 151.185 21.0321C151.185 20.5746 151.074 20.1886 150.853 19.8741C150.633 19.5501 150.313 19.3023 149.894 19.1307C149.488 18.9592 148.994 18.8734 148.412 18.8734C147.831 18.8734 147.331 18.9592 146.913 19.1307C146.494 19.3023 146.175 19.5501 145.954 19.8741C145.733 20.1886 145.622 20.5699 145.622 21.0178C145.622 21.4657 145.733 21.8517 145.954 22.1758C146.175 22.4998 146.494 22.7476 146.913 22.9192C147.331 23.0907 147.831 23.1765 148.412 23.1765Z" stroke="#333333" stroke-width="2" mask="url(#path-1-outside-1_164_48)"/>
<path d="M162.222 25.3352C160.943 25.3352 159.827 25.1589 158.874 24.8063C157.921 24.4441 157.177 23.939 156.642 23.2909C156.108 22.6333 155.84 21.8803 155.84 21.0321C155.84 20.1648 156.108 19.4071 156.642 18.759C157.177 18.1109 157.921 17.6058 158.874 17.2436C159.827 16.8815 160.943 16.7004 162.222 16.7004C163.489 16.7004 164.599 16.8815 165.552 17.2436C166.517 17.6058 167.267 18.1109 167.802 18.759C168.336 19.4071 168.604 20.1648 168.604 21.0321C168.604 21.8803 168.336 22.6333 167.802 23.2909C167.267 23.939 166.517 24.4441 165.552 24.8063C164.599 25.1589 163.489 25.3352 162.222 25.3352ZM162.222 23.1765C162.803 23.1765 163.297 23.0907 163.704 22.9192C164.123 22.7476 164.442 22.4998 164.663 22.1758C164.884 21.8517 164.994 21.4705 164.994 21.0321C164.994 20.5746 164.884 20.1886 164.663 19.8741C164.442 19.5501 164.123 19.3023 163.704 19.1307C163.297 18.9592 162.803 18.8734 162.222 18.8734C161.641 18.8734 161.141 18.9592 160.722 19.1307C160.304 19.3023 159.984 19.5501 159.763 19.8741C159.543 20.1886 159.432 20.5699 159.432 21.0178C159.432 21.4657 159.543 21.8517 159.763 22.1758C159.984 22.4998 160.304 22.7476 160.722 22.9192C161.141 23.0907 161.641 23.1765 162.222 23.1765Z" stroke="#333333" stroke-width="2" mask="url(#path-1-outside-1_164_48)"/>
<path d="M178.282 14.3844V23.7912L176.66 22.476H186.442V25.1065H174.672V14.3844H178.282Z" stroke="#333333" stroke-width="2" mask="url(#path-1-outside-1_164_48)"/>
<path d="M190.534 23.0479V20.6604H199.549V23.0479H190.534ZM197.491 14.3844L203.437 25.1065H199.584L194.597 15.6425H195.643L190.639 25.1065H186.785L192.731 14.3844H197.491Z" stroke="#333333" stroke-width="2" mask="url(#path-1-outside-1_164_48)"/>
<path d="M202.759 19.3595L204.503 16.3573L204.712 17.4295C204.34 17.4295 204.003 17.358 203.701 17.215C203.399 17.0721 203.161 16.8815 202.986 16.6432C202.812 16.3954 202.725 16.1238 202.725 15.8283C202.725 15.5329 202.812 15.266 202.986 15.0277C203.161 14.7895 203.399 14.5988 203.701 14.4559C204.003 14.3129 204.34 14.2414 204.712 14.2414C205.084 14.2414 205.416 14.3129 205.706 14.4559C206.009 14.5988 206.247 14.7942 206.421 15.042C206.596 15.2803 206.683 15.5519 206.683 15.8569C206.683 16.1428 206.601 16.4478 206.439 16.7719C206.276 17.0959 205.991 17.501 205.584 17.987L204.468 19.3595H202.759ZM207.398 19.3595L209.141 16.3573L209.351 17.4295C208.979 17.4295 208.641 17.358 208.339 17.215C208.037 17.0721 207.799 16.8815 207.624 16.6432C207.45 16.3954 207.363 16.1238 207.363 15.8283C207.363 15.5329 207.45 15.266 207.624 15.0277C207.799 14.7895 208.037 14.5988 208.339 14.4559C208.641 14.3129 208.979 14.2414 209.351 14.2414C209.723 14.2414 210.054 14.3129 210.344 14.4559C210.647 14.5988 210.885 14.7942 211.059 15.042C211.234 15.2803 211.321 15.5519 211.321 15.8569C211.321 16.1428 211.239 16.4478 211.077 16.7719C210.914 17.0959 210.629 17.501 210.222 17.987L209.106 19.3595H207.398Z" stroke="#333333" stroke-width="2" mask="url(#path-1-outside-1_164_48)"/>
<path d="M41.2387 27.8942C40.6502 27.8942 40.1017 27.8168 39.5931 27.6619C39.0918 27.5011 38.6559 27.2747 38.2854 26.9829C37.9149 26.691 37.6243 26.3485 37.4136 25.9553C37.2101 25.5622 37.1084 25.1303 37.1084 24.6597C37.1084 24.1892 37.2101 23.7573 37.4136 23.3642C37.6243 22.971 37.9149 22.6285 38.2854 22.3366C38.6632 22.0447 39.1027 21.8214 39.604 21.6665C40.1053 21.5057 40.6539 21.4252 41.2496 21.4252C41.9108 21.4252 42.5065 21.5206 43.0369 21.7112C43.5745 21.8958 44.025 22.1698 44.3882 22.5332L43.2548 23.391C42.9933 23.1467 42.7027 22.9651 42.383 22.8459C42.0633 22.7208 41.7146 22.6583 41.3368 22.6583C40.9808 22.6583 40.6539 22.7059 40.356 22.8012C40.0581 22.8966 39.8002 23.0336 39.5822 23.2123C39.3643 23.391 39.1936 23.6024 39.0701 23.8466C38.9538 24.0909 38.8957 24.3619 38.8957 24.6597C38.8957 24.9576 38.9538 25.2286 39.0701 25.4728C39.1936 25.7171 39.3643 25.9285 39.5822 26.1072C39.8002 26.2859 40.0581 26.4229 40.356 26.5182C40.6539 26.6135 40.9808 26.6612 41.3368 26.6612C41.7146 26.6612 42.0633 26.6016 42.383 26.4825C42.7027 26.3574 42.9933 26.1698 43.2548 25.9196L44.3882 26.7774C44.025 27.1407 43.5745 27.4177 43.0369 27.6083C42.5065 27.7989 41.9071 27.8942 41.2387 27.8942Z" stroke="#333333" stroke-width="2" mask="url(#path-1-outside-1_164_48)"/>
<path d="M47.796 27.8585C47.3092 27.8585 46.8733 27.7811 46.4883 27.6262C46.1105 27.4713 45.8162 27.236 45.6055 26.9203C45.3948 26.5987 45.2895 26.1906 45.2895 25.6962V22.9799H46.9896V25.4907C46.9896 25.8898 47.0913 26.1847 47.2947 26.3753C47.5054 26.5599 47.7996 26.6523 48.1774 26.6523C48.439 26.6523 48.6715 26.6076 48.8749 26.5182C49.0783 26.4229 49.2382 26.28 49.3544 26.0894C49.4707 25.8928 49.5288 25.6486 49.5288 25.3567V22.9799H51.2289V27.787H49.616V26.4646L49.9102 26.8488C49.714 27.1824 49.4234 27.4356 49.0384 27.6083C48.6606 27.7751 48.2465 27.8585 47.796 27.8585Z" stroke="#333333" stroke-width="2" mask="url(#path-1-outside-1_164_48)"/>
<path d="M54.7764 27.8585C54.2751 27.8585 53.7919 27.8108 53.3269 27.7155C52.8692 27.6143 52.506 27.4892 52.2372 27.3403L52.8038 26.3395C53.0727 26.4765 53.3887 26.5897 53.752 26.6791C54.1225 26.7625 54.4858 26.8042 54.8418 26.8042C55.2341 26.8042 55.5102 26.7654 55.67 26.688C55.8371 26.6106 55.9206 26.5033 55.9206 26.3663C55.9206 26.2532 55.8553 26.1698 55.7245 26.1162C55.601 26.0566 55.4339 26.0119 55.2232 25.9821C55.0125 25.9523 54.78 25.9226 54.5257 25.8928C54.2787 25.863 54.028 25.8243 53.7738 25.7766C53.5195 25.723 53.287 25.6456 53.0763 25.5443C52.8656 25.443 52.6949 25.306 52.5641 25.1333C52.4406 24.9606 52.3788 24.7372 52.3788 24.4632C52.3788 24.1594 52.4842 23.8913 52.6949 23.659C52.9128 23.4267 53.2252 23.245 53.6321 23.114C54.0389 22.977 54.5257 22.9085 55.0924 22.9085C55.492 22.9085 55.8988 22.9442 56.313 23.0157C56.7271 23.0872 57.0722 23.1914 57.3483 23.3284L56.7816 24.3202C56.4982 24.1832 56.2113 24.0909 55.9206 24.0432C55.6373 23.9896 55.3612 23.9628 55.0924 23.9628C54.7146 23.9628 54.4385 24.0045 54.2642 24.0879C54.0898 24.1713 54.0026 24.2785 54.0026 24.4096C54.0026 24.5287 54.0644 24.618 54.1879 24.6776C54.3187 24.7372 54.4894 24.7848 54.7001 24.8206C54.9108 24.8563 55.1396 24.8891 55.3866 24.9189C55.6409 24.9427 55.8952 24.9814 56.1495 25.035C56.4038 25.0886 56.6326 25.1661 56.8361 25.2673C57.0468 25.3626 57.2175 25.4967 57.3483 25.6694C57.479 25.8362 57.5444 26.0566 57.5444 26.3306C57.5444 26.6284 57.4354 26.8935 57.2175 27.1258C56.9995 27.3522 56.6835 27.5309 56.2694 27.6619C55.8625 27.793 55.3649 27.8585 54.7764 27.8585Z" stroke="#333333" stroke-width="2" mask="url(#path-1-outside-1_164_48)"/>
<path d="M60.9909 27.8585C60.3007 27.8585 59.7631 27.7155 59.378 27.4296C58.9929 27.1377 58.8004 26.7059 58.8004 26.134V21.9167H60.5005V26.1162C60.5005 26.3187 60.5659 26.4765 60.6966 26.5897C60.8274 26.6969 61.0054 26.7505 61.2306 26.7505C61.4995 26.7505 61.7283 26.691 61.9172 26.5718L62.3749 27.5547C62.2005 27.656 61.9899 27.7334 61.7428 27.787C61.5031 27.8347 61.2524 27.8585 60.9909 27.8585ZM57.8959 24.1594V23.0872H61.9608V24.1594H57.8959Z" stroke="#333333" stroke-width="2" mask="url(#path-1-outside-1_164_48)"/>
<path d="M65.9382 27.8585C65.3134 27.8585 64.7576 27.7513 64.2708 27.5368C63.7913 27.3224 63.4099 27.0305 63.1265 26.6612C62.8504 26.2859 62.7124 25.86 62.7124 25.3835C62.7124 24.901 62.8504 24.4751 63.1265 24.1058C63.4099 23.7305 63.7913 23.4386 64.2708 23.2301C64.7576 23.0157 65.3134 22.9085 65.9382 22.9085C66.5557 22.9085 67.1079 23.0157 67.5947 23.2301C68.0814 23.4386 68.4629 23.7275 68.7389 24.0968C69.015 24.4661 69.1531 24.895 69.1531 25.3835C69.1531 25.86 69.015 26.2859 68.7389 26.6612C68.4629 27.0305 68.0814 27.3224 67.5947 27.5368C67.1079 27.7513 66.5557 27.8585 65.9382 27.8585ZM65.9382 26.7148C66.2215 26.7148 66.4758 26.6612 66.701 26.554C66.9263 26.4468 67.1043 26.2949 67.235 26.0983C67.3658 25.8958 67.4312 25.6575 67.4312 25.3835C67.4312 25.1035 67.3658 24.8652 67.235 24.6687C67.1043 24.4721 66.9263 24.3202 66.701 24.213C66.4758 24.1058 66.2215 24.0522 65.9382 24.0522C65.6548 24.0522 65.4006 24.1058 65.1753 24.213C64.9501 24.3202 64.7685 24.4721 64.6304 24.6687C64.4997 24.8652 64.4343 25.1035 64.4343 25.3835C64.4343 25.6575 64.4997 25.8958 64.6304 26.0983C64.7685 26.2949 64.9501 26.4468 65.1753 26.554C65.4006 26.6612 65.6548 26.7148 65.9382 26.7148Z" stroke="#333333" stroke-width="2" mask="url(#path-1-outside-1_164_48)"/>
<path d="M77.7981 22.9085C78.263 22.9085 78.6735 22.9859 79.0295 23.1408C79.3928 23.2897 79.6761 23.522 79.8796 23.8377C80.0902 24.1475 80.1956 24.5466 80.1956 25.035V27.787H78.4955V25.2495C78.4955 24.8623 78.3974 24.5763 78.2013 24.3917C78.0051 24.207 77.729 24.1147 77.373 24.1147C77.126 24.1147 76.9044 24.1624 76.7083 24.2577C76.5121 24.347 76.3595 24.484 76.2506 24.6687C76.1416 24.8533 76.0871 25.0886 76.0871 25.3745V27.787H74.387V25.2495C74.387 24.8623 74.2889 24.5763 74.0928 24.3917C73.9039 24.207 73.6314 24.1147 73.2754 24.1147C73.0284 24.1147 72.8068 24.1624 72.6107 24.2577C72.4145 24.347 72.2619 24.484 72.1529 24.6687C72.044 24.8533 71.9895 25.0886 71.9895 25.3745V27.787H70.2894V22.9799H71.9132V24.2934L71.6081 23.9092C71.8115 23.5816 72.0985 23.3344 72.469 23.1676C72.8468 22.9948 73.2754 22.9085 73.7549 22.9085C74.2926 22.9085 74.7612 23.0216 75.1608 23.248C75.5676 23.4684 75.8364 23.8079 75.9672 24.2666L75.3678 24.1326C75.564 23.7573 75.8764 23.4595 76.305 23.2391C76.741 23.0187 77.2386 22.9085 77.7981 22.9085Z" stroke="#333333" stroke-width="2" mask="url(#path-1-outside-1_164_48)"/>
<path d="M121.883 41.2968C121.295 41.2968 120.746 41.2194 120.237 41.0645C119.736 40.9037 119.3 40.6773 118.93 40.3855C118.559 40.0936 118.269 39.7511 118.058 39.3579C117.854 38.9648 117.753 38.5329 117.753 38.0624C117.753 37.5918 117.854 37.1599 118.058 36.7668C118.269 36.3736 118.559 36.0311 118.93 35.7392C119.308 35.4474 119.747 35.224 120.248 35.0691C120.75 34.9083 121.298 34.8279 121.894 34.8279C122.555 34.8279 123.151 34.9232 123.681 35.1138C124.219 35.2984 124.669 35.5724 125.033 35.9358L123.899 36.7936C123.638 36.5493 123.347 36.3677 123.027 36.2485C122.708 36.1234 122.359 36.0609 121.981 36.0609C121.625 36.0609 121.298 36.1085 121 36.2039C120.702 36.2992 120.445 36.4362 120.227 36.6149C120.009 36.7936 119.838 37.005 119.714 37.2493C119.598 37.4935 119.54 37.7645 119.54 38.0624C119.54 38.3602 119.598 38.6312 119.714 38.8754C119.838 39.1197 120.009 39.3311 120.227 39.5098C120.445 39.6885 120.702 39.8255 121 39.9208C121.298 40.0162 121.625 40.0638 121.981 40.0638C122.359 40.0638 122.708 40.0042 123.027 39.8851C123.347 39.76 123.638 39.5724 123.899 39.3222L125.033 40.18C124.669 40.5433 124.219 40.8203 123.681 41.0109C123.151 41.2015 122.551 41.2968 121.883 41.2968Z" stroke="#333333" stroke-width="2" mask="url(#path-1-outside-1_164_48)"/>
<path d="M128.693 41.2611C128.068 41.2611 127.512 41.1539 127.025 40.9394C126.546 40.725 126.164 40.4331 125.881 40.0638C125.605 39.6885 125.467 39.2626 125.467 38.7861C125.467 38.3036 125.605 37.8777 125.881 37.5084C126.164 37.1331 126.546 36.8412 127.025 36.6327C127.512 36.4183 128.068 36.3111 128.693 36.3111C129.31 36.3111 129.862 36.4183 130.349 36.6327C130.836 36.8412 131.217 37.1301 131.493 37.4994C131.769 37.8688 131.907 38.2976 131.907 38.7861C131.907 39.2626 131.769 39.6885 131.493 40.0638C131.217 40.4331 130.836 40.725 130.349 40.9394C129.862 41.1539 129.31 41.2611 128.693 41.2611ZM128.693 40.1174C128.976 40.1174 129.23 40.0638 129.455 39.9566C129.681 39.8494 129.859 39.6975 129.989 39.5009C130.12 39.2984 130.186 39.0601 130.186 38.7861C130.186 38.5061 130.12 38.2679 129.989 38.0713C129.859 37.8747 129.681 37.7228 129.455 37.6156C129.23 37.5084 128.976 37.4548 128.693 37.4548C128.409 37.4548 128.155 37.5084 127.93 37.6156C127.704 37.7228 127.523 37.8747 127.385 38.0713C127.254 38.2679 127.189 38.5061 127.189 38.7861C127.189 39.0601 127.254 39.2984 127.385 39.5009C127.523 39.6975 127.704 39.8494 127.93 39.9566C128.155 40.0638 128.409 40.1174 128.693 40.1174Z" stroke="#333333" stroke-width="2" mask="url(#path-1-outside-1_164_48)"/>
<path d="M136.607 36.3111C137.072 36.3111 137.486 36.3885 137.85 36.5434C138.22 36.6923 138.511 36.9246 138.722 37.2403C138.932 37.5501 139.038 37.9492 139.038 38.4376V41.1896H137.338V38.6521C137.338 38.2649 137.232 37.979 137.021 37.7943C136.818 37.6096 136.527 37.5173 136.15 37.5173C135.881 37.5173 135.637 37.565 135.419 37.6603C135.209 37.7496 135.042 37.8896 134.918 38.0802C134.802 38.2708 134.744 38.5151 134.744 38.8129V41.1896H133.044V36.3826H134.668V37.7139L134.362 37.3118C134.573 36.9901 134.875 36.7429 135.267 36.5702C135.659 36.3974 136.106 36.3111 136.607 36.3111Z" stroke="#333333" stroke-width="2" mask="url(#path-1-outside-1_164_48)"/>
<path d="M143.455 41.2611C142.823 41.2611 142.259 41.1569 141.765 40.9484C141.271 40.7339 140.883 40.4391 140.599 40.0638C140.323 39.6885 140.185 39.2626 140.185 38.7861C140.185 38.3036 140.323 37.8777 140.599 37.5084C140.883 37.1331 141.271 36.8412 141.765 36.6327C142.259 36.4183 142.823 36.3111 143.455 36.3111C144.072 36.3111 144.61 36.4183 145.068 36.6327C145.525 36.8412 145.863 37.142 146.081 37.5352L144.762 38.116C144.61 37.8896 144.417 37.7228 144.185 37.6156C143.96 37.5084 143.713 37.4548 143.444 37.4548C143.153 37.4548 142.892 37.5084 142.659 37.6156C142.427 37.7228 142.241 37.8747 142.103 38.0713C141.973 38.2679 141.907 38.5061 141.907 38.7861C141.907 39.0661 141.973 39.3043 142.103 39.5009C142.241 39.6975 142.427 39.8494 142.659 39.9566C142.892 40.0638 143.153 40.1174 143.444 40.1174C143.713 40.1174 143.96 40.0668 144.185 39.9655C144.417 39.8583 144.61 39.6885 144.762 39.4562L146.081 40.0459C145.863 40.4331 145.525 40.7339 145.068 40.9484C144.61 41.1569 144.072 41.2611 143.455 41.2611Z" stroke="#333333" stroke-width="2" mask="url(#path-1-outside-1_164_48)"/>
<path d="M149.895 41.2611C149.227 41.2611 148.638 41.1539 148.13 40.9394C147.628 40.725 147.24 40.4331 146.964 40.0638C146.688 39.6885 146.549 39.2626 146.549 38.7861C146.549 38.3036 146.684 37.8777 146.953 37.5084C147.229 37.1331 147.603 36.8412 148.075 36.6327C148.547 36.4183 149.081 36.3111 149.677 36.3111C150.251 36.3111 150.767 36.4123 151.225 36.6149C151.69 36.8114 152.057 37.0974 152.325 37.4726C152.594 37.842 152.729 38.2857 152.729 38.804C152.729 38.8576 152.725 38.9201 152.718 38.9916C152.71 39.0571 152.703 39.1197 152.696 39.1792H147.933V38.3661H151.802L151.148 38.6074C151.148 38.3572 151.087 38.1398 150.963 37.9551C150.84 37.7705 150.669 37.6275 150.451 37.5262C150.233 37.419 149.979 37.3654 149.688 37.3654C149.397 37.3654 149.14 37.419 148.914 37.5262C148.696 37.6275 148.526 37.7734 148.402 37.9641C148.279 38.1487 148.217 38.3691 148.217 38.6253V38.8397C148.217 39.1018 148.286 39.3341 148.424 39.5366C148.569 39.7332 148.769 39.8851 149.023 39.9923C149.285 40.0936 149.59 40.1442 149.939 40.1442C150.251 40.1442 150.524 40.1055 150.756 40.0281C150.996 39.9506 151.214 39.8345 151.41 39.6796L152.314 40.4838C152.046 40.7339 151.708 40.9275 151.301 41.0645C150.894 41.1956 150.425 41.2611 149.895 41.2611Z" stroke="#333333" stroke-width="2" mask="url(#path-1-outside-1_164_48)"/>
<path d="M157.326 41.2611C156.832 41.2611 156.4 41.1718 156.029 40.9931C155.659 40.8144 155.368 40.5433 155.157 40.18C154.954 39.8106 154.852 39.346 154.852 38.7861C154.852 38.2202 154.95 37.7556 155.146 37.3922C155.343 37.0289 155.626 36.7578 155.996 36.5791C156.367 36.4004 156.81 36.3111 157.326 36.3111C157.878 36.3111 158.372 36.4153 158.808 36.6238C159.251 36.8263 159.6 37.1123 159.854 37.4816C160.116 37.8509 160.247 38.2857 160.247 38.7861C160.247 39.2924 160.116 39.7302 159.854 40.0995C159.6 40.4689 159.251 40.7548 158.808 40.9573C158.372 41.1598 157.878 41.2611 157.326 41.2611ZM153.86 42.923V36.3826H155.484V37.3654L155.451 38.795L155.56 40.2157V42.923H153.86ZM157.032 40.1174C157.315 40.1174 157.566 40.0638 157.784 39.9566C158.009 39.8494 158.187 39.6975 158.318 39.5009C158.456 39.2984 158.525 39.0601 158.525 38.7861C158.525 38.5061 158.456 38.2679 158.318 38.0713C158.187 37.8747 158.009 37.7228 157.784 37.6156C157.566 37.5084 157.315 37.4548 157.032 37.4548C156.748 37.4548 156.494 37.5084 156.269 37.6156C156.044 37.7228 155.866 37.8747 155.735 38.0713C155.604 38.2679 155.539 38.5061 155.539 38.7861C155.539 39.0601 155.604 39.2984 155.735 39.5009C155.866 39.6975 156.044 39.8494 156.269 39.9566C156.494 40.0638 156.748 40.1174 157.032 40.1174Z" stroke="#333333" stroke-width="2" mask="url(#path-1-outside-1_164_48)"/>
<path d="M163.782 41.2611C163.092 41.2611 162.554 41.1181 162.169 40.8322C161.784 40.5403 161.592 40.1085 161.592 39.5366V35.3193H163.292V39.5188C163.292 39.7213 163.357 39.8791 163.488 39.9923C163.619 40.0995 163.797 40.1532 164.022 40.1532C164.291 40.1532 164.52 40.0936 164.708 39.9745L165.166 40.9573C164.992 41.0586 164.781 41.136 164.534 41.1896C164.294 41.2373 164.044 41.2611 163.782 41.2611ZM160.687 37.562V36.4898H164.752V37.562H160.687Z" stroke="#333333" stroke-width="2" mask="url(#path-1-outside-1_164_48)"/>
<path d="M168.093 41.2611C167.592 41.2611 167.109 41.2135 166.644 41.1181C166.186 41.0169 165.823 40.8918 165.554 40.7429L166.121 39.7421C166.389 39.8791 166.705 39.9923 167.069 40.0817C167.439 40.1651 167.802 40.2068 168.158 40.2068C168.551 40.2068 168.827 40.168 168.987 40.0906C169.154 40.0132 169.237 39.906 169.237 39.7689C169.237 39.6558 169.172 39.5724 169.041 39.5188C168.918 39.4592 168.751 39.4145 168.54 39.3847C168.329 39.355 168.097 39.3252 167.842 39.2954C167.595 39.2656 167.345 39.2269 167.09 39.1792C166.836 39.1256 166.604 39.0482 166.393 38.9469C166.182 38.8457 166.012 38.7087 165.881 38.5359C165.757 38.3632 165.695 38.1398 165.695 37.8658C165.695 37.562 165.801 37.2939 166.012 37.0616C166.23 36.8293 166.542 36.6476 166.949 36.5166C167.356 36.3796 167.842 36.3111 168.409 36.3111C168.809 36.3111 169.216 36.3468 169.63 36.4183C170.044 36.4898 170.389 36.594 170.665 36.731L170.098 37.7228C169.815 37.5858 169.528 37.4935 169.237 37.4458C168.954 37.3922 168.678 37.3654 168.409 37.3654C168.031 37.3654 167.755 37.4071 167.581 37.4905C167.406 37.5739 167.319 37.6811 167.319 37.8122C167.319 37.9313 167.381 38.0207 167.505 38.0802C167.635 38.1398 167.806 38.1874 168.017 38.2232C168.227 38.2589 168.456 38.2917 168.703 38.3215C168.958 38.3453 169.212 38.384 169.466 38.4376C169.72 38.4912 169.949 38.5687 170.153 38.6699C170.363 38.7652 170.534 38.8993 170.665 39.072C170.796 39.2388 170.861 39.4592 170.861 39.7332C170.861 40.031 170.752 40.2961 170.534 40.5284C170.316 40.7548 170 40.9335 169.586 41.0645C169.179 41.1956 168.682 41.2611 168.093 41.2611Z" stroke="#333333" stroke-width="2" mask="url(#path-1-outside-1_164_48)"/>
<path d="M220.999 29.6813C220.389 29.6813 219.804 29.6157 219.245 29.4847C218.685 29.3477 218.235 29.172 217.893 28.9575L218.493 27.8674C218.82 28.058 219.205 28.2159 219.648 28.341C220.098 28.4601 220.552 28.5197 221.01 28.5197C221.359 28.5197 221.639 28.4929 221.849 28.4393C222.067 28.3797 222.227 28.2993 222.329 28.198C222.431 28.0968 222.481 27.9806 222.481 27.8496C222.481 27.6828 222.401 27.5517 222.242 27.4564C222.082 27.3552 221.871 27.2747 221.61 27.2152C221.348 27.1496 221.057 27.0901 220.738 27.0365C220.425 26.9769 220.109 26.9054 219.79 26.822C219.477 26.7386 219.19 26.6314 218.929 26.5004C218.667 26.3693 218.453 26.1966 218.286 25.9821C218.126 25.7677 218.046 25.4937 218.046 25.1601C218.046 24.8027 218.162 24.4781 218.395 24.1862C218.634 23.8883 218.99 23.6531 219.463 23.4803C219.942 23.3016 220.542 23.2123 221.261 23.2123C221.74 23.2123 222.213 23.2599 222.678 23.3552C223.143 23.4446 223.553 23.5816 223.909 23.7662L223.364 24.8652C223.008 24.6985 222.652 24.5763 222.296 24.4989C221.94 24.4155 221.591 24.3738 221.25 24.3738C220.908 24.3738 220.629 24.4066 220.411 24.4721C220.193 24.5376 220.037 24.624 219.942 24.7312C219.848 24.8325 219.801 24.9516 219.801 25.0886C219.801 25.2495 219.88 25.3805 220.04 25.4818C220.2 25.5771 220.411 25.6545 220.672 25.7141C220.934 25.7736 221.221 25.8332 221.533 25.8928C221.853 25.9523 222.169 26.0208 222.481 26.0983C222.801 26.1757 223.092 26.28 223.353 26.411C223.615 26.5421 223.825 26.7148 223.985 26.9292C224.152 27.1437 224.236 27.4147 224.236 27.7423C224.236 28.0938 224.116 28.4154 223.876 28.7073C223.637 28.9992 223.277 29.2345 222.797 29.4132C222.325 29.5919 221.726 29.6813 220.999 29.6813Z" stroke="#333333" stroke-width="2" mask="url(#path-1-outside-1_164_48)"/>
<path d="M227.72 29.6455C227.03 29.6455 226.492 29.5025 226.107 29.2166C225.722 28.9247 225.529 28.4929 225.529 27.921V23.7037H227.23V27.9032C227.23 28.1057 227.295 28.2636 227.426 28.3767C227.556 28.484 227.734 28.5376 227.96 28.5376C228.229 28.5376 228.457 28.478 228.646 28.3589L229.104 29.3417C228.93 29.443 228.719 29.5204 228.472 29.574C228.232 29.6217 227.981 29.6455 227.72 29.6455ZM224.625 25.9464V24.8742H228.69V25.9464H224.625Z" stroke="#333333" stroke-width="2" mask="url(#path-1-outside-1_164_48)"/>
<path d="M232.532 29.6455C232.045 29.6455 231.609 29.5681 231.224 29.4132C230.847 29.2583 230.552 29.023 230.342 28.7073C230.131 28.3857 230.026 27.9776 230.026 27.4832V24.767H231.726V27.2777C231.726 27.6768 231.827 27.9717 232.031 28.1623C232.242 28.3469 232.536 28.4393 232.914 28.4393C233.175 28.4393 233.408 28.3946 233.611 28.3052C233.814 28.2099 233.974 28.067 234.091 27.8764C234.207 27.6798 234.265 27.4356 234.265 27.1437V24.767H235.965V29.574H234.352V28.2516L234.646 28.6358C234.45 28.9694 234.16 29.2226 233.774 29.3953C233.397 29.5621 232.983 29.6455 232.532 29.6455Z" stroke="#333333" stroke-width="2" mask="url(#path-1-outside-1_164_48)"/>
<path d="M240.057 29.6455C239.505 29.6455 239.008 29.5442 238.564 29.3417C238.121 29.1332 237.769 28.8443 237.507 28.475C237.253 28.1057 237.126 27.6709 237.126 27.1705C237.126 26.6642 237.253 26.2264 237.507 25.857C237.769 25.4877 238.121 25.2018 238.564 24.9993C239.008 24.7967 239.505 24.6955 240.057 24.6955C240.551 24.6955 240.984 24.7848 241.354 24.9635C241.725 25.1422 242.012 25.4133 242.215 25.7766C242.419 26.14 242.52 26.6046 242.52 27.1705C242.52 27.7304 242.422 28.1951 242.226 28.5644C242.03 28.9277 241.747 29.1988 241.376 29.3775C241.013 29.5562 240.573 29.6455 240.057 29.6455ZM240.352 28.5018C240.628 28.5018 240.878 28.4482 241.104 28.341C241.329 28.2338 241.507 28.0819 241.638 27.8853C241.776 27.6828 241.845 27.4445 241.845 27.1705C241.845 26.8905 241.776 26.6523 241.638 26.4557C241.507 26.2591 241.329 26.1072 241.104 26C240.878 25.8928 240.628 25.8392 240.352 25.8392C240.068 25.8392 239.814 25.8928 239.589 26C239.364 26.1072 239.182 26.2591 239.044 26.4557C238.913 26.6523 238.848 26.8905 238.848 27.1705C238.848 27.4445 238.913 27.6828 239.044 27.8853C239.182 28.0819 239.364 28.2338 239.589 28.341C239.814 28.4482 240.068 28.5018 240.352 28.5018ZM241.888 29.574V28.5912L241.921 27.1616L241.812 25.7409V22.9442H243.512V29.574H241.888Z" stroke="#333333" stroke-width="2" mask="url(#path-1-outside-1_164_48)"/>
<path d="M245.085 29.574V24.767H246.786V29.574H245.085ZM245.936 24.0968C245.623 24.0968 245.369 24.0224 245.173 23.8735C244.976 23.7245 244.878 23.5399 244.878 23.3195C244.878 23.0991 244.976 22.9144 245.173 22.7655C245.369 22.6166 245.623 22.5421 245.936 22.5421C246.248 22.5421 246.502 22.6136 246.698 22.7566C246.895 22.8936 246.993 23.0723 246.993 23.2927C246.993 23.525 246.895 23.7186 246.698 23.8735C246.509 24.0224 246.255 24.0968 245.936 24.0968Z" stroke="#333333" stroke-width="2" mask="url(#path-1-outside-1_164_48)"/>
<path d="M251.153 29.6455C250.528 29.6455 249.973 29.5383 249.486 29.3238C249.006 29.1094 248.625 28.8175 248.342 28.4482C248.065 28.0729 247.927 27.647 247.927 27.1705C247.927 26.688 248.065 26.2621 248.342 25.8928C248.625 25.5175 249.006 25.2256 249.486 25.0171C249.973 24.8027 250.528 24.6955 251.153 24.6955C251.771 24.6955 252.323 24.8027 252.81 25.0171C253.296 25.2256 253.678 25.5145 253.954 25.8838C254.23 26.2532 254.368 26.682 254.368 27.1705C254.368 27.647 254.23 28.0729 253.954 28.4482C253.678 28.8175 253.296 29.1094 252.81 29.3238C252.323 29.5383 251.771 29.6455 251.153 29.6455ZM251.153 28.5018C251.437 28.5018 251.691 28.4482 251.916 28.341C252.141 28.2338 252.319 28.0819 252.45 27.8853C252.581 27.6828 252.646 27.4445 252.646 27.1705C252.646 26.8905 252.581 26.6523 252.45 26.4557C252.319 26.2591 252.141 26.1072 251.916 26C251.691 25.8928 251.437 25.8392 251.153 25.8392C250.87 25.8392 250.616 25.8928 250.39 26C250.165 26.1072 249.983 26.2591 249.845 26.4557C249.715 26.6523 249.649 26.8905 249.649 27.1705C249.649 27.4445 249.715 27.6828 249.845 27.8853C249.983 28.0819 250.165 28.2338 250.39 28.341C250.616 28.4482 250.87 28.5018 251.153 28.5018Z" stroke="#333333" stroke-width="2" mask="url(#path-1-outside-1_164_48)"/>
</svg>
