<svg width="153" height="19" viewBox="0 0 153 19" fill="none" xmlns="http://www.w3.org/2000/svg">
<path d="M4.84164 16L0.0816406 1.72H2.68164L6.26164 13.02H6.30164L9.96164 1.72H12.5016L7.62164 16H4.84164ZM13.9282 16V1.72H16.4282V16H13.9282ZM18.1346 3.88V1.72H29.6946V3.88H25.1546V16H22.6546V3.88H18.1346ZM31.3501 16V1.72H41.6301V3.88H33.8501V7.62H41.0501V9.66H33.8501V13.84H41.7701V16H31.3501ZM43.1877 8.86C43.1877 4.8 45.7677 1.38 50.0277 1.38C53.2677 1.38 55.7677 3.18 56.0877 6.26H53.5877C53.1677 4.6 52.1077 3.42 50.0277 3.42C46.9677 3.42 45.6877 6.12 45.6877 8.86C45.6877 11.6 46.9677 14.3 50.0277 14.3C52.2677 14.3 53.4477 12.64 53.6677 10.56H56.1077C55.8877 13.98 53.4877 16.34 50.0277 16.34C45.7677 16.34 43.1877 12.96 43.1877 8.86ZM58.3213 16V1.72H60.8213V7.4H67.3213V1.72H69.8213V16H67.3213V9.56H60.8213V16H58.3213ZM78.3813 16V1.72H88.6613V3.88H80.8813V7.62H88.0813V9.66H80.8813V13.84H88.8013V16H78.3813ZM90.939 16V1.72H94.459L98.399 12.9H98.439L102.279 1.72H105.759V16H103.379V4.98H103.339L99.379 16H97.319L93.359 4.98H93.319V16H90.939ZM108.752 16V1.72H115.052C119.132 1.72 119.912 4.36 119.912 6.14C119.912 7.92 119.132 10.52 115.052 10.52H111.252V16H108.752ZM111.252 3.76V8.48H114.912C116.032 8.48 117.412 7.92 117.412 6.12C117.412 4.24 116.272 3.76 114.952 3.76H111.252ZM122.092 16V1.72H124.592V16H122.092ZM127.659 16V1.72H137.939V3.88H130.159V7.62H137.359V9.66H130.159V13.84H138.079V16H127.659ZM140.256 16V1.72H147.076C150.216 1.72 151.796 3.16 151.796 5.58C151.796 8.32 149.916 9.02 149.436 9.18V9.22C150.296 9.32 151.556 10 151.556 12.24C151.556 13.92 151.796 15.42 152.336 16H149.656C149.276 15.38 149.276 14.6 149.276 13.9C149.276 11.28 148.736 10.12 146.436 10.12H142.756V16H140.256ZM142.756 3.76V8.22H146.856C148.456 8.22 149.296 7.46 149.296 5.94C149.296 4.1 148.116 3.76 146.816 3.76H142.756Z" fill="#333333"/>
</svg>
