<svg width="14" height="22" viewBox="0 0 14 22" fill="none" xmlns="http://www.w3.org/2000/svg">
<g clip-path="url(#clip0_183_37)">
<path d="M2.78125 4.90625C3.04013 4.90625 3.25 4.69638 3.25 4.4375C3.25 4.17862 3.04013 3.96875 2.78125 3.96875C2.52237 3.96875 2.3125 4.17862 2.3125 4.4375C2.3125 4.69638 2.52237 4.90625 2.78125 4.90625Z" fill="#FDFDFD"/>
<path d="M5.58887 19.4375H7.47324C7.59756 19.4375 7.71679 19.3881 7.8047 19.3002C7.8926 19.2123 7.94199 19.0931 7.94199 18.9688C7.94199 18.8444 7.8926 18.7252 7.8047 18.6373C7.71679 18.5494 7.59756 18.5 7.47324 18.5H5.58887C5.46455 18.5 5.34532 18.5494 5.25741 18.6373C5.1695 18.7252 5.12012 18.8444 5.12012 18.9688C5.12012 19.0931 5.1695 19.2123 5.25741 19.3002C5.34532 19.3881 5.46455 19.4375 5.58887 19.4375Z" fill="#FDFDFD"/>
<path d="M11.6866 0.6875H2.31344C2.12834 0.687376 1.94503 0.723798 1.77403 0.794677C1.60303 0.865556 1.44771 0.969498 1.31697 1.10054C1.18624 1.23158 1.08266 1.38715 1.01218 1.55831C0.941696 1.72947 0.905701 1.91286 0.906256 2.09797V19.9016C0.905887 20.0866 0.942005 20.27 1.01255 20.4411C1.08309 20.6122 1.18667 20.7677 1.31736 20.8987C1.44805 21.0298 1.6033 21.1338 1.77422 21.2048C1.94513 21.2758 2.12837 21.3124 2.31344 21.3125H11.6866C11.8717 21.3126 12.055 21.2762 12.226 21.2053C12.397 21.1344 12.5523 21.0305 12.683 20.8995C12.8138 20.7684 12.9174 20.6129 12.9878 20.4417C13.0583 20.2705 13.0943 20.0871 13.0938 19.902V15.2188C13.0938 15.0944 13.0444 14.9752 12.9565 14.8873C12.8686 14.7994 12.7493 14.75 12.625 14.75C12.5007 14.75 12.3815 14.7994 12.2936 14.8873C12.2056 14.9752 12.1563 15.0944 12.1563 15.2188V16.625H1.84376V2.09797C1.8432 2.03598 1.85494 1.97449 1.87831 1.91707C1.90167 1.85965 1.9362 1.80744 1.97988 1.76345C2.02356 1.71946 2.07554 1.68457 2.13279 1.66081C2.19005 1.63705 2.25145 1.62487 2.31344 1.625H11.6866C11.7485 1.62512 11.8098 1.63746 11.8669 1.66132C11.9241 1.68517 11.9759 1.72006 12.0196 1.764C12.0632 1.80794 12.0977 1.86006 12.1212 1.91737C12.1447 1.97467 12.1566 2.03605 12.1563 2.09797V3.96875H4.65157C4.52725 3.96875 4.40802 4.01814 4.32011 4.10604C4.23221 4.19395 4.18282 4.31318 4.18282 4.4375C4.18282 4.56182 4.23221 4.68105 4.32011 4.76896C4.40802 4.85686 4.52725 4.90625 4.65157 4.90625H12.1563V12.4067C12.1563 12.531 12.2056 12.6503 12.2936 12.7382C12.3815 12.8261 12.5007 12.8755 12.625 12.8755C12.7493 12.8755 12.8686 12.8261 12.9565 12.7382C13.0444 12.6503 13.0938 12.531 13.0938 12.4067V2.09797C13.0941 1.91293 13.0579 1.72965 12.9873 1.5586C12.9168 1.38755 12.8132 1.23208 12.6825 1.10109C12.5518 0.970098 12.3966 0.866147 12.2257 0.79518C12.0548 0.724214 11.8716 0.687623 11.6866 0.6875ZM12.1563 17.5625V19.902C12.1568 19.964 12.1451 20.0255 12.1217 20.0829C12.0983 20.1403 12.0638 20.1926 12.0201 20.2366C11.9765 20.2805 11.9245 20.3154 11.8672 20.3392C11.81 20.363 11.7486 20.3751 11.6866 20.375H2.31344C2.25152 20.3749 2.19023 20.3625 2.13309 20.3387C2.07595 20.3148 2.02407 20.2799 1.98044 20.236C1.9368 20.1921 1.90227 20.1399 1.87882 20.0826C1.85536 20.0253 1.84345 19.964 1.84376 19.902V17.5625H12.1563Z" fill="#FDFDFD"/>
</g>
<defs>
<clipPath id="clip0_183_37">
<rect width="14" height="22" fill="white"/>
</clipPath>
</defs>
</svg>
