<svg width="36" height="30" viewBox="0 0 36 30" fill="none" xmlns="http://www.w3.org/2000/svg">
<path d="M3.166 26.642C1.106 24.454 0 22 0 18.022C0 11.022 4.914 4.748 12.06 1.646L13.846 4.402C7.176 8.01 5.872 12.692 5.352 15.644C6.426 15.088 7.832 14.894 9.21 15.022C12.818 15.356 15.662 18.318 15.662 22C15.662 23.8565 14.9245 25.637 13.6117 26.9498C12.299 28.2625 10.5185 29 8.662 29C7.6353 28.9911 6.62062 28.7781 5.67705 28.3733C4.73349 27.9684 3.8799 27.3799 3.166 26.642ZM23.166 26.642C21.106 24.454 20 22 20 18.022C20 11.022 24.914 4.748 32.06 1.646L33.846 4.402C27.176 8.01 25.872 12.692 25.352 15.644C26.426 15.088 27.832 14.894 29.21 15.022C32.818 15.356 35.662 18.318 35.662 22C35.662 23.8565 34.9245 25.637 33.6117 26.9498C32.299 28.2625 30.5185 29 28.662 29C27.6353 28.9911 26.6206 28.7781 25.6771 28.3733C24.7335 27.9684 23.8799 27.3799 23.166 26.642Z" fill="#28004D"/>
</svg>
