<svg width="45" height="28" viewBox="0 0 45 28" fill="none" xmlns="http://www.w3.org/2000/svg">
<path d="M13.1963 9.23913L13.1972 9.23913C14.8021 9.2364 16.3632 9.7475 17.6436 10.6935L17.6441 10.6938C17.8432 10.8406 18.0694 10.947 18.3095 11.0076C18.5497 11.0681 18.7994 11.0816 19.0447 11.0473C19.2901 11.013 19.5265 10.9316 19.7405 10.8074C19.9545 10.6832 20.1422 10.5184 20.2924 10.3221C20.4425 10.1258 20.5522 9.90184 20.6147 9.66294C20.6772 9.42403 20.6912 9.17523 20.6558 8.93086C20.6203 8.68651 20.5363 8.45182 20.4087 8.24017C20.2812 8.02854 20.1129 7.84426 19.9137 7.69749L19.9135 7.69733C18.494 6.65246 16.8426 5.95407 15.0954 5.65903C13.3483 5.36399 11.5547 5.48062 9.86223 5.99943C8.16974 6.51825 6.62624 7.42462 5.35923 8.64461C4.09219 9.86464 3.13792 11.3635 2.57586 13.0179C2.01379 14.6724 1.86026 16.4346 2.12811 18.1591C2.39595 19.8836 3.07737 21.5202 4.11551 22.9342C5.15361 24.3482 6.51853 25.499 8.09723 26.2925C9.67589 27.086 11.4235 27.4997 13.1962 27.5H13.1963C14.7143 27.5 16.0554 27.2275 17.2501 26.6568C18.4451 26.0861 19.3928 25.2643 20.1909 24.3072C21.4572 22.7911 22.4767 20.7572 23.5438 18.6281L23.5599 18.5961L23.56 18.5958L24.1908 17.3394C24.1911 17.3388 24.1914 17.3382 24.1917 17.3376C24.4339 16.864 24.663 16.4106 24.8807 15.9778C25.9766 13.7991 26.7738 12.2193 27.7335 11.0681C28.2696 10.4272 28.8048 9.99272 29.3994 9.709L29.4004 9.70852C29.9947 9.42328 30.7519 9.23913 31.8018 9.23913C32.9771 9.23913 34.1352 9.51327 35.1806 10.0385C36.2259 10.5637 37.1282 11.3247 37.8136 12.2581C38.499 13.1914 38.9481 14.2705 39.1247 15.4064C39.3012 16.5422 39.2003 17.703 38.83 18.7934C38.4596 19.8838 37.8303 20.8731 36.993 21.6794C36.1557 22.4858 35.1344 23.086 34.013 23.4298C32.8915 23.7736 31.7026 23.851 30.5445 23.6555C29.3863 23.4599 28.2928 22.9972 27.3538 22.306C26.9518 22.0101 26.4482 21.884 25.9534 21.9534C25.4585 22.0228 25.0095 22.2826 24.7066 22.679C24.4034 23.0758 24.2721 23.5763 24.344 24.07C24.4158 24.5637 24.6842 25.0065 25.0865 25.3027C26.506 26.3476 28.1575 27.046 29.9048 27.341C31.652 27.636 33.4457 27.5193 35.1382 27.0004C36.8308 26.4815 38.3743 25.575 39.6413 24.3549C40.9083 23.1347 41.8625 21.6358 42.4244 19.9812C42.9864 18.3266 43.1398 16.5643 42.8717 14.8397C42.6037 13.1152 41.922 11.4786 40.8836 10.0646C39.8453 8.65066 38.4801 7.50001 36.9013 6.70672C35.3224 5.91345 33.5746 5.5 31.8018 5.5C30.2839 5.5 28.9428 5.77249 27.748 6.34317C26.5531 6.91394 25.6054 7.73566 24.8073 8.69284C23.5409 10.2089 22.5215 12.2428 21.4543 14.3718L21.4382 14.4039L21.4381 14.4042L20.8073 15.6606C20.807 15.6612 20.8067 15.6618 20.8064 15.6624C20.5642 16.136 20.3351 16.5894 20.1174 17.0222C19.0217 19.2007 18.2245 20.7804 17.2649 21.9316C16.7287 22.5727 16.1935 23.0072 15.5988 23.291L15.5978 23.2915C15.0034 23.5767 14.2462 23.7609 13.1963 23.7609C11.2288 23.7609 9.34367 22.9937 7.95521 21.6309C6.56707 20.2685 5.78897 18.4227 5.78897 16.5C5.78897 14.5773 6.56707 12.7315 7.95521 11.3691C9.34367 10.0063 11.2288 9.23913 13.1963 9.23913Z" fill="#FDFDFD" stroke="#FDFDFD"/>
</svg>
