<svg width="91" height="16" viewBox="0 0 91 16" fill="none" xmlns="http://www.w3.org/2000/svg">
<path d="M6.49414 0.78125V15H4.13086V0.78125H6.49414ZM10.1172 0.78125V2.77344H0.546875V0.78125H10.1172ZM19.7949 6.69922V8.69141H13.8086V6.69922H19.7949ZM14.3652 0.78125V15H11.9922V0.78125H14.3652ZM21.6504 0.78125V15H19.2871V0.78125H21.6504ZM32.2559 13.0176V15H26.084V13.0176H32.2559ZM26.709 0.78125V15H24.3359V0.78125H26.709ZM31.4258 6.69922V8.65234H26.084V6.69922H31.4258ZM32.1973 0.78125V2.77344H26.084V0.78125H32.1973ZM44.9414 11.3281C44.9414 11.0352 44.9089 10.7747 44.8438 10.5469C44.7852 10.3125 44.6712 10.1009 44.502 9.91211C44.3327 9.72331 44.0918 9.53776 43.7793 9.35547C43.4733 9.17318 43.0762 8.98763 42.5879 8.79883C42.028 8.58398 41.5039 8.34961 41.0156 8.0957C40.5339 7.83529 40.1074 7.54232 39.7363 7.2168C39.3717 6.88477 39.0853 6.4974 38.877 6.05469C38.6686 5.61198 38.5645 5.09766 38.5645 4.51172C38.5645 3.93229 38.6654 3.40495 38.8672 2.92969C39.0755 2.44792 39.3685 2.03451 39.7461 1.68945C40.1302 1.33789 40.5859 1.06771 41.1133 0.878906C41.6406 0.683594 42.2233 0.585938 42.8613 0.585938C43.7793 0.585938 44.5638 0.78125 45.2148 1.17188C45.8724 1.5625 46.3737 2.08659 46.7188 2.74414C47.0703 3.40169 47.2461 4.13086 47.2461 4.93164H44.8828C44.8828 4.4694 44.8112 4.05924 44.668 3.70117C44.5247 3.3431 44.3034 3.06315 44.0039 2.86133C43.7044 2.65951 43.3171 2.55859 42.8418 2.55859C42.4056 2.55859 42.0443 2.64323 41.7578 2.8125C41.4779 2.98177 41.2695 3.21289 41.1328 3.50586C41.0026 3.79883 40.9375 4.13411 40.9375 4.51172C40.9375 4.77214 40.9928 5.00977 41.1035 5.22461C41.2142 5.43294 41.3737 5.625 41.582 5.80078C41.7904 5.97656 42.0443 6.14258 42.3438 6.29883C42.6432 6.45508 42.9883 6.60482 43.3789 6.74805C44.043 6.98893 44.6224 7.25586 45.1172 7.54883C45.612 7.8418 46.0189 8.17057 46.3379 8.53516C46.6634 8.89323 46.9043 9.30013 47.0605 9.75586C47.2233 10.2116 47.3047 10.7292 47.3047 11.3086C47.3047 11.8945 47.2038 12.4284 47.002 12.9102C46.8066 13.3854 46.5202 13.7923 46.1426 14.1309C45.765 14.4694 45.3092 14.7331 44.7754 14.9219C44.2415 15.1042 43.6426 15.1953 42.9785 15.1953C42.3665 15.1953 41.7773 15.1042 41.2109 14.9219C40.651 14.7396 40.1497 14.4629 39.707 14.0918C39.2643 13.7142 38.9128 13.2422 38.6523 12.6758C38.3984 12.1094 38.2715 11.4453 38.2715 10.6836H40.6445C40.6445 11.1393 40.6999 11.5299 40.8105 11.8555C40.9212 12.1745 41.0807 12.4382 41.2891 12.6465C41.5039 12.8483 41.7546 12.998 42.041 13.0957C42.334 13.1868 42.6595 13.2324 43.0176 13.2324C43.4603 13.2324 43.8216 13.1543 44.1016 12.998C44.388 12.8353 44.5996 12.6107 44.7363 12.3242C44.873 12.0378 44.9414 11.7057 44.9414 11.3281ZM54.1504 12.8516V7.58789C54.1504 7.22331 54.0983 6.93034 53.9941 6.70898C53.8965 6.48763 53.75 6.32812 53.5547 6.23047C53.3659 6.1263 53.1283 6.07422 52.8418 6.07422C52.5423 6.07422 52.2884 6.13607 52.0801 6.25977C51.8783 6.38346 51.7253 6.55273 51.6211 6.76758C51.5169 6.97591 51.4648 7.2168 51.4648 7.49023H49.1895C49.1895 7.06706 49.2741 6.66016 49.4434 6.26953C49.6191 5.87891 49.8698 5.5306 50.1953 5.22461C50.5208 4.91862 50.9147 4.67773 51.377 4.50195C51.8392 4.32617 52.3535 4.23828 52.9199 4.23828C53.597 4.23828 54.1992 4.35221 54.7266 4.58008C55.2539 4.80143 55.6673 5.16276 55.9668 5.66406C56.2728 6.15885 56.4258 6.8099 56.4258 7.61719V12.5488C56.4258 13.0371 56.4551 13.4733 56.5137 13.8574C56.5788 14.235 56.6667 14.5638 56.7773 14.8438V15H54.4629C54.3587 14.7461 54.2806 14.4206 54.2285 14.0234C54.1764 13.6263 54.1504 13.2357 54.1504 12.8516ZM54.4531 8.56445L54.4629 10.0391H53.3691C53.0436 10.0391 52.7507 10.0846 52.4902 10.1758C52.2298 10.2604 52.0085 10.3841 51.8262 10.5469C51.6504 10.7031 51.5137 10.8952 51.416 11.123C51.3249 11.3509 51.2793 11.6016 51.2793 11.875C51.2793 12.207 51.3249 12.4772 51.416 12.6855C51.5137 12.8939 51.6536 13.0501 51.8359 13.1543C52.0247 13.252 52.2526 13.3008 52.5195 13.3008C52.8841 13.3008 53.1999 13.2227 53.4668 13.0664C53.7402 12.9036 53.9486 12.7083 54.0918 12.4805C54.2415 12.2526 54.3001 12.0443 54.2676 11.8555L54.7852 12.8027C54.7331 13.0501 54.6354 13.3105 54.4922 13.584C54.3555 13.8574 54.1764 14.1178 53.9551 14.3652C53.7337 14.6126 53.4668 14.8145 53.1543 14.9707C52.8418 15.1204 52.4805 15.1953 52.0703 15.1953C51.4779 15.1953 50.9505 15.0716 50.4883 14.8242C50.026 14.5768 49.6615 14.222 49.3945 13.7598C49.1341 13.291 49.0039 12.7311 49.0039 12.0801C49.0039 11.5527 49.0918 11.0742 49.2676 10.6445C49.4434 10.2148 49.7038 9.84701 50.0488 9.54102C50.3939 9.22852 50.8268 8.98763 51.3477 8.81836C51.875 8.64909 52.4902 8.56445 53.1934 8.56445H54.4531ZM61.0059 6.68945V15H58.7305V4.43359H60.8691L61.0059 6.68945ZM60.5957 9.33594H59.873C59.8665 8.57422 59.9479 7.88086 60.1172 7.25586C60.2865 6.63086 60.5273 6.09375 60.8398 5.64453C61.1589 5.19531 61.5365 4.85026 61.9727 4.60938C62.4154 4.36198 62.9069 4.23828 63.4473 4.23828C63.8639 4.23828 64.2448 4.3099 64.5898 4.45312C64.9414 4.58984 65.2409 4.81445 65.4883 5.12695C65.7357 5.43945 65.9245 5.84635 66.0547 6.34766C66.1914 6.84896 66.2598 7.46094 66.2598 8.18359V15H63.9844V8.16406C63.9844 7.66927 63.929 7.27865 63.8184 6.99219C63.7142 6.69922 63.5579 6.49089 63.3496 6.36719C63.1413 6.23698 62.8776 6.17188 62.5586 6.17188C62.2656 6.17188 61.9954 6.25651 61.748 6.42578C61.5072 6.58854 61.2988 6.81641 61.123 7.10938C60.9538 7.39583 60.8236 7.73112 60.7324 8.11523C60.6413 8.49284 60.5957 8.89974 60.5957 9.33594ZM70.957 4.43359V15H68.6816V4.43359H70.957ZM68.5645 1.66992C68.5645 1.30534 68.6751 1.0026 68.8965 0.761719C69.1178 0.514323 69.4271 0.390625 69.8242 0.390625C70.2214 0.390625 70.5306 0.514323 70.752 0.761719C70.9733 1.0026 71.084 1.30534 71.084 1.66992C71.084 2.02148 70.9733 2.31771 70.752 2.55859C70.5306 2.79948 70.2214 2.91992 69.8242 2.91992C69.4271 2.91992 69.1178 2.79948 68.8965 2.55859C68.6751 2.31771 68.5645 2.02148 68.5645 1.66992ZM77.1387 13.291C77.4316 13.291 77.6921 13.2292 77.9199 13.1055C78.1543 12.9818 78.3398 12.7897 78.4766 12.5293C78.6133 12.2624 78.6882 11.9173 78.7012 11.4941H80.8398C80.8268 12.2428 80.6543 12.8971 80.3223 13.457C79.9902 14.0104 79.5475 14.4401 78.9941 14.7461C78.4473 15.0456 77.8385 15.1953 77.168 15.1953C76.4714 15.1953 75.8626 15.0846 75.3418 14.8633C74.8275 14.6354 74.401 14.3066 74.0625 13.877C73.724 13.4473 73.4701 12.9264 73.3008 12.3145C73.138 11.696 73.0566 10.9896 73.0566 10.1953V9.23828C73.0566 8.45052 73.138 7.7474 73.3008 7.12891C73.4701 6.51042 73.724 5.98633 74.0625 5.55664C74.401 5.12695 74.8275 4.80143 75.3418 4.58008C75.8561 4.35221 76.4616 4.23828 77.1582 4.23828C77.9004 4.23828 78.5417 4.39453 79.082 4.70703C79.6289 5.01302 80.0553 5.46224 80.3613 6.05469C80.6673 6.64714 80.8268 7.37305 80.8398 8.23242H78.7012C78.6882 7.77669 78.6198 7.39583 78.4961 7.08984C78.3724 6.77734 78.1966 6.54297 77.9688 6.38672C77.7474 6.23047 77.4674 6.15234 77.1289 6.15234C76.7578 6.15234 76.4518 6.22396 76.2109 6.36719C75.9766 6.50391 75.7943 6.70573 75.6641 6.97266C75.5404 7.23958 75.4525 7.5651 75.4004 7.94922C75.3548 8.32682 75.332 8.75651 75.332 9.23828V10.1953C75.332 10.6901 75.3548 11.1296 75.4004 11.5137C75.446 11.8913 75.5306 12.2135 75.6543 12.4805C75.7845 12.7474 75.9701 12.9492 76.2109 13.0859C76.4518 13.2227 76.7611 13.291 77.1387 13.291ZM84.8438 0V15H82.5781V0H84.8438ZM84.4434 9.33594H83.7207C83.7142 8.60026 83.7923 7.92318 83.9551 7.30469C84.1178 6.6862 84.3522 6.14583 84.6582 5.68359C84.9642 5.22135 85.332 4.86654 85.7617 4.61914C86.1979 4.36523 86.6797 4.23828 87.207 4.23828C87.6432 4.23828 88.0371 4.31315 88.3887 4.46289C88.7467 4.60612 89.0527 4.83398 89.3066 5.14648C89.5671 5.45898 89.7656 5.86914 89.9023 6.37695C90.0391 6.87826 90.1074 7.49023 90.1074 8.21289V15H87.832V8.19336C87.832 7.69206 87.7767 7.29492 87.666 7.00195C87.5618 6.70898 87.4056 6.4974 87.1973 6.36719C86.9889 6.23698 86.7253 6.17188 86.4062 6.17188C86.0938 6.17188 85.8138 6.25651 85.5664 6.42578C85.319 6.58854 85.1107 6.81641 84.9414 7.10938C84.7786 7.39583 84.6549 7.73112 84.5703 8.11523C84.4857 8.49284 84.4434 8.89974 84.4434 9.33594Z" fill="#333333"/>
</svg>
