<svg width="24" height="22" viewBox="0 0 24 22" fill="none" xmlns="http://www.w3.org/2000/svg">
<g clip-path="url(#clip0_41_50)">
<path d="M6.66667 13.5893H7.84667V9.58933H6.66667V11H4.66667V12.18H6.66667V13.5893ZM9.18 12.18H19.3333V11H9.18V12.18ZM16.1533 9.07733H17.3333V7.66667H19.3333V6.48667H17.3333V5.07867H16.1533V9.07733ZM4.66667 7.66667H14.8213V6.48667H4.66667V7.66667ZM8 21.3333V18.6667H2.15467C1.54044 18.6667 1.028 18.4613 0.617333 18.0507C0.206667 17.64 0.000888889 17.1271 0 16.512V2.15467C0 1.54044 0.205778 1.028 0.617333 0.617333C1.02889 0.206666 1.54089 0.000888889 2.15333 0H21.8467C22.46 0 22.972 0.205778 23.3827 0.617333C23.7933 1.02889 23.9991 1.54133 24 2.15467V16.5133C24 17.1267 23.7942 17.6391 23.3827 18.0507C22.9711 18.4622 22.4591 18.6676 21.8467 18.6667H16V21.3333H8ZM2.15467 17.3333H21.8467C22.0511 17.3333 22.2391 17.248 22.4107 17.0773C22.5822 16.9067 22.6676 16.7182 22.6667 16.512V2.15467C22.6667 1.94933 22.5813 1.76089 22.4107 1.58933C22.24 1.41778 22.052 1.33244 21.8467 1.33333H2.15333C1.94889 1.33333 1.76089 1.41867 1.58933 1.58933C1.41778 1.76 1.33244 1.94844 1.33333 2.15467V16.5133C1.33333 16.7178 1.41867 16.9058 1.58933 17.0773C1.76 17.2489 1.948 17.3342 2.15333 17.3333" fill="#333333"/>
</g>
<defs>
<clipPath id="clip0_41_50">
<rect width="24" height="21.3333" fill="white"/>
</clipPath>
</defs>
</svg>
