<svg width="30" height="27" viewBox="0 0 30 27" fill="none" xmlns="http://www.w3.org/2000/svg">
<path d="M10.34 0.619998C11.252 0.619998 11.996 0.715999 12.572 0.907999C13.172 1.076 13.676 1.304 14.084 1.592C14.42 1.808 14.696 2.06 14.912 2.348C15.152 2.636 15.344 2.936 15.488 3.248C15.632 3.56 15.704 3.884 15.704 4.22C15.704 4.868 15.464 5.384 14.984 5.768C14.528 6.128 14.012 6.308 13.436 6.308C12.86 6.308 12.356 6.14 11.924 5.804C11.516 5.468 11.312 4.988 11.312 4.364C11.312 3.812 11.504 3.332 11.888 2.924C12.272 2.492 12.752 2.24 13.328 2.168C13.208 1.904 12.908 1.676 12.428 1.484C11.972 1.292 11.408 1.196 10.736 1.196C9.488 1.196 8.456 1.568 7.64 2.312C6.848 3.056 6.452 4.16 6.452 5.624C6.452 6.248 6.56 6.896 6.776 7.568C7.016 8.24 7.472 8.912 8.144 9.584C8.552 9.512 8.948 9.452 9.332 9.404C9.74 9.356 10.064 9.332 10.304 9.332C10.736 9.332 11.072 9.416 11.312 9.584C11.576 9.728 11.708 9.944 11.708 10.232C11.708 10.448 11.612 10.616 11.42 10.736C11.228 10.856 10.988 10.916 10.7 10.916C10.244 10.916 9.776 10.82 9.296 10.628C8.816 10.412 8.444 10.232 8.18 10.088C6.86 10.544 5.792 11.24 4.976 12.176C4.184 13.088 3.788 14.348 3.788 15.956C3.788 17.588 4.22 18.968 5.084 20.096C5.948 21.2 7.124 22.04 8.612 22.616C10.1 23.192 11.804 23.48 13.724 23.48C14.972 23.48 16.172 23.336 17.324 23.048C18.476 22.76 19.496 22.34 20.384 21.788C21.296 21.212 22.016 20.528 22.544 19.736C23.072 18.944 23.336 18.032 23.336 17C23.336 16.568 23.252 16.016 23.084 15.344C22.916 14.672 22.556 14.012 22.004 13.364C21.476 12.716 20.648 12.2 19.52 11.816L19.88 11.456C21.488 11.96 22.652 12.788 23.372 13.94C24.092 15.092 24.452 16.388 24.452 17.828C24.452 19.34 23.984 20.768 23.048 22.112C22.136 23.432 20.828 24.5 19.124 25.316C17.42 26.108 15.368 26.504 12.968 26.504C11.264 26.504 9.668 26.3 8.18 25.892C6.716 25.484 5.432 24.896 4.328 24.128C3.224 23.336 2.36 22.388 1.736 21.284C1.112 20.18 0.8 18.932 0.8 17.54C0.8 16.22 1.052 15.104 1.556 14.192C2.084 13.256 2.732 12.488 3.5 11.888C4.268 11.264 5.036 10.796 5.804 10.484C6.572 10.148 7.196 9.92 7.676 9.8C6.884 9.464 6.2 9.068 5.624 8.612C5.072 8.132 4.64 7.604 4.328 7.028C4.04 6.428 3.896 5.816 3.896 5.192C3.896 4.544 4.052 3.944 4.364 3.392C4.676 2.84 5.108 2.36 5.66 1.952C6.236 1.52 6.908 1.196 7.676 0.979998C8.468 0.739998 9.356 0.619998 10.34 0.619998ZM23.768 0.00799775C25.328 0.00799775 26.624 0.439998 27.656 1.304C28.688 2.168 29.204 3.38 29.204 4.94C29.204 5.9 29 6.728 28.592 7.424C28.208 8.12 27.656 8.72 26.936 9.224C26.24 9.728 25.424 10.136 24.488 10.448C24.008 10.664 23.384 10.904 22.616 11.168C21.848 11.408 21.032 11.66 20.168 11.924C19.304 12.188 18.476 12.44 17.684 12.68C16.916 12.92 16.28 13.136 15.776 13.328C14.576 13.688 13.604 14.12 12.86 14.624C12.116 15.104 11.744 15.752 11.744 16.568C11.744 17.192 11.924 17.72 12.284 18.152C12.668 18.584 13.124 18.908 13.652 19.124C14.204 19.34 14.732 19.448 15.236 19.448C15.428 19.448 15.668 19.424 15.956 19.376C16.244 19.328 16.496 19.256 16.712 19.16C16.952 19.064 17.096 18.944 17.144 18.8C16.688 18.704 16.28 18.5 15.92 18.188C15.584 17.852 15.416 17.384 15.416 16.784C15.416 16.16 15.632 15.668 16.064 15.308C16.52 14.948 17.072 14.768 17.72 14.768C18.392 14.768 18.92 14.96 19.304 15.344C19.712 15.728 19.916 16.232 19.916 16.856C19.916 17.552 19.688 18.14 19.232 18.62C18.776 19.1 18.2 19.46 17.504 19.7C16.808 19.916 16.088 20.024 15.344 20.024C14.576 20.024 13.82 19.88 13.076 19.592C12.356 19.28 11.756 18.812 11.276 18.188C10.82 17.54 10.592 16.7 10.592 15.668C10.592 14.684 10.82 13.844 11.276 13.148C11.732 12.428 12.404 11.804 13.292 11.276C14.204 10.748 15.296 10.316 16.568 9.98C17.216 9.764 17.984 9.536 18.872 9.296C19.784 9.056 20.708 8.804 21.644 8.54C22.58 8.252 23.444 7.94 24.236 7.604C25.604 7.076 26.588 6.536 27.188 5.984C27.788 5.432 28.088 4.808 28.088 4.112C28.088 3.416 27.896 2.816 27.512 2.312C27.128 1.784 26.612 1.364 25.964 1.052C25.34 0.739999 24.668 0.583999 23.948 0.583999C23.684 0.583999 23.456 0.607999 23.264 0.655998C23.096 0.679999 22.976 0.752 22.904 0.872C23.312 1.04 23.624 1.304 23.84 1.664C24.056 2.024 24.164 2.372 24.164 2.708C24.164 3.308 23.936 3.788 23.48 4.148C23.024 4.484 22.484 4.652 21.86 4.652C21.284 4.652 20.768 4.484 20.312 4.148C19.856 3.812 19.628 3.32 19.628 2.672C19.628 2.048 19.832 1.544 20.24 1.16C20.648 0.751999 21.164 0.463999 21.788 0.295998C22.436 0.103998 23.096 0.00799775 23.768 0.00799775Z" fill="white"/>
</svg>
