<svg width="32" height="32" viewBox="0 0 32 32" fill="none" xmlns="http://www.w3.org/2000/svg">
<path d="M13.2774 18.4865L13.5774 18.8865L13.2774 18.4865C13.2064 18.5397 13.1018 18.5854 12.982 18.6093C12.8131 18.6431 12.6388 18.6707 12.4761 18.6707H10.667V16.9353H12.5116C12.8913 16.9353 13.1605 17.0209 13.3331 17.1438C13.4736 17.2735 13.5747 17.4738 13.5747 17.8562C13.5747 17.9967 13.5384 18.1282 13.4837 18.2708C13.4233 18.3645 13.3661 18.4199 13.2774 18.4865ZM16.1959 16.1224C16.0014 15.8306 15.7466 15.586 15.4448 15.3904C15.5923 15.2564 15.7231 15.1097 15.8306 14.9514C16.1628 14.5156 16.2799 13.9715 16.2799 13.4157C16.2799 12.9376 16.2007 12.4742 16.0236 12.0758C15.8429 11.6692 15.5649 11.3418 15.1923 11.1089C14.869 10.9068 14.497 10.7396 14.0434 10.6541C13.599 10.5357 13.1307 10.5 12.6537 10.5H8H7.5V11V20.8048V21.3048H8H12.7603C13.2411 21.3048 13.7104 21.2248 14.1604 21.1122C14.6421 20.9918 15.0857 20.7909 15.4533 20.5458C15.8456 20.2843 16.1883 19.8982 16.4047 19.4653C16.5122 19.2503 16.5966 19.0165 16.6541 18.7649C16.6766 18.8368 16.7012 18.9081 16.7281 18.9789C16.8953 19.5124 17.1834 19.9642 17.5485 20.3319C17.918 20.7398 18.3364 21.0312 18.8687 21.2359C19.3832 21.4338 19.9413 21.5535 20.5757 21.5535C21.4858 21.5535 22.2527 21.3143 22.9011 20.9091L22.9104 20.9033L22.9194 20.8971C23.5978 20.4307 24.0795 19.7254 24.3894 18.7959L24.6087 18.1378H24.4628L24.4851 17.7809C24.5232 17.1709 24.4847 16.6386 24.41 16.1159L24.4052 16.0821L24.3958 16.0492C24.2412 15.5082 24.0067 14.9943 23.6859 14.5508C23.3459 14.0442 22.922 13.7122 22.4114 13.4373C22.156 13.2998 21.8866 13.2008 21.6055 13.1341H22.423H22.923V12.6341V11.675V11.175H22.423H18.4442H17.9442V11.675V12.6341V13.1341H18.4442H19.5677C19.339 13.1869 19.1204 13.2566 18.9042 13.3398L18.9041 13.3396L18.8914 13.3449C18.3934 13.5524 17.9496 13.8781 17.5933 14.2344L17.584 14.2437L17.5752 14.2535C17.2177 14.6508 16.9353 15.0934 16.7342 15.6163C16.6039 15.955 16.5254 16.305 16.4854 16.663C16.405 16.4706 16.3076 16.2899 16.1959 16.1224ZM21.7 18.4797C21.6754 18.5533 21.592 18.6858 21.359 18.8639C21.1593 18.9842 20.9028 19.0614 20.6112 19.0614C20.1199 19.0614 19.8433 18.9389 19.6859 18.7816C19.5806 18.6763 19.4727 18.4871 19.4048 18.2497H21.7766L21.7 18.4797ZM13.0381 14.2877C12.8818 14.3993 12.6658 14.4788 12.3695 14.4788H10.667V13.1697H12.2274C12.4507 13.1697 12.5773 13.1714 12.6978 13.1955C12.7906 13.214 12.8697 13.2487 12.9912 13.3087C13.0763 13.3765 13.11 13.4213 13.1301 13.4617C13.1523 13.506 13.1839 13.6314 13.1839 13.8064C13.1839 14.1269 13.0955 14.2467 13.0381 14.2877ZM20.4691 15.5143C20.8363 15.5143 21.0858 15.6275 21.2168 15.7586C21.2883 15.8301 21.3567 15.9208 21.4155 16.0418H19.4733C19.493 15.9976 19.5167 15.9633 19.5438 15.9362C19.6887 15.7914 19.7793 15.7051 19.9112 15.6391C20.058 15.5657 20.2304 15.5143 20.4691 15.5143ZM0.5 16C0.5 7.43959 7.43959 0.5 16 0.5C24.5604 0.5 31.5 7.43959 31.5 16C31.5 24.5604 24.5604 31.5 16 31.5C7.43959 31.5 0.5 24.5604 0.5 16Z" stroke="white"/>
</svg>
