<svg width="32" height="32" viewBox="0 0 32 32" fill="none" xmlns="http://www.w3.org/2000/svg">
<path d="M18.3975 15.1675L18.3956 15.1631L18.395 15.1617L18.3923 15.1554C18.3175 14.9808 18.2408 14.8019 18.1606 14.6229C19.7281 13.9066 20.7275 13.0278 21.2519 12.478C21.8133 13.3115 22.1753 14.2808 22.2922 15.3329C21.4634 15.2057 19.9644 15.0396 18.4012 15.1762C18.4 15.1733 18.3987 15.1704 18.3975 15.1675L18.3975 15.1675ZM14.8522 13.4512C12.7592 13.9408 10.9048 14.0656 9.95136 14.0973C10.4574 12.5359 11.5342 11.2402 12.9315 10.4655C13.3201 11.0191 14.0798 12.1357 14.8522 13.4512ZM16.9219 17.7441C17.6005 19.6034 17.957 21.1758 18.1087 21.9724C17.4522 22.2058 16.7375 22.332 16 22.332C14.6878 22.332 13.4706 21.9294 12.464 21.2503C12.9371 20.4982 14.2462 18.794 16.9219 17.7441ZM16 9.68401C17.4255 9.68401 18.7583 10.1661 19.8191 10.9633C19.4094 11.3986 18.572 12.1367 17.1683 12.7322C16.4593 11.4712 15.7307 10.3856 15.2693 9.7234C15.5074 9.69765 15.7504 9.68401 16 9.68401ZM9.67477 16.311C10.7624 16.2959 13.2865 16.1625 15.9302 15.4281C15.9741 15.517 16.0175 15.6058 16.0602 15.6946C13.3431 16.6645 11.6138 18.7216 10.8866 19.7371C10.1695 18.763 9.73336 17.584 9.67477 16.311ZM20.1489 20.7771C19.9794 19.9752 19.6674 18.7019 19.1602 17.2225C20.4355 17.1184 21.5524 17.3158 22.1545 17.4551C21.8469 18.7683 21.1319 19.926 20.1489 20.7771ZM16 31.5C7.43959 31.5 0.5 24.5604 0.5 16C0.5 7.43958 7.43959 0.5 16 0.5C24.5604 0.5 31.5 7.43958 31.5 16C31.5 24.5604 24.5604 31.5 16 31.5ZM16 7.5C11.3079 7.5 7.5 11.3079 7.5 16C7.5 20.6921 11.3079 24.5 16 24.5C20.6755 24.5 24.5 20.6928 24.5 16C24.5 11.3072 20.6755 7.5 16 7.5Z" stroke="white"/>
</svg>
