<svg width="32" height="32" viewBox="0 0 32 32" fill="none" xmlns="http://www.w3.org/2000/svg">
<rect x="0.5" y="0.5" width="31" height="31" rx="15.5" stroke="#FDFDFD"/>
<mask id="path-2-inside-1_80_29" fill="white">
<path d="M24.64 8.99951H7.36C7.26452 8.99951 7.17295 9.03833 7.10544 9.10742C7.03793 9.17651 7 9.27022 7 9.36793V21.8942C7 22.1874 7.11379 22.4685 7.31632 22.6758C7.51886 22.8831 7.79357 22.9995 8.08 22.9995H23.92C24.2064 22.9995 24.4811 22.8831 24.6837 22.6758C24.8862 22.4685 25 22.1874 25 21.8942V9.36793C25 9.27022 24.9621 9.17651 24.8946 9.10742C24.827 9.03833 24.7355 8.99951 24.64 8.99951ZM23.7148 9.73635L16 16.9731L8.2852 9.73635H23.7148ZM23.92 22.2627H8.08C7.98452 22.2627 7.89295 22.2239 7.82544 22.1548C7.75793 22.0857 7.72 21.992 7.72 21.8942V10.2052L15.757 17.7495C15.8234 17.8116 15.9101 17.8461 16 17.8461C16.0899 17.8461 16.1766 17.8116 16.243 17.7495L24.28 10.2052V21.8942C24.28 21.992 24.2421 22.0857 24.1746 22.1548C24.107 22.2239 24.0155 22.2627 23.92 22.2627Z"/>
</mask>
<path d="M23.7148 9.73635L24.3989 10.4657L26.2425 8.73635H23.7148V9.73635ZM16 16.9731L15.3159 17.7024L16 18.3442L16.6841 17.7024L16 16.9731ZM8.2852 9.73635V8.73635H5.75746L7.60105 10.4657L8.2852 9.73635ZM7.72 10.2052L8.40441 9.47607L6.72 7.89491V10.2052H7.72ZM15.757 17.7495L15.0726 18.4786L15.0735 18.4795L15.757 17.7495ZM16.243 17.7495L16.9265 18.4795L16.9274 18.4786L16.243 17.7495ZM24.28 10.2052H25.28V7.89491L23.5956 9.47607L24.28 10.2052ZM24.64 8.99951V7.99951H7.36V8.99951V9.99951H24.64V8.99951ZM7.36 8.99951V7.99951C6.99175 7.99951 6.64338 8.14944 6.39021 8.40853L7.10544 9.10742L7.82068 9.80631C7.70253 9.92722 7.5373 9.99951 7.36 9.99951V8.99951ZM7.10544 9.10742L6.39021 8.40853C6.1378 8.66685 6 9.01237 6 9.36793H7H8C8 9.52807 7.93806 9.68618 7.82068 9.80631L7.10544 9.10742ZM7 9.36793H6V21.8942H7H8V9.36793H7ZM7 21.8942H6C6 22.4452 6.21366 22.9782 6.60109 23.3747L7.31632 22.6758L8.03156 21.9769C8.01391 21.9588 8 21.9295 8 21.8942H7ZM7.31632 22.6758L6.60109 23.3747C6.98929 23.772 7.52079 23.9995 8.08 23.9995V22.9995V21.9995C8.06634 21.9995 8.04844 21.9942 8.03156 21.9769L7.31632 22.6758ZM8.08 22.9995V23.9995H23.92V22.9995V21.9995H8.08V22.9995ZM23.92 22.9995V23.9995C24.4792 23.9995 25.0107 23.772 25.3989 23.3747L24.6837 22.6758L23.9684 21.9769C23.9516 21.9942 23.9337 21.9995 23.92 21.9995V22.9995ZM24.6837 22.6758L25.3989 23.3747C25.7863 22.9782 26 22.4452 26 21.8942H25H24C24 21.9295 23.9861 21.9588 23.9684 21.9769L24.6837 22.6758ZM25 21.8942H26V9.36793H25H24V21.8942H25ZM25 9.36793H26C26 9.01237 25.8622 8.66685 25.6098 8.40853L24.8946 9.10742L24.1793 9.80631C24.0619 9.68618 24 9.52807 24 9.36793H25ZM24.8946 9.10742L25.6098 8.40853C25.3566 8.14944 25.0083 7.99951 24.64 7.99951V8.99951V9.99951C24.4627 9.99951 24.2975 9.92722 24.1793 9.80631L24.8946 9.10742ZM23.7148 9.73635L23.0307 9.00701L15.3159 16.2437L16 16.9731L16.6841 17.7024L24.3989 10.4657L23.7148 9.73635ZM16 16.9731L16.6841 16.2437L8.96935 9.00701L8.2852 9.73635L7.60105 10.4657L15.3159 17.7024L16 16.9731ZM8.2852 9.73635V10.7364H23.7148V9.73635V8.73635H8.2852V9.73635ZM23.92 22.2627V21.2627H8.08V22.2627V23.2627H23.92V22.2627ZM8.08 22.2627V21.2627C8.2573 21.2627 8.42253 21.335 8.54068 21.4559L7.82544 22.1548L7.11021 22.8536C7.36338 23.1127 7.71175 23.2627 8.08 23.2627V22.2627ZM7.82544 22.1548L8.54068 21.4559C8.65806 21.576 8.72 21.7341 8.72 21.8942H7.72H6.72C6.72 22.2498 6.8578 22.5953 7.11021 22.8536L7.82544 22.1548ZM7.72 21.8942H8.72V10.2052H7.72H6.72V21.8942H7.72ZM7.72 10.2052L7.03559 10.9343L15.0726 18.4786L15.757 17.7495L16.4414 17.0204L8.40441 9.47607L7.72 10.2052ZM15.757 17.7495L15.0735 18.4795C15.323 18.713 15.6532 18.8461 16 18.8461V17.8461V16.8461C16.1669 16.8461 16.3237 16.9102 16.4405 17.0195L15.757 17.7495ZM16 17.8461V18.8461C16.3468 18.8461 16.677 18.713 16.9265 18.4795L16.243 17.7495L15.5595 17.0195C15.6763 16.9102 15.8331 16.8461 16 16.8461V17.8461ZM16.243 17.7495L16.9274 18.4786L24.9644 10.9343L24.28 10.2052L23.5956 9.47607L15.5586 17.0204L16.243 17.7495ZM24.28 10.2052H23.28V21.8942H24.28H25.28V10.2052H24.28ZM24.28 21.8942H23.28C23.28 21.7341 23.3419 21.576 23.4593 21.4559L24.1746 22.1548L24.8898 22.8536C25.1422 22.5953 25.28 22.2498 25.28 21.8942H24.28ZM24.1746 22.1548L23.4593 21.4559C23.5775 21.335 23.7427 21.2627 23.92 21.2627V22.2627V23.2627C24.2883 23.2627 24.6366 23.1127 24.8898 22.8536L24.1746 22.1548Z" fill="#FDFDFD" mask="url(#path-2-inside-1_80_29)"/>
</svg>
