<svg width="32" height="32" viewBox="0 0 32 32" fill="none" xmlns="http://www.w3.org/2000/svg">
<path d="M24.5 16.1675H24.5L24.5 16.162C24.448 11.4876 20.6564 7.692 15.9755 7.692C11.2957 7.692 7.5 11.4877 7.5 16.1675C7.5 19.9135 9.94437 23.0818 13.2687 24.2245L13.3177 24.2413L13.3692 24.2478C13.6803 24.2867 13.9722 24.2138 14.1873 24.0141C14.3906 23.8253 14.4694 23.574 14.4694 23.3602V21.9902V21.3669L13.861 21.5021C12.8952 21.7167 12.3843 21.4724 12.1177 21.2508C12.083 21.222 12.0512 21.1926 12.0221 21.163C12.2987 21.3356 12.5917 21.4252 12.8799 21.454C13.4327 21.5093 13.9177 21.3371 14.1725 21.2238L14.4408 21.1046L14.4674 20.8122C14.5033 20.4167 14.6785 20.1778 14.8123 20.044L15.548 19.3084L14.514 19.1935C13.6634 19.099 12.8807 18.8932 12.3112 18.4101C11.7649 17.9467 11.3379 17.1607 11.3379 15.7272C11.3379 14.9762 11.5814 14.4106 12.0383 13.9121L12.2373 13.695L12.1439 13.4157L12.1411 13.4071L12.1409 13.4067L12.1399 13.4036C12.1008 13.287 11.9211 12.7517 12.1223 12.0241C12.1441 12.028 12.1673 12.0326 12.1921 12.0381C12.4783 12.1012 12.9708 12.2785 13.689 12.765L13.8874 12.8994L14.1165 12.8289C14.6823 12.6548 15.3093 12.6064 15.9755 12.6064C16.6143 12.6064 17.2609 12.6978 17.8692 12.8382L18.0816 12.8872L18.262 12.765C18.9802 12.2785 19.4727 12.1012 19.759 12.0381C19.7837 12.0326 19.807 12.028 19.8288 12.0241C20.0169 12.7042 19.8732 13.2224 19.8157 13.4302L19.8153 13.4315L19.8152 13.4319L19.8143 13.435C19.8087 13.4551 19.8018 13.48 19.7963 13.5019L19.7314 13.7615L19.9114 13.9595C20.3256 14.4151 20.6132 15.0319 20.6132 15.7761C20.6132 17.2096 20.1864 17.9807 19.6439 18.4312C19.0755 18.9031 18.2936 19.0984 17.4372 19.1935L16.2706 19.3232L17.1723 20.0746C17.3213 20.1988 17.5306 20.5279 17.5306 21.1584V23.3602C17.5306 23.574 17.6094 23.8253 17.8127 24.0141C18.0278 24.2138 18.3197 24.2867 18.6308 24.2478L18.6811 24.2415L18.7291 24.2252C22.1076 23.0817 24.5 19.91 24.5 16.1675ZM0.5 16C0.5 7.43959 7.43959 0.5 16 0.5C24.5604 0.5 31.5 7.43959 31.5 16C31.5 24.5604 24.5604 31.5 16 31.5C7.43959 31.5 0.5 24.5604 0.5 16Z" stroke="#FDFDFD"/>
</svg>
