<svg width="32" height="32" viewBox="0 0 32 32" fill="none" xmlns="http://www.w3.org/2000/svg">
<path d="M23.2486 21.3743L23.2483 21.3743C22.5392 21.2929 21.8443 21.5366 21.346 22.0349L18.7512 24.6298L18.4944 24.8865L18.1709 24.7219C14.0862 22.6434 10.7372 19.3093 8.65815 15.2088L8.4942 14.8855L8.75054 14.6291L11.3595 12.0202C11.8578 11.5219 12.1015 10.8271 12.0202 10.1181C12.0202 10.1181 12.0202 10.118 12.0202 10.1179L11.6114 6.56611C11.6114 6.56584 11.6113 6.56557 11.6113 6.5653C11.4715 5.39161 10.4851 4.51099 9.30153 4.51099H6.8618C5.5377 4.51099 4.46061 5.61191 4.54036 6.89928C5.27215 18.6908 14.7032 28.1081 26.481 28.84L23.2486 21.3743ZM23.2486 21.3743L26.8283 21.783C26.8287 21.7831 26.8291 21.7831 26.8294 21.7831C28.0053 21.9234 28.8809 22.9106 28.8694 24.0738H28.8693M23.2486 21.3743L28.8693 24.0738M28.8693 24.0738V24.0788M28.8693 24.0738V24.0788M28.8693 24.0788V26.5185C28.8693 27.8426 27.7685 28.9197 26.4811 28.84L28.8693 24.0788Z" stroke="white"/>
</svg>
