<svg width="34" height="34" viewBox="0 0 34 34" fill="none" xmlns="http://www.w3.org/2000/svg">
<path d="M13.6 9.7H13.5689L13.538 9.70386C12.7306 9.80478 12.2973 9.90856 11.9596 10.0198C11.4585 10.1491 11.0872 10.4057 10.7464 10.7464C10.4473 11.0456 10.3033 11.3506 10.1719 11.629L10.1628 11.6481C10.1628 11.6481 10.1628 11.6481 10.1628 11.6481C10.1268 11.7243 10.0916 11.7987 10.0528 11.8764L10.0369 11.9082L10.0257 11.9419C10.0129 11.9801 9.99771 12.0218 9.97799 12.0757C9.865 12.3843 9.7 12.8386 9.7 13.6V20.4V20.4311L9.70386 20.462C9.80478 21.2693 9.90856 21.7026 10.0198 22.0404C10.1491 22.5415 10.4057 22.9128 10.7464 23.2536C11.0456 23.5527 11.3506 23.6967 11.629 23.8281L11.6481 23.8372C11.7243 23.8732 11.7986 23.9083 11.8764 23.9472L11.9082 23.9631L11.9419 23.9743C11.9801 23.9871 12.0218 24.0023 12.0757 24.022C12.3843 24.135 12.8386 24.3 13.6 24.3H20.4H20.4311L20.462 24.2961C21.2694 24.1952 21.7027 24.0914 22.0404 23.9802C22.5415 23.8509 22.9128 23.5943 23.2536 23.2536C23.5527 22.9544 23.6967 22.6494 23.8282 22.371L23.8372 22.3519C23.8732 22.2757 23.9083 22.2014 23.9472 22.1236L23.9631 22.0918L23.9743 22.0581C23.9871 22.0199 24.0023 21.9782 24.022 21.9243L23.5525 21.7525L24.022 21.9243C24.135 21.6156 24.3 21.1614 24.3 20.4V13.6V13.5689L24.2961 13.538C24.1952 12.7306 24.0914 12.2973 23.9802 11.9596C23.8509 11.4585 23.5943 11.0872 23.2536 10.7464C22.9544 10.4473 22.6494 10.3033 22.371 10.1718L22.3519 10.1628C22.2758 10.1268 22.2012 10.0916 22.1236 10.0528L22.0918 10.0369L22.0581 10.0257C22.0199 10.0129 21.9782 9.9977 21.9243 9.97798C21.6157 9.86499 21.1614 9.7 20.4 9.7H13.6ZM13.7 17C13.7 18.8877 15.2356 20.3 17 20.3C18.7761 20.3 20.3 18.7761 20.3 17C20.3 15.1123 18.7644 13.7 17 13.7C15.1123 13.7 13.7 15.2356 13.7 17ZM13.2 17C13.2 14.8761 14.8761 13.2 17 13.2C19.1239 13.2 20.8 14.8761 20.8 17C20.8 19.1239 19.1239 20.8 17 20.8C14.8761 20.8 13.2 19.1239 13.2 17ZM21.9 12.6C21.9 12.8761 21.6761 13.1 21.4 13.1C21.1239 13.1 20.9 12.8761 20.9 12.6C20.9 12.3239 21.1239 12.1 21.4 12.1C21.6761 12.1 21.9 12.3239 21.9 12.6ZM17 0.5C7.8873 0.5 0.5 7.8873 0.5 17C0.5 26.1127 7.8873 33.5 17 33.5C26.1127 33.5 33.5 26.1127 33.5 17C33.5 7.8873 26.1127 0.5 17 0.5ZM13.6 9.2H20.3722C21.243 9.29745 21.7726 9.39102 22.1957 9.55688C22.7796 9.84887 23.1129 10.02 23.5464 10.4536C23.9955 10.9026 24.2592 11.3443 24.4358 11.7857C24.6222 12.2518 24.8 12.7861 24.8 13.6V20.3722C24.7025 21.243 24.609 21.7726 24.4431 22.1957C24.1511 22.7796 23.98 23.1129 23.5464 23.5464C23.0974 23.9954 22.6557 24.2592 22.2143 24.4358C21.7481 24.6222 21.2139 24.8 20.4 24.8H13.6278C12.757 24.7025 12.2274 24.609 11.8043 24.4431C11.2204 24.1511 10.8871 23.98 10.4536 23.5464C10.0045 23.0974 9.74078 22.6557 9.56424 22.2143C9.37778 21.7481 9.2 21.2139 9.2 20.4V13.6278C9.29746 12.757 9.39102 12.2274 9.55688 11.8043C9.84887 11.2204 10.02 10.8871 10.4536 10.4536C10.9026 10.0045 11.3443 9.74078 11.7857 9.56424C12.2519 9.37777 12.7861 9.2 13.6 9.2Z" stroke="#FDFDFD"/>
</svg>
