<svg width="34" height="34" viewBox="0 0 34 34" fill="none" xmlns="http://www.w3.org/2000/svg">
<path fill-rule="evenodd" clip-rule="evenodd" d="M1 17C1 8.16344 8.16344 1 17 1C25.8366 1 33 8.16344 33 17C33 25.8366 25.8366 33 17 33C8.16344 33 1 25.8366 1 17ZM9.2 14.3V25H12.6V14.3H9.2ZM9 10.9C9 12 9.8 12.8 10.9 12.8C12 12.8 12.8 12 12.8 10.9C12.8 9.8 12 9 10.9 9C9.9 9 9 9.8 9 10.9ZM21.6 25H24.8V18.4C24.8 15.1 22.8 14 20.9 14C19.2 14 18 15.1 17.7 15.8V14.3H14.5V25H17.9V19.3C17.9 17.8 18.9 17 19.9 17C20.9 17 21.6 17.5 21.6 19.2V25Z" stroke="#FDFDFD"/>
</svg>
