<svg width="81" height="32" viewBox="0 0 81 32" fill="none" xmlns="http://www.w3.org/2000/svg">
<g clip-path="url(#clip0_3235_1415)">
<path d="M20.5243 10.1312C18.8417 11.92 17.9885 14.1071 17.9885 16.6322C17.9885 19.1609 18.8417 21.3496 20.5243 23.1386C22.1995 24.9232 24.2524 25.8282 26.6261 25.8282C28.2546 25.8282 29.7381 25.3992 31.0452 24.5511C31.0725 24.9166 31.2115 25.2326 31.4545 25.4866C31.7211 25.7803 32.0562 25.9295 32.4504 25.9295H33.8749C34.2602 25.9295 34.5941 25.7821 34.8678 25.4905C35.0618 25.2838 35.187 25.0421 35.2419 24.7696H35.2843L35.2841 9.57639C35.2663 9.19219 35.1269 8.85567 34.8692 8.57651C34.5991 8.28412 34.2646 8.13605 33.8749 8.13605H32.6292C32.2472 8.13605 31.9154 8.28324 31.6463 8.57011C31.5386 8.68023 31.452 8.80182 31.3868 8.93467C29.9966 7.93589 28.3973 7.43055 26.6261 7.43055C24.252 7.43055 22.1988 8.33951 20.5243 10.1312ZM23.5235 19.9432C22.6543 19.0175 22.232 17.9342 22.232 16.6322C22.232 15.3269 22.6539 14.2459 23.5225 13.3276L23.5239 13.3263C24.3858 12.4045 25.4004 11.9564 26.6261 11.9564C27.8515 11.9564 28.8681 12.4045 29.7334 13.3263C30.592 14.2448 31.0094 15.3261 31.0094 16.6322C31.0094 17.9351 30.5916 19.0184 29.7338 19.9432C28.8681 20.865 27.8517 21.3136 26.6261 21.3136C25.4004 21.3136 24.3856 20.8652 23.5235 19.9432Z" fill="#FDFDFD"/>
<path d="M41.251 8.93776C41.1849 8.80513 41.0988 8.6842 40.9933 8.57651C40.7234 8.28434 40.3905 8.13605 40.0042 8.13605H38.7587C38.3724 8.13605 38.0395 8.28434 37.7731 8.57276C37.4989 8.86052 37.3597 9.21448 37.3597 9.62582L37.3493 24.4752C37.3582 24.8709 37.4947 25.2127 37.7557 25.4908C38.0289 25.7821 38.3628 25.9295 38.7479 25.9295H40.1935C40.5718 25.9295 40.9022 25.7821 41.1756 25.4905C41.3699 25.2838 41.495 25.0421 41.5497 24.7696H41.5915L41.6135 16.6881V16.6322C41.6135 15.3267 42.034 14.2454 42.8996 13.3268C43.7655 12.4046 44.7819 11.9564 46.0074 11.9564C47.2299 11.9564 48.2466 12.4048 49.1155 13.3268C49.2918 13.5148 49.4548 13.7167 49.5998 13.927L49.6483 13.9892C50.104 14.674 50.3557 15.4662 50.3963 16.3295L50.3861 24.4752C50.395 24.8733 50.5365 25.2165 50.7996 25.487C51.0664 25.7803 51.3976 25.9295 51.7847 25.9295H53.2252C53.6115 25.9295 53.9442 25.781 54.2105 25.4925C54.4848 25.2048 54.6238 24.8506 54.6238 24.4395L54.6346 16.2291L54.6342 16.1858C54.5563 14.3842 54.0328 12.7539 53.0783 11.3389L53.0151 11.2354C52.7463 10.8572 52.4461 10.4864 52.1199 10.1312C50.4342 8.33885 48.3777 7.43055 46.0074 7.43055C44.2344 7.43055 42.6366 7.93744 41.251 8.93776Z" fill="#FDFDFD"/>
<path d="M75.901 0.7856L75.818 0.848712C75.7179 0.946912 75.6237 1.04754 75.54 1.1442C75.3991 1.30286 75.2759 1.47455 75.1736 1.6555C74.9364 2.07765 74.7947 2.56049 74.7516 3.09562C74.7052 3.80487 74.8473 4.45475 75.1707 5.0199C75.2622 5.18938 75.3749 5.35224 75.5168 5.51774L75.5328 5.53849C76.08 6.20029 76.7787 6.56926 77.6064 6.63524C77.6999 6.6434 77.7918 6.64782 77.8828 6.64782C78.6142 6.64782 79.2745 6.38301 79.8487 5.85979L79.9167 5.8055C80.5632 5.21145 80.9246 4.45564 80.9907 3.55904V3.55727C81.053 2.65251 80.8016 1.8444 80.2454 1.15788C79.6942 0.462974 78.9835 0.077016 78.1344 0.0110344C78.0466 0.00375214 77.9598 0 77.8736 0C77.1406 0 76.4773 0.263264 75.901 0.7856Z" fill="#FDFDFD"/>
<path d="M58.5934 10.1312C57.0049 11.8198 56.1556 13.8687 56.0686 16.2154C56.0614 16.3526 56.0578 16.4914 56.0578 16.6322C56.0578 16.769 56.0613 16.9061 56.0684 17.0372C56.1556 19.3896 57.0049 21.4425 58.5943 23.1393C59.7178 24.3287 61.0133 25.1377 62.4446 25.5431L62.4995 25.5541H62.502C63.1959 25.7364 63.9317 25.8282 64.69 25.8282C65.1873 25.8282 65.6789 25.7896 66.1526 25.7123C67.2078 25.5347 68.1973 25.1507 69.0905 24.5728C69.1006 24.5661 69.1106 24.5597 69.1205 24.5531V25.5691L69.111 25.6949C69.0857 26.0312 68.9573 26.3187 68.7135 26.5785C68.5704 26.7371 68.4144 26.8477 68.2414 26.9152C67.2436 27.2859 66.1617 27.4742 65.0231 27.4742C64.3203 27.4751 63.6249 27.412 62.9701 27.2785L62.9144 27.267C62.5678 27.195 62.225 27.101 61.9017 26.988L61.5922 26.8748C61.5365 26.855 61.4791 26.8316 61.4205 26.8053L60.9884 26.6166V26.6564L60.5584 26.5037C60.2083 26.3843 59.8605 26.4105 59.5266 26.5813C59.1836 26.7543 58.9437 27.0425 58.8136 27.4393L58.3457 28.89L58.2146 29.3285H58.2765C58.2676 29.5651 58.3146 29.7981 58.4172 30.0254C58.5137 30.2392 58.645 30.4138 58.8105 30.548L58.7453 30.6173L59.8081 31.0043L60.0509 31.1001C61.5421 31.6884 63.1675 31.9912 64.8839 32H64.9901C66.4604 31.9892 67.886 31.7632 69.2285 31.3276L69.2881 31.3108C69.3834 31.2768 69.4822 31.2396 69.5845 31.1983C69.7045 31.159 69.825 31.1136 69.9466 31.0613C70.5873 30.7728 71.1812 30.3403 71.7116 29.7752C72.7014 28.7241 73.2472 27.4506 73.3313 25.9965C73.3352 25.9537 73.3389 25.8765 73.3414 25.683H73.3483V9.58853C73.3439 9.19727 73.2049 8.855 72.9385 8.57651C72.669 8.28434 72.336 8.13605 71.9494 8.13605H70.7037C70.319 8.13605 69.986 8.28279 69.7134 8.57276C69.6063 8.68243 69.5195 8.80425 69.454 8.93665C68.0631 7.937 66.4627 7.43055 64.69 7.43055C62.316 7.43055 60.2646 8.33951 58.5934 10.1312ZM61.593 19.9435C60.7274 19.0179 60.3065 17.9344 60.3065 16.6322C60.3065 15.3267 60.7272 14.2454 61.5924 13.3268C62.4585 12.4046 63.4714 11.9564 64.69 11.9564C65.9156 11.9564 66.9323 12.4046 67.7981 13.3274C68.6634 14.2456 69.0843 15.3267 69.0843 16.6322C69.0843 17.8437 68.723 18.8632 67.9924 19.736L67.7979 19.9432C66.9323 20.865 65.9156 21.3136 64.69 21.3136C64.5249 21.3136 64.3604 21.3041 64.1991 21.2863L64.18 21.2684H64.074C63.1331 21.1373 62.2981 20.6913 61.593 19.9435Z" fill="#FDFDFD"/>
<path d="M77.0213 8.10802L76.9931 8.10956C76.6615 8.14288 76.3725 8.28787 76.1389 8.53723C75.9414 8.74025 75.8145 8.98321 75.7598 9.26192H75.7179L75.7182 24.4752C75.7275 24.8733 75.8687 25.2165 76.1331 25.4883C76.3671 25.7428 76.6569 25.8886 76.9935 25.9222L77.0213 25.9235C77.5965 25.9255 77.9714 25.9266 78.2177 25.9266C78.5462 25.9266 78.6461 25.925 78.6869 25.9215C79.0142 25.8882 79.3019 25.7445 79.5426 25.4925C79.8173 25.2048 79.956 24.8506 79.956 24.439V9.55542C79.9515 9.15622 79.8158 8.8144 79.549 8.5348C79.3019 8.28522 79.0119 8.14244 78.6865 8.10978C78.6434 8.10603 78.539 8.10493 78.2072 8.10493C77.9605 8.10493 77.5878 8.10581 77.0213 8.10802Z" fill="#FDFDFD"/>
<path d="M2.23422 1.52839C1.86344 1.54229 1.54403 1.68971 1.28427 1.96621C1.08998 2.1732 0.964862 2.4144 0.90997 2.68693H0.872686V3.8223L0.86046 3.83245L0.872686 3.83863V4.55273L0.877863 4.88353H0.90997C0.964862 5.15562 1.08935 5.39659 1.28241 5.60204C1.55231 5.89421 1.88684 6.04295 2.27647 6.04295L11.3898 6.0531L0.24505 22.2822C0.166544 22.3945 0.106054 22.5167 0.0613115 22.6549C0.0209191 22.7946 0 22.9424 0 23.0951L0.000208607 24.1784C0.00911565 24.5732 0.149139 24.9126 0.405994 25.1765C0.664712 25.4667 0.98723 25.6163 1.36754 25.6212H16.4211C16.7966 25.6163 17.12 25.4674 17.3766 25.1847C17.6509 24.8969 17.7898 24.5425 17.7898 24.1312V22.5964C17.7898 22.1853 17.6509 21.8304 17.3839 21.5506C17.1206 21.256 16.7865 21.1064 16.3914 21.1064L6.31095 21.1011L17.4566 4.87691L17.5166 4.78378V4.76833C17.5597 4.68757 17.5982 4.6004 17.6341 4.49955C17.6747 4.35987 17.6954 4.21157 17.6954 4.05953L17.6952 2.97601C17.6861 2.58851 17.5502 2.24955 17.289 1.96643C17.0294 1.6897 16.71 1.54229 16.3281 1.52795L2.23422 1.52839Z" fill="#FDFDFD"/>
</g>
<defs>
<clipPath id="clip0_3235_1415">
<rect width="81" height="32" fill="white"/>
</clipPath>
</defs>
</svg>
