<svg width="32" height="32" viewBox="0 0 32 32" fill="none" xmlns="http://www.w3.org/2000/svg">
<rect x="0.5" y="0.5" width="31" height="31" rx="15.5" stroke="#FDFDFD"/>
<path d="M10.2881 9.00684H11.8135C12.4568 9.00691 12.993 9.48458 13.0703 10.123V10.124L13.3262 12.3457C13.3703 12.732 13.2375 13.1091 12.9668 13.3799L11.0801 15.2666L11.2441 15.5898C12.5617 18.1883 14.6835 20.3013 17.2715 21.6182L17.5957 21.7832L17.8516 21.5264L19.4736 19.9043C19.7106 19.6673 20.0294 19.5365 20.3643 19.5371L20.5088 19.5449L22.7451 19.7998V19.8008C23.3873 19.8771 23.8615 20.4146 23.8555 21.0439V22.5742C23.8554 23.3005 23.2521 23.8804 22.5625 23.8379C15.2958 23.3864 9.4761 17.5758 9.02441 10.3008C8.98435 9.65405 9.49202 9.08245 10.1543 9.01367L10.2881 9.00684Z" stroke="white"/>
</svg>
