<svg width="32" height="32" viewBox="0 0 32 32" fill="none" xmlns="http://www.w3.org/2000/svg">
<g clip-path="url(#clip0_0_462)">
<path d="M16 0C12.8355 0 9.74207 0.938383 7.11088 2.69649C4.4797 4.45459 2.42894 6.95345 1.21793 9.87706C0.0069323 12.8007 -0.309921 16.0177 0.307443 19.1214C0.924806 22.2251 2.44866 25.0761 4.6863 27.3137C6.92394 29.5513 9.77486 31.0752 12.8786 31.6926C15.9823 32.3099 19.1993 31.9931 22.1229 30.7821C25.0466 29.5711 27.5454 27.5203 29.3035 24.8891C31.0616 22.2579 32 19.1645 32 16C31.9953 11.758 30.3081 7.69101 27.3086 4.69144C24.309 1.69186 20.242 0.00465855 16 0ZM30.704 15.36H23.024C22.84 8.072 19.5456 3.4368 17.6672 1.376C21.1477 1.77743 24.3714 3.40528 26.7607 5.9678C29.1499 8.53031 30.5484 11.86 30.7056 15.36H30.704ZM16 30.4976C14.6688 29.2176 10.4688 24.5568 10.2512 16.64H21.7488C21.5312 24.5568 17.3312 29.2176 16 30.4976ZM10.2512 15.36C10.4688 7.4432 14.6688 2.7824 16 1.5024C17.3312 2.7824 21.5312 7.4432 21.7488 15.36H10.2512ZM14.3264 1.376C12.448 3.4368 9.15361 8.072 8.96961 15.36H1.28961C1.44671 11.8602 2.84501 8.53075 5.23392 5.96827C7.62283 3.40579 10.8462 1.77779 14.3264 1.376ZM1.29441 16.64H8.97441C9.1584 23.928 12.4528 28.5632 14.3312 30.624C10.851 30.2222 7.62763 28.5942 5.23872 26.0317C2.84981 23.4692 1.45151 20.1398 1.29441 16.64ZM17.6736 30.624C19.552 28.5632 22.8464 23.928 23.0304 16.64H30.7104C30.5533 20.1398 29.155 23.4692 26.7661 26.0317C24.3772 28.5942 21.1538 30.2222 17.6736 30.624Z" fill="#FDFDFD"/>
</g>
<defs>
<clipPath id="clip0_0_462">
<rect width="32" height="32" fill="white"/>
</clipPath>
</defs>
</svg>
