<svg width="32" height="32" viewBox="0 0 32 32" fill="none" xmlns="http://www.w3.org/2000/svg">
<path d="M12.8424 17.6342L12.8423 17.6343L7.79504 21.4657C6.68064 22.3148 5.21916 20.9812 5.96921 19.7931L10.6689 12.3375C10.669 12.3375 10.669 12.3374 10.669 12.3374C10.8827 11.9982 11.1643 11.7071 11.4961 11.4823C11.828 11.2574 12.2028 11.1038 12.5971 11.0311C12.9913 10.9585 13.3963 10.9683 13.7865 11.0601C14.1766 11.1518 14.5435 11.3234 14.8639 11.564L12.8424 17.6342ZM12.8424 17.6342C12.922 17.5737 13.0191 17.5408 13.1191 17.5405C13.219 17.5402 13.3163 17.5724 13.3963 17.6323L17.1358 20.4358C17.4563 20.6765 17.8233 20.8482 18.2135 20.94C18.6037 21.0317 19.0087 21.0416 19.403 20.9689C19.7972 20.8962 20.1721 20.7426 20.5039 20.5178C20.8358 20.2929 21.1174 20.0017 21.3311 19.6625L26.0348 12.2109L26.0359 12.2092C26.7731 11.0309 25.3279 9.67871 24.205 10.5343L19.1577 14.3658L19.1576 14.3658C19.078 14.4263 18.9809 14.4592 18.881 14.4595C18.7811 14.4599 18.6839 14.4277 18.6039 14.368C18.6039 14.3679 18.6038 14.3678 18.6037 14.3678L14.8643 11.5642L12.8424 17.6342ZM11.5001 29.9458L11.4973 29.945C11.108 29.8408 10.6865 29.8665 10.3093 30.0349C10.3087 30.0352 10.3082 30.0354 10.3077 30.0357L7.13432 31.4345L7.13421 31.4345C7.01731 31.4861 6.88955 31.5082 6.76214 31.4988C6.63473 31.4894 6.51158 31.4489 6.4035 31.3808C6.29541 31.3126 6.20572 31.219 6.1423 31.1081C6.07888 30.9972 6.04367 30.8724 6.03977 30.7447L6.03976 30.7446L5.95187 27.9006C5.95185 27.8999 5.95184 27.8992 5.95182 27.8984C5.93988 27.4016 5.71426 26.9461 5.35737 26.6274C2.35141 23.9382 0.5 20.0418 0.5 15.52C0.5 6.89803 7.24592 0.5 16 0.5C24.7539 0.5 31.5 6.90186 31.5 15.524C31.5 24.146 24.7541 30.544 16 30.544C14.4247 30.544 12.9171 30.334 11.5001 29.9458Z" stroke="#FDFDFD"/>
</svg>
