<svg width="32" height="32" viewBox="0 0 32 32" fill="none" xmlns="http://www.w3.org/2000/svg">
<path d="M14.056 13.3769C10.9911 13.3729 8.5 15.8676 8.5 18.9366C8.5 20.8194 9.43917 22.4846 10.8728 23.4915L10.8729 23.4916C11.7737 24.1239 12.8755 24.5 14.0591 24.5C17.1232 24.5 19.6182 22.0022 19.6182 18.9366V14.2446C20.6089 14.774 21.7411 15.0753 22.9413 15.0753H23.4413V14.5753V12.4394V12.4393L23.4415 11.8264L23.4416 11.3263H22.9415C22.2735 11.3263 21.6556 11.1298 21.1331 10.7876L21.1321 10.787C20.3834 10.2993 19.8445 9.51786 19.6731 8.60793C19.6374 8.40987 19.6182 8.20606 19.6182 8V7.5L14.0554 13.8769M14.056 13.3769L14.0554 13.8769M14.056 13.3769C14.0558 13.3769 14.0556 13.3769 14.0554 13.3769V13.8769M14.056 13.3769C14.3163 13.3769 14.5651 13.3977 14.8046 13.4296L15.2384 13.4876V13.9252V14.5753V14.8901L15.2383 14.8901M14.0554 13.8769C14.2892 13.8769 14.5157 13.8955 14.7384 13.9252V14.0789L15.2383 14.0676V14.5753V14.579V14.8901M15.2383 14.8901L14.9545 15.0262L14.9464 15.0301L14.7387 14.597L14.7496 15.0789L14.7415 15.0791L14.7383 15.0659V16.2142C14.7886 16.227 14.8381 16.2411 14.8867 16.2562L14.7383 16.7337H14.2383V16.6339C14.1779 16.6287 14.1169 16.6259 14.0554 16.6259C12.7823 16.6259 11.7467 17.6624 11.7467 18.9366C11.7467 19.7827 12.2051 20.5208 12.8842 20.926L13.2206 20.5418C13.2207 20.5418 13.2207 20.5418 13.2208 20.5419L13.2217 20.5423L13.3223 20.5957L13.3901 20.6886L13.3931 20.6926M15.2383 14.8901L12.9901 20.9798M13.3931 20.6926L13.4054 20.7092L13.4068 20.711L13.4177 20.7254L13.0454 21.0081C13.0475 21.0091 13.0496 21.0102 13.0516 21.0112C13.0656 21.0181 13.0797 21.0248 13.0939 21.0315L13.4635 20.7978C13.4441 20.7604 13.422 20.7243 13.3973 20.6896L13.3931 20.6926ZM13.3931 20.6926L13.0454 20.9404L12.9901 20.9798M12.9901 20.9798L12.9893 20.9814L12.9874 20.9849L12.9864 20.9835L12.9901 20.9798ZM22.9413 14.5753C22.7732 14.5753 22.6064 14.5689 22.4413 14.5565V14.5753H22.9413ZM22.9415 11.8263L22.9414 12.3263C22.9414 12.3263 22.9414 12.3263 22.9415 12.3263V11.8263ZM15.8678 19.0124L15.8678 19.0219L16.3678 19.0221L15.8681 19.004C15.868 19.0068 15.8679 19.0096 15.8678 19.0124ZM0.5 16C0.5 7.43959 7.43959 0.5 16 0.5C24.5604 0.5 31.5 7.43959 31.5 16C31.5 24.5604 24.5604 31.5 16 31.5C7.43959 31.5 0.5 24.5604 0.5 16Z" stroke="#FDFDFD"/>
</svg>
