<svg width="34" height="34" viewBox="0 0 34 34" fill="none" xmlns="http://www.w3.org/2000/svg">
<rect x="1" y="1" width="32" height="32" rx="16" stroke="#FDFDFD"/>
<path d="M26.875 15.3322C26.8803 12.7649 24.7928 10.6727 22.221 10.6727C20.3528 10.6727 18.8677 11.7088 18.0505 13.3923C17.4007 12.2361 16.895 10.9698 16.5745 9.86561L16.4699 9.50497H16.0943H13.9975H13.4975V10.005V15.4559C13.4975 16.258 12.8468 16.9086 12.0447 16.9086C11.2426 16.9086 10.5919 16.258 10.5919 15.4559V10V9.5H10.0919H8H7.5V10V15.4509C7.5 17.9549 9.53432 20.0154 12.0447 20.0154C14.2555 20.0154 16.097 18.4173 16.5051 16.3256C16.6791 16.5989 16.8646 16.8669 17.0623 17.1256L15.8289 22.9295L15.7005 23.5334H16.3179H18.4595H18.8644L18.9486 23.1374L19.7363 19.4306C20.4718 19.7924 21.2948 20.0105 22.2111 20.0105C24.7846 20.0105 26.8747 17.9067 26.875 15.3322ZM26.875 15.3322C26.875 15.3324 26.875 15.3325 26.875 15.3327L26.3751 15.3316H26.875C26.875 15.3318 26.875 15.332 26.875 15.3322ZM20.5289 15.7478L20.5311 15.7374L20.5328 15.7269L20.5372 15.7008C20.6116 15.2935 20.7574 14.7908 21.0301 14.4008C21.2891 14.0304 21.652 13.7695 22.221 13.7695C23.0877 13.7695 23.793 14.4749 23.793 15.3416C23.793 16.2067 23.0893 16.9086 22.221 16.9086C21.6079 16.9086 21.0027 16.6809 20.42 16.264L20.5289 15.7478Z" stroke="#FDFDFD"/>
</svg>
