<svg width="32" height="32" viewBox="0 0 32 32" fill="none" xmlns="http://www.w3.org/2000/svg">
<path d="M15.4864 1.00204C14.6153 1.01181 13.7657 1.06845 12.9298 1.17001C10.8302 1.42587 9.24617 1.83603 7.795 2.50009C4.88484 3.82821 3.1368 5.98642 2.60164 8.91415C2.35359 10.2618 2.18562 11.4884 2.08992 12.6642C1.86336 15.3927 2.06844 17.8106 2.71883 20.0567C3.37117 22.3145 4.51961 23.9317 6.20906 24.9864C7.30867 25.7442 8.49422 26.004 9.13093 26.1407C9.15828 26.1485 9.18562 26.1544 9.21492 26.1602C9.10554 27.754 8.45125 30.7716 8.44539 30.8048C8.40437 30.9884 8.47273 31.1817 8.61922 31.2989C8.71101 31.3731 8.82039 31.4102 8.93172 31.4102C9.00398 31.4102 9.07429 31.3946 9.1407 31.3653C9.27156 31.3048 12.338 29.8751 14.6094 27.1231L14.7501 26.9669C14.7618 26.9552 14.7716 26.9454 14.7794 26.9356C16.1231 26.9083 17.5098 26.8556 18.9044 26.7813C20.6251 26.6876 22.6231 26.5216 24.5294 25.7286C26.3223 24.9845 27.6329 23.7989 28.4219 22.2032C29.2188 20.5997 29.6895 18.8653 29.8673 16.9005C30.1719 13.4981 29.9532 10.5392 29.1973 7.85751C28.6641 5.96103 27.6036 4.45712 26.0469 3.39267C24.127 2.07626 21.9434 1.61337 20.0606 1.33407C18.4532 1.09579 16.9395 0.984465 15.4864 1.00204ZM15.7755 2.00009C17.0919 2.00009 18.463 2.10751 19.9141 2.32431C21.6837 2.58603 23.7286 3.01767 25.4844 4.21884C26.8419 5.14853 27.7677 6.46298 28.2364 8.12899C28.9571 10.6915 29.1661 13.5313 28.8712 16.8126C28.7286 18.3907 28.3712 19.8009 27.8067 21.1153C27.7227 21.047 27.6173 21.0001 27.5001 21.0001C27.2247 21.0001 27.0001 21.2227 27.0001 21.5001V22.5001C27.0001 22.5333 27.0118 22.5626 27.0177 22.5938C26.3302 23.5528 25.3712 24.297 24.1446 24.8048C22.3848 25.5372 20.4884 25.6915 18.8497 25.7813C17.4552 25.8556 16.0645 25.9083 14.7188 25.9356C14.3536 25.9415 14.2325 26.0431 14.002 26.3048L13.8516 26.4708C12.4493 28.17 10.6895 29.3516 9.63875 29.9649C9.87312 28.7716 10.2169 26.8614 10.2286 25.8243C10.2345 25.3595 9.80086 25.2638 9.34187 25.1641C8.7325 25.0313 7.71297 24.8106 6.75789 24.1524C6.06648 23.7208 5.48445 23.1759 4.99617 22.5235C4.99617 22.5138 5.00008 22.5079 5.00008 22.5001V21.5001C5.00008 21.2227 4.77547 21.0001 4.50008 21.0001C4.37312 21.0001 4.2618 21.0509 4.1739 21.127C3.98445 20.711 3.81844 20.2638 3.67976 19.7813C3.06453 17.6524 2.86922 15.3516 3.08601 12.7462C3.17976 11.6056 3.34383 10.4102 3.58601 9.09384C4.05867 6.5079 5.61531 4.59579 8.21101 3.41025C9.56648 2.78915 11.0587 2.40439 13.0528 2.1622C13.9376 2.05282 14.8438 2.00009 15.7755 2.00009ZM17.7462 4.97665C17.1876 4.97665 16.6309 5.0372 16.0919 5.15829C15.8223 5.22079 15.6524 5.48837 15.713 5.7579C15.7735 6.02743 16.0411 6.19735 16.3126 6.13485C16.7794 6.02939 17.2618 5.97665 17.7481 5.97665C20.9005 5.97665 23.6446 8.31064 24.1251 11.4063C24.1641 11.6524 24.377 11.8282 24.6192 11.8282C24.6446 11.8282 24.67 11.8282 24.6954 11.8224C24.9688 11.7813 25.1563 11.5255 25.1134 11.252C24.5567 7.67392 21.3887 4.97665 17.7462 4.97665ZM10.8302 6.75595C10.6876 6.75009 10.545 6.76376 10.3985 6.79696C9.15242 7.0704 7.68367 8.03915 7.64265 9.87704C7.64265 9.90829 7.64461 9.93954 7.65047 9.96884C7.66023 10.0255 7.66414 10.0841 7.67195 10.1427C7.68758 10.3126 7.70711 10.504 7.78914 10.7032C7.88289 10.9356 7.97664 11.17 8.06844 11.4044C8.34578 12.1056 8.63289 12.8341 9.00593 13.5177C10.7794 16.7794 13.3048 19.3946 16.5333 21.3321C16.5157 21.3849 16.5001 21.4415 16.5001 21.5001V22.5001C16.5001 22.7774 16.7247 23.0001 17.0001 23.0001C17.2755 23.0001 17.5001 22.7774 17.5001 22.5001V21.8809C18.1622 22.2345 18.8458 22.5645 19.5626 22.8673C19.9317 23.0216 20.2969 23.1016 20.6524 23.1016C20.9688 23.1016 21.2774 23.0372 21.5762 22.9141C22.4688 22.5431 23.1505 21.9825 23.6016 21.2501C24.1114 20.42 24.5157 19.336 23.1075 18.3067C22.8731 18.1349 22.6407 17.963 22.4063 17.7891C22.0216 17.504 21.6329 17.2169 21.2403 16.9376C20.5411 16.4434 19.8438 16.2501 19.2266 16.3809C18.6602 16.4981 18.1876 16.8673 17.8262 17.4688C17.8126 17.4825 17.7989 17.4981 17.7833 17.5118C17.7813 17.5138 17.7462 17.5509 17.7423 17.5548C17.5216 17.7872 17.293 17.8399 17.004 17.7208C15.2091 16.9864 13.9688 15.8516 13.211 14.252C12.8165 13.42 12.8848 13.1563 13.6309 12.5977C13.7344 12.5196 13.836 12.4376 13.9298 12.3517C14.5079 11.8282 14.6505 11.1388 14.3204 10.4552C13.7423 9.25595 12.9688 8.19345 12.0235 7.29696C11.6641 6.95321 11.2559 6.77157 10.8302 6.75595ZM17.2344 7.39267C16.9317 7.39267 16.6212 7.42001 16.3145 7.46884C16.0411 7.51571 15.8555 7.77157 15.9005 8.04501C15.9473 8.31649 16.2032 8.50204 16.4766 8.45517C16.7305 8.41415 16.9844 8.39267 17.2344 8.39267C19.7442 8.39267 21.7872 10.4239 21.7872 12.9161C21.7872 13.1681 21.7657 13.422 21.7247 13.672C21.6778 13.9454 21.8634 14.2013 22.1348 14.2481C22.1641 14.252 22.1915 14.2559 22.2188 14.2559C22.4571 14.2559 22.67 14.0821 22.711 13.836C22.7618 13.5333 22.7872 13.2227 22.7872 12.9181C22.7872 9.87313 20.2969 7.39267 17.2344 7.39267ZM10.7501 7.75595C10.9024 7.75009 11.1016 7.79696 11.336 8.02157C12.1934 8.83407 12.8946 9.79892 13.4219 10.8907C13.5372 11.129 13.5548 11.3438 13.2579 11.6095C13.1856 11.6759 13.1094 11.7384 13.0313 11.797C11.9083 12.6368 11.711 13.4181 12.3067 14.6798C13.1661 16.4884 14.6192 17.8224 16.6251 18.6446C17.295 18.92 17.9669 18.7716 18.4981 18.211C18.5489 18.1602 18.6173 18.0919 18.6739 17.9942C18.8946 17.6309 19.1485 17.4181 19.4298 17.3595C19.8594 17.2677 20.338 17.5235 20.6641 17.754C21.0509 18.0274 21.4298 18.3106 21.8106 18.5938C22.045 18.7677 22.2794 18.9415 22.5157 19.1153C23.1876 19.6036 23.2344 19.9356 22.7501 20.7266C22.4102 21.2774 21.8868 21.7013 21.1934 21.9903C20.8087 22.1485 20.4024 22.1349 19.9512 21.9434C15.4532 20.0528 12.0665 17.0548 9.88289 13.0392C9.53914 12.4083 9.27742 11.7403 9.00008 11.0352C8.90437 10.797 8.81062 10.5587 8.71297 10.3204C8.68758 10.2579 8.67781 10.1524 8.66609 10.0392C8.66023 9.9786 8.65242 9.91806 8.64461 9.85751C8.69343 8.62704 9.68953 7.9747 10.6134 7.77353C10.6544 7.76376 10.6993 7.75595 10.7501 7.75595ZM16.6427 9.81259C16.3673 9.81259 16.1427 10.0352 16.1427 10.3126C16.1427 10.588 16.3673 10.8126 16.6427 10.8126C18.1407 10.8126 19.3594 12.0216 19.3594 13.5079C19.3594 13.7852 19.5821 14.0079 19.8594 14.0079C20.1348 14.0079 20.3594 13.7852 20.3594 13.5079C20.3594 11.4708 18.6915 9.81259 16.6427 9.81259ZM24.7188 12.4063C24.4473 12.3849 24.2032 12.5938 24.1837 12.8692C24.1602 13.1895 24.1114 13.5079 24.0411 13.8184C23.9786 14.086 24.1466 14.3556 24.4161 14.4161C24.4532 14.4259 24.4923 14.4298 24.5294 14.4298C24.7559 14.4298 24.963 14.2716 25.0157 14.0392C25.0977 13.6817 25.1524 13.3126 25.1798 12.9434C25.2012 12.6681 24.9942 12.4278 24.7188 12.4063ZM7.00008 21.0001C6.72469 21.0001 6.50008 21.2227 6.50008 21.5001V22.5001C6.50008 22.7774 6.72469 23.0001 7.00008 23.0001C7.27547 23.0001 7.50008 22.7774 7.50008 22.5001V21.5001C7.50008 21.2227 7.27547 21.0001 7.00008 21.0001ZM9.50008 21.0001C9.22469 21.0001 9.00008 21.2227 9.00008 21.5001V22.5001C9.00008 22.7774 9.22469 23.0001 9.50008 23.0001C9.77547 23.0001 10.0001 22.7774 10.0001 22.5001V21.5001C10.0001 21.2227 9.77547 21.0001 9.50008 21.0001ZM12.0001 21.0001C11.7247 21.0001 11.5001 21.2227 11.5001 21.5001V22.5001C11.5001 22.7774 11.7247 23.0001 12.0001 23.0001C12.2755 23.0001 12.5001 22.7774 12.5001 22.5001V21.5001C12.5001 21.2227 12.2755 21.0001 12.0001 21.0001ZM14.5001 21.0001C14.2247 21.0001 14.0001 21.2227 14.0001 21.5001V22.5001C14.0001 22.7774 14.2247 23.0001 14.5001 23.0001C14.7755 23.0001 15.0001 22.7774 15.0001 22.5001V21.5001C15.0001 21.2227 14.7755 21.0001 14.5001 21.0001ZM25.0001 21.0001C24.7247 21.0001 24.5001 21.2227 24.5001 21.5001V22.5001C24.5001 22.7774 24.7247 23.0001 25.0001 23.0001C25.2755 23.0001 25.5001 22.7774 25.5001 22.5001V21.5001C25.5001 21.2227 25.2755 21.0001 25.0001 21.0001Z" fill="#FDFDFD"/>
</svg>
