<svg width="32" height="32" viewBox="0 0 32 32" fill="none" xmlns="http://www.w3.org/2000/svg">
<path d="M22.3374 10.2192L22.3294 10.217L22.3213 10.2149C21.9711 10.1274 21.3835 10.0695 20.7419 10.0276C20.0858 9.98483 19.3286 9.9565 18.6132 9.93767C17.897 9.91883 17.219 9.90942 16.7203 9.90471C16.4709 9.90236 16.2661 9.90118 16.1235 9.90059L15.9585 9.90008L15.9151 9.90001L15.9039 9.9L15.901 9.9H15.9003H15.9001L15.9 10.4L15.8999 9.9H15.8997H15.899L15.8961 9.9L15.8851 9.90001L15.8425 9.90008L15.6805 9.90059C15.5405 9.90118 15.3392 9.90236 15.0936 9.90471C14.6027 9.90942 13.9341 9.91883 13.2242 9.93768C12.515 9.95651 11.7611 9.98484 11.1005 10.0276C10.4515 10.0696 9.85726 10.1275 9.48758 10.2128L9.47503 10.2157L9.46265 10.2192C8.59655 10.4667 7.96669 11.0965 7.71923 11.9626L7.71059 11.9929L7.70581 12.024C7.60065 12.7075 7.55022 13.7102 7.52524 14.5221C7.51261 14.9323 7.50631 15.3012 7.50316 15.5675C7.50158 15.7008 7.50079 15.8085 7.5004 15.8831L7.50005 15.9692L7.50001 15.9919L7.5 15.9978L7.5 15.9994V15.9998V15.9999L8 16L7.5 16.0001V16.0002V16.0007L7.5 16.0023L7.50001 16.0084L7.50008 16.0314L7.5006 16.1182C7.5012 16.1933 7.50239 16.3016 7.50477 16.4354C7.50952 16.7029 7.51901 17.0734 7.53803 17.4856C7.57551 18.2975 7.65152 19.3135 7.81281 20.0124L7.8157 20.025L7.81924 20.0374C8.0667 20.9035 8.69653 21.5333 9.56264 21.7808L9.57065 21.7831L9.57873 21.7851C9.92896 21.8726 10.5165 21.9305 11.1581 21.9724C11.8142 22.0152 12.5714 22.0435 13.2868 22.0623C14.003 22.0812 14.681 22.0906 15.1797 22.0953C15.4291 22.0976 15.6339 22.0988 15.7764 22.0994L15.9415 22.0999L15.9849 22.1L15.9961 22.1L15.999 22.1H15.9997H15.9999L16 21.6L16.0001 22.1H16.0003H16.001L16.0039 22.1L16.0149 22.1L16.0575 22.0999L16.2195 22.0994C16.3595 22.0988 16.5608 22.0976 16.8064 22.0953C17.2973 22.0906 17.9659 22.0812 18.6758 22.0623C19.385 22.0435 20.1389 22.0152 20.7995 21.9724C21.4485 21.9304 22.0427 21.8725 22.4124 21.7872L22.425 21.7843L22.4373 21.7808C23.3034 21.5333 23.9333 20.9035 24.1808 20.0374L24.1843 20.025L24.1872 20.0124C24.3485 19.3135 24.4245 18.2975 24.462 17.4856C24.481 17.0734 24.4905 16.7029 24.4952 16.4354C24.4976 16.3016 24.4988 16.1933 24.4994 16.1182L24.4999 16.0314L24.5 16.0084L24.5 16.0023L24.5 16.0007V16.0002V16.0001L24 16C24.5 16 24.5 16 24.5 15.9999V15.9997V15.9992L24.5 15.9975L24.5 15.9913L24.4999 15.968L24.4992 15.8804C24.4984 15.8049 24.4968 15.696 24.4936 15.5616C24.4873 15.293 24.4745 14.9209 24.4491 14.5068C24.3992 13.6961 24.2976 12.6702 24.0794 11.9577C23.8309 11.0942 23.2018 10.4662 22.3374 10.2192ZM14.9 17.5384V14.4616L17.5922 16L14.9 17.5384ZM0.5 16C0.5 7.43959 7.43959 0.5 16 0.5C24.5604 0.5 31.5 7.43959 31.5 16C31.5 24.5604 24.5604 31.5 16 31.5C7.43959 31.5 0.5 24.5604 0.5 16Z" stroke="#FDFDFD"/>
</svg>
